<svg width="50" height="45" viewBox="0 0 50 45" fill="none" xmlns="http://www.w3.org/2000/svg">
<path d="M9.85957 19.2832C6.83809 19.2832 4.37988 21.7414 4.37988 24.763V25.9377C4.37988 27.2228 4.82559 28.4049 5.56904 29.3403L2.72822 30.2817C1.09639 30.8225 0 32.3408 0 34.0599V43.7508C0 44.29 0.437305 44.7273 0.976562 44.7273H8.59375C9.13301 44.7273 9.57031 44.29 9.57031 43.7508C9.57031 43.2115 9.13301 42.7742 8.59375 42.7742H1.95312V34.0599C1.95312 33.1844 2.51152 32.4111 3.34258 32.1357L7.35137 30.8072C8.10352 31.1963 8.95596 31.4175 9.85957 31.4175H9.85967C12.8812 31.4175 15.3394 28.9593 15.3394 25.9377V24.763C15.3394 21.7414 12.8812 19.2832 9.85957 19.2832ZM13.3862 25.7333H10.8398C10.3006 25.7333 9.86328 26.1706 9.86328 26.7099C9.86328 27.2491 10.3006 27.6864 10.8398 27.6864H12.9202C12.3116 28.7475 11.1681 29.4644 9.85957 29.4644C9.20508 29.4644 8.59209 29.2846 8.06621 28.9726C8.01328 28.9312 7.95635 28.8954 7.89639 28.8658C6.9542 28.232 6.33301 27.1561 6.33301 25.9377V24.763C6.33301 22.8184 7.91504 21.2363 9.85967 21.2363C11.8042 21.2363 13.3862 22.8184 13.3862 24.763V25.7333Z" fill="#0069DB"/>
<path d="M34.7834 30.8563L30.097 29.3033C31.4158 27.9941 32.2341 26.1813 32.2341 24.1807V20.9891C32.2341 17.0071 28.9945 13.7676 25.0126 13.7676C21.0307 13.7676 17.7911 17.0071 17.7911 20.9891V24.1807C17.7911 26.1813 18.6094 27.9942 19.9282 29.3033L15.2418 30.8563C13.1337 31.5548 11.7173 33.5162 11.7173 35.7371V43.7507C11.7173 44.2899 12.1546 44.7272 12.6938 44.7272H37.3312C37.8705 44.7272 38.3078 44.2899 38.3078 43.7507V35.7371C38.3079 33.5162 36.8915 31.5548 34.7834 30.8563ZM25.0126 15.7207C27.0553 15.7207 28.8289 16.8901 29.7026 18.5938L28.3522 19.5247C27.6387 20.0166 26.8034 20.2766 25.9367 20.2766H19.7938C20.1428 17.7075 22.3493 15.7207 25.0126 15.7207ZM19.7442 24.1807V22.2297H25.9367C27.2012 22.2297 28.4198 21.8504 29.4608 21.1328L30.2636 20.5795C30.274 20.7148 30.2811 20.8511 30.2811 20.9891V24.1807C30.2811 24.6321 30.2238 25.0705 30.1165 25.489H28.2229C27.6836 25.489 27.2463 25.9263 27.2463 26.4655C27.2463 27.0048 27.6836 27.4421 28.2229 27.4421H29.1454C28.1797 28.6632 26.6866 29.449 25.0126 29.449C22.1076 29.449 19.7442 27.0856 19.7442 24.1807ZM36.3548 42.7741H33.7971V39.3562C33.7971 38.8169 33.3598 38.3796 32.8205 38.3796C32.2812 38.3796 31.8439 38.8169 31.8439 39.3562V42.7741H18.1565V39.3562C18.1565 38.8169 17.7192 38.3796 17.18 38.3796C16.6407 38.3796 16.2034 38.8169 16.2034 39.3562V42.7741H13.6704V35.7371C13.6704 34.3598 14.5487 33.1434 15.8562 32.7103L21.9146 30.7025C22.854 31.1506 23.9044 31.4021 25.0126 31.4021C26.1208 31.4021 27.1712 31.1506 28.1105 30.7025L34.169 32.7103C35.4765 33.1435 36.3548 34.3599 36.3548 35.7371V42.7741Z" fill="#0069DB"/>
<path d="M42.0645 43.0596C41.8828 42.8779 41.6309 42.7734 41.374 42.7734C41.1162 42.7734 40.8643 42.8778 40.6836 43.0596C40.501 43.2412 40.3975 43.4932 40.3975 43.75C40.3975 44.0068 40.501 44.2588 40.6836 44.4403C40.8652 44.622 41.1163 44.7266 41.374 44.7266C41.6309 44.7266 41.8828 44.6221 42.0645 44.4403C42.246 44.2588 42.3506 44.0068 42.3506 43.75C42.3506 43.4932 42.2461 43.2412 42.0645 43.0596Z" fill="#0069DB"/>
<path d="M47.2718 30.2817L44.431 29.3403C45.1744 28.4049 45.6201 27.2227 45.6201 25.9377V24.763C45.6201 21.7414 43.1619 19.2832 40.1403 19.2832C37.1188 19.2832 34.6606 21.7414 34.6606 24.763V25.9377C34.6606 28.9593 37.1188 31.4175 40.1404 31.4175C41.044 31.4175 41.8965 31.1963 42.6486 30.8072L46.6574 32.1357C47.4885 32.4111 48.0469 33.1844 48.0469 34.0599V42.7742H45.0195C44.4803 42.7742 44.043 43.2115 44.043 43.7508C44.043 44.29 44.4803 44.7273 45.0195 44.7273H49.0234C49.5627 44.7273 50 44.29 50 43.7508V34.0599C50 32.3408 48.9036 30.8225 47.2718 30.2817ZM43.667 25.7333H41.3737C40.8345 25.7333 40.3972 26.1706 40.3972 26.7099C40.3972 27.2491 40.8345 27.6864 41.3737 27.6864H43.2011C42.9302 28.1588 42.5538 28.5632 42.1033 28.8661C42.0436 28.8957 41.9869 28.9313 41.9342 28.9725C41.4082 29.2845 40.795 29.4644 40.1403 29.4644C38.1958 29.4644 36.6138 27.8823 36.6138 25.9377V24.763C36.6138 22.8184 38.1958 21.2363 40.1404 21.2363C42.085 21.2363 43.667 22.8184 43.667 24.763V25.7333Z" fill="#0069DB"/>
<path d="M17.7138 8.39844H14.7583C14.887 8.28047 15.0173 8.15841 15.1477 8.03292C16.9954 6.25391 17.8937 4.74619 17.8937 3.42334C17.8937 1.37568 16.5179 0 14.4702 0C12.5826 0 11.0469 1.53574 11.0469 3.42334C11.0469 3.9626 11.4842 4.39991 12.0234 4.39991C12.5627 4.39991 13 3.9626 13 3.42334C13 2.6127 13.6596 1.95313 14.4702 1.95313C15.9405 1.95313 15.9405 3.05967 15.9405 3.42334C15.9405 4.78272 13.3195 7.25635 11.4586 8.57852C11.1118 8.82452 10.9641 9.26651 11.0931 9.67149C11.2222 10.0765 11.5984 10.3516 12.0235 10.3516H17.7138C18.253 10.3516 18.6903 9.91427 18.6903 9.37501C18.6903 8.83575 18.253 8.39844 17.7138 8.39844Z" fill="#0069DB"/>
<path d="M24.8732 5.32244H24.2066V5.04578C24.2066 4.50653 23.7693 4.06922 23.2301 4.06922C22.6908 4.06922 22.2535 4.50653 22.2535 5.04578V5.32244H20.906L23.1033 1.45956C23.3699 0.99071 23.2061 0.394519 22.7373 0.12782C22.2688 -0.138683 21.6723 0.0249883 21.4055 0.493836L18.3782 5.8161C18.2062 6.11844 18.2081 6.48934 18.3829 6.78992C18.5578 7.0907 18.8793 7.27557 19.2271 7.27557H22.2535V9.37518C22.2535 9.91443 22.6908 10.3517 23.2301 10.3517C23.7693 10.3517 24.2066 9.91443 24.2066 9.37518V7.27557H24.8732C25.4125 7.27557 25.8498 6.83826 25.8498 6.29901C25.8498 5.75975 25.4125 5.32244 24.8732 5.32244Z" fill="#0069DB"/>
<path d="M31.0112 0.0673101C30.5077 -0.126245 29.9427 0.124634 29.7491 0.628053L26.518 9.0265C26.3244 9.52992 26.5754 10.095 27.0788 10.2886C27.1942 10.3329 27.3127 10.354 27.4293 10.354C27.8215 10.354 28.1917 10.116 28.3409 9.72787L31.5719 1.32942C31.7656 0.8261 31.5145 0.26106 31.0112 0.0673101Z" fill="#0069DB"/>
<path d="M38.778 0.419336C38.5955 0.156641 38.2959 0 37.9761 0H33.8745C33.3353 0 32.8979 0.437305 32.8979 0.976563C32.8979 1.51582 33.3353 1.95313 33.8745 1.95313H36.5707L33.9358 9.03448C33.7478 9.53995 34.0051 10.1023 34.5105 10.2902C34.6228 10.332 34.7378 10.3519 34.851 10.3519C35.2473 10.3519 35.62 10.1088 35.7663 9.71554L38.8913 1.31709C39.0029 1.01738 38.9605 0.681934 38.778 0.419336Z" fill="#0069DB"/>
<path d="M25.6903 25.7998C25.5088 25.6182 25.2568 25.5137 25 25.5137C24.7421 25.5137 24.4912 25.6181 24.3096 25.7998C24.1279 25.9815 24.0234 26.2324 24.0234 26.4902C24.0234 26.7471 24.1278 26.999 24.3096 27.1806C24.4912 27.3623 24.7432 27.4668 25 27.4668C25.2568 27.4668 25.5088 27.3623 25.6903 27.1806C25.872 26.9979 25.9766 26.7471 25.9766 26.4902C25.9766 26.2333 25.8721 25.9814 25.6903 25.7998Z" fill="#0069DB"/>
</svg>
