<svg width="155" height="48" viewBox="0 0 155 48" fill="none" xmlns="http://www.w3.org/2000/svg">
<rect width="155" height="48" rx="10" fill="#002A58"/>
<path d="M54.5 19.2832H55.24V12.9232H57.7V12.2832H52.04V12.9232H54.5V19.2832ZM60.2192 11.7732C60.5392 11.7732 60.7692 11.9832 60.7692 12.2632C60.7692 12.5632 60.5792 12.7932 60.1792 12.9732L60.4292 13.2832C60.9692 13.0332 61.2292 12.6832 61.2292 12.2132C61.2292 11.6832 60.8392 11.3532 60.2792 11.3532C59.9892 11.3532 59.6692 11.4432 59.4492 11.6132L59.6192 11.9632C59.8192 11.8332 60.0092 11.7732 60.2192 11.7732ZM60.2792 13.9832C59.4492 13.9832 58.6692 14.2432 58.1392 14.6932L58.4592 15.2232C58.8892 14.8432 59.5292 14.6032 60.2092 14.6032C61.1892 14.6032 61.6992 15.0932 61.6992 15.9932V16.3132H60.0292C58.5192 16.3132 57.9992 16.9932 57.9992 17.8032C57.9992 18.7132 58.7292 19.3332 59.9192 19.3332C60.7892 19.3332 61.4092 19.0032 61.7292 18.4632V19.2832H62.4092V16.0232C62.4092 14.6632 61.6392 13.9832 60.2792 13.9832ZM60.0292 18.7732C59.1892 18.7732 58.6992 18.3932 58.6992 17.7832C58.6992 17.2432 59.0292 16.8432 60.0492 16.8432H61.6992V17.7032C61.4192 18.3932 60.8292 18.7732 60.0292 18.7732ZM64.6977 12.8732C64.9977 12.8732 65.2177 12.6432 65.2177 12.3532C65.2177 12.0832 64.9877 11.8632 64.6977 11.8632C64.4077 11.8632 64.1777 12.0932 64.1777 12.3632C64.1777 12.6432 64.4077 12.8732 64.6977 12.8732ZM64.3377 19.2832H65.0477V14.0232H64.3377V19.2832ZM71.4804 13.9832C70.6504 13.9832 69.8704 14.2432 69.3404 14.6932L69.6604 15.2232C70.0904 14.8432 70.7304 14.6032 71.4104 14.6032C72.3904 14.6032 72.9004 15.0932 72.9004 15.9932V16.3132H71.2304C69.7204 16.3132 69.2004 16.9932 69.2004 17.8032C69.2004 18.7132 69.9304 19.3332 71.1204 19.3332C71.9904 19.3332 72.6104 19.0032 72.9304 18.4632V19.2832H73.6104V16.0232C73.6104 14.6632 72.8404 13.9832 71.4804 13.9832ZM71.2304 18.7732C70.3904 18.7732 69.9004 18.3932 69.9004 17.7832C69.9004 17.2432 70.2304 16.8432 71.2504 16.8432H72.9004V17.7032C72.6204 18.3932 72.0304 18.7732 71.2304 18.7732ZM78.2488 13.9832C77.3788 13.9832 76.6488 14.3632 76.2188 15.0632V14.0232H75.5388V21.2232H76.2488V18.2932C76.6888 18.9732 77.4088 19.3332 78.2488 19.3332C79.7488 19.3332 80.8688 18.2532 80.8688 16.6532C80.8688 15.0632 79.7488 13.9832 78.2488 13.9832ZM78.1988 18.7032C77.0788 18.7032 76.2388 17.8832 76.2388 16.6532C76.2388 15.4332 77.0788 14.6032 78.1988 14.6032C79.3088 14.6032 80.1588 15.4332 80.1588 16.6532C80.1588 17.8832 79.3088 18.7032 78.1988 18.7032ZM85.0262 13.9832C84.1562 13.9832 83.4262 14.3632 82.9962 15.0632V14.0232H82.3162V21.2232H83.0262V18.2932C83.4662 18.9732 84.1862 19.3332 85.0262 19.3332C86.5262 19.3332 87.6462 18.2532 87.6462 16.6532C87.6462 15.0632 86.5262 13.9832 85.0262 13.9832ZM84.9762 18.7032C83.8562 18.7032 83.0162 17.8832 83.0162 16.6532C83.0162 15.4332 83.8562 14.6032 84.9762 14.6032C86.0862 14.6032 86.9362 15.4332 86.9362 16.6532C86.9362 17.8832 86.0862 18.7032 84.9762 18.7032ZM94.2307 18.4532C94.0307 18.6332 93.7407 18.7232 93.4507 18.7232C92.8607 18.7232 92.5407 18.3832 92.5407 17.7632V14.6232H94.1407V14.0232H92.5407V12.8732H91.8307V14.0232H90.8907V14.6232H91.8307V17.8032C91.8307 18.7732 92.3807 19.3332 93.3707 19.3332C93.7807 19.3332 94.2007 19.2132 94.4807 18.9632L94.2307 18.4532ZM97.6132 13.9832C96.7832 13.9832 96.0032 14.2432 95.4732 14.6932L95.7932 15.2232C96.2232 14.8432 96.8632 14.6032 97.5432 14.6032C98.5232 14.6032 99.0332 15.0932 99.0332 15.9932V16.3132H97.3632C95.8532 16.3132 95.3332 16.9932 95.3332 17.8032C95.3332 18.7132 96.0632 19.3332 97.2532 19.3332C98.1232 19.3332 98.7432 19.0032 99.0632 18.4632V19.2832H99.7432V16.0232C99.7432 14.6632 98.9732 13.9832 97.6132 13.9832ZM97.3632 18.7732C96.5232 18.7732 96.0332 18.3932 96.0332 17.7832C96.0332 17.2432 96.3632 16.8432 97.3832 16.8432H99.0332V17.7032C98.7532 18.3932 98.1632 18.7732 97.3632 18.7732ZM97.6532 20.3232C97.4132 20.3232 97.2232 20.5032 97.2232 20.7532C97.2232 21.0032 97.4132 21.1832 97.6532 21.1832C97.8932 21.1832 98.0832 21.0032 98.0832 20.7532C98.0832 20.5032 97.8932 20.3232 97.6532 20.3232ZM102.032 12.8732C102.332 12.8732 102.552 12.6432 102.552 12.3532C102.552 12.0832 102.322 11.8632 102.032 11.8632C101.742 11.8632 101.512 12.0932 101.512 12.3632C101.512 12.6432 101.742 12.8732 102.032 12.8732ZM101.672 19.2832H102.382V14.0232H101.672V19.2832Z" fill="white"/>
<path d="M59.416 36.0273H61.048L57.256 27.6273H55.72L51.94 36.0273H53.548L54.376 34.0833H58.576L59.416 36.0273ZM54.904 32.8593L56.476 29.1873L58.06 32.8593H54.904ZM65.5723 27.6273H62.1163V36.0273H63.6763V33.6033H65.5723C67.7803 33.6033 69.1483 32.4633 69.1483 30.6153C69.1483 28.7553 67.7803 27.6273 65.5723 27.6273ZM65.5003 32.2833H63.6763V28.9473H65.5003C66.8683 28.9473 67.5763 29.5593 67.5763 30.6153C67.5763 31.6713 66.8683 32.2833 65.5003 32.2833ZM74.1621 27.6273H70.7061V36.0273H72.2661V33.6033H74.1621C76.3701 33.6033 77.7381 32.4633 77.7381 30.6153C77.7381 28.7553 76.3701 27.6273 74.1621 27.6273ZM74.0901 32.2833H72.2661V28.9473H74.0901C75.4581 28.9473 76.1661 29.5593 76.1661 30.6153C76.1661 31.6713 75.4581 32.2833 74.0901 32.2833ZM79.296 36.0273H85.248V34.7073H80.856V27.6273H79.296V36.0273ZM88.0396 34.7193V32.4033H92.0956V31.1193H88.0396V28.9353H92.6116V27.6273H86.4796V36.0273H92.7796V34.7193H88.0396ZM100.439 36.1473C102.743 36.1473 103.835 34.9953 103.835 33.6513C103.835 30.5673 98.855 31.7313 98.855 29.9433C98.855 29.3073 99.383 28.8033 100.679 28.8033C101.411 28.8033 102.239 29.0193 102.995 29.4633L103.487 28.2513C102.755 27.7713 101.699 27.5073 100.691 27.5073C98.387 27.5073 97.307 28.6593 97.307 30.0153C97.307 33.1353 102.299 31.9473 102.299 33.7593C102.299 34.3833 101.747 34.8513 100.439 34.8513C99.407 34.8513 98.339 34.4673 97.667 33.9273L97.127 35.1393C97.823 35.7393 99.131 36.1473 100.439 36.1473ZM106.969 36.0273H108.529V28.9473H111.313V27.6273H104.185V28.9473H106.969V36.0273ZM116.29 36.1473C118.894 36.1473 120.814 34.3233 120.814 31.8273C120.814 29.3313 118.894 27.5073 116.29 27.5073C113.686 27.5073 111.766 29.3433 111.766 31.8273C111.766 34.3113 113.686 36.1473 116.29 36.1473ZM116.29 34.7793C114.598 34.7793 113.338 33.5433 113.338 31.8273C113.338 30.1113 114.598 28.8753 116.29 28.8753C117.982 28.8753 119.242 30.1113 119.242 31.8273C119.242 33.5433 117.982 34.7793 116.29 34.7793ZM129.644 36.0273L127.712 33.2673C128.852 32.8233 129.5 31.8873 129.5 30.6153C129.5 28.7553 128.132 27.6273 125.924 27.6273H122.468V36.0273H124.028V33.5793H125.924C126.032 33.5793 126.14 33.5793 126.248 33.5673L127.964 36.0273H129.644ZM127.928 30.6153C127.928 31.6713 127.22 32.2953 125.852 32.2953H124.028V28.9473H125.852C127.22 28.9473 127.928 29.5593 127.928 30.6153ZM132.805 34.7193V32.4033H136.861V31.1193H132.805V28.9353H137.377V27.6273H131.245V36.0273H137.545V34.7193H132.805Z" fill="white"/>
<path d="M20.809 34.7979C20.4436 35.4308 19.7784 35.7849 19.0953 35.785C18.7605 35.785 18.4214 35.6999 18.1112 35.5208C17.1682 34.9764 16.8439 33.7662 17.3883 32.8231L17.7767 32.1504H22.3375L20.809 34.7979Z" fill="white"/>
<path d="M17.0845 30.5681C15.9956 30.5681 15.1096 29.6822 15.1096 28.5932C15.1096 27.5043 15.9956 26.6183 17.0845 26.6183H20.9693L26.2979 17.389L24.8538 14.8877C24.3093 13.9447 24.6335 12.7344 25.5766 12.1899H25.5767C26.5197 11.6455 27.7299 11.9699 28.2743 12.9128L28.5783 13.4393L28.8823 12.9129C29.427 11.9698 30.6372 11.6456 31.58 12.19C32.0368 12.4538 32.3636 12.8796 32.5001 13.3892C32.6367 13.8987 32.5666 14.431 32.3028 14.8878L25.5301 26.6183H29.8021L32.0826 30.5681H17.0845Z" fill="white"/>
<path d="M40.0727 30.568H38.4682L39.7687 32.8206C40.3132 33.7635 39.9889 34.9737 39.046 35.5183C38.7416 35.6939 38.4038 35.7838 38.0616 35.7838C37.89 35.7838 37.7175 35.7612 37.5473 35.7156C37.0377 35.579 36.6118 35.2522 36.348 34.7953L29.4909 22.9185L31.7713 18.9688L36.1878 26.6183H40.0727C41.1616 26.6183 42.0475 27.5042 42.0475 28.5931C42.0475 29.6821 41.1616 30.568 40.0727 30.568Z" fill="white"/>
<path d="M28.5788 26.6191V30.5689H32.083L29.8027 26.6191H28.5788Z" fill="white"/>
<path d="M32.5006 13.3891C32.364 12.8796 32.0373 12.4537 31.5805 12.19C30.6376 11.6455 29.4274 11.9697 28.8828 12.9129L28.5788 13.4393V21.3388L32.3033 14.8878C32.567 14.4309 32.6372 13.8987 32.5006 13.3891Z" fill="white"/>
</svg>
