<svg width="519" height="490" viewBox="0 0 519 490" fill="none" xmlns="http://www.w3.org/2000/svg">
<g style="mix-blend-mode:screen" opacity="0.3">
<path d="M375.551 329.262C375.787 331.128 376.022 333.119 376.022 335.234C376.022 338.843 375.551 342.327 374.61 345.562C375.669 342.452 376.257 339.216 376.257 335.857C376.375 333.617 376.022 331.377 375.551 329.262Z" fill="#0069DB"/>
<path d="M164.651 0C163.356 0 162.297 0 161.473 0C111.572 0 94.389 18.2919 76.3823 33.7217C62.1416 46.0407 32.9542 83.8688 15.0652 107.636H271.514H292.816C297.642 107.636 302.231 108.631 306.351 110.373C289.285 44.5475 239.855 0 164.651 0Z" fill="#0069DB"/>
<path d="M164.651 0C163.356 0 162.297 0 161.473 0C111.572 0 94.389 18.2919 76.3823 33.7217C62.1416 46.0407 32.9542 83.8688 15.0652 107.636H271.514H292.816C297.642 107.636 302.231 108.631 306.351 110.373C289.285 44.5475 239.855 0 164.651 0Z" fill="#0069DB"/>
<path d="M431.573 199.717C431.22 199.717 472.294 184.412 472.294 110.622C472.294 62.9638 430.161 0 344.129 0H227.85C227.85 0 310.234 23.5181 329.3 117.466C330.124 121.697 334.949 146.335 325.416 164.378C322.238 170.475 317.413 175.701 310.234 179.31C305.055 182.421 299.053 184.163 292.698 184.163H30.0112C13.2991 185.656 0 201.584 0 221.244V452.195C0 472.726 14.476 489.4 32.3651 489.4H398.502C463.468 489.4 518.547 422.33 518.547 344.31C518.665 225.351 441.459 201.708 431.573 199.717ZM374.611 345.43C370.374 361.482 356.369 373.303 339.892 373.303H150.292C130.284 373.303 114.16 356.131 114.16 335.102C114.16 314.072 130.402 296.9 150.292 296.9H339.892C358.016 296.9 372.845 310.962 375.552 329.253C376.023 331.369 376.259 333.609 376.259 335.848C376.376 339.208 375.788 342.319 374.611 345.43Z" fill="#0069DB"/>
</g>
</svg>
