<svg width="610" height="289" viewBox="0 0 610 289" fill="none" xmlns="http://www.w3.org/2000/svg">
<path d="M129.322 -619.322C139.085 -629.085 154.915 -629.085 164.678 -619.322L592.322 -191.678C602.085 -181.915 602.085 -166.085 592.322 -156.322L164.678 271.322C154.915 281.085 139.085 281.085 129.322 271.322L-298.322 -156.322C-308.085 -166.085 -308.085 -181.915 -298.322 -191.678L129.322 -619.322Z" fill="url(#paint0_linear_8828_8935)"/>
<g clip-path="url(#clip0_8828_8935)">
<g style="mix-blend-mode:screen" opacity="0.1">
<path d="M150.412 122.101C160.175 112.338 176.004 112.338 185.767 122.101L295.412 231.746C305.175 241.509 305.175 257.338 295.412 267.102L185.767 376.746C176.004 386.509 160.175 386.509 150.412 376.746L40.767 267.101C31.0039 257.338 31.0039 241.509 40.767 231.746L150.412 122.101Z" fill="white"/>
</g>
</g>
<defs>
<linearGradient id="paint0_linear_8828_8935" x1="247.5" y1="13" x2="-13.0001" y2="289" gradientUnits="userSpaceOnUse">
<stop stop-color="#007AFF"/>
<stop offset="1" stop-color="#005ABC"/>
</linearGradient>
<clipPath id="clip0_8828_8935">
<rect width="228.757" height="167.136" fill="white" transform="translate(30.0894 113.424)"/>
</clipPath>
</defs>
</svg>
