<svg width="188" height="140" viewBox="0 0 188 140" fill="none" xmlns="http://www.w3.org/2000/svg">
<path d="M78.5647 0.000329962L0 26.1582L16.5903 75.9868L95.1549 49.829L78.5647 0.000329962Z" fill="#EBEBEB"/>
<path d="M78.5671 0.0292969C76.3947 4.12063 74.1318 8.10335 71.9413 12.1585C69.6965 16.1593 67.4336 20.1601 65.1525 24.1247C62.7629 28.2704 60.3733 32.3798 57.9656 36.4892C57.8931 36.616 57.8207 36.7427 57.7483 36.8875C55.6121 40.5082 53.4579 44.1288 51.3217 47.7495L50.9958 48.2745L50.4346 48.0572C46.5424 46.446 42.6684 44.8348 38.7762 43.2056C38.6494 43.1693 38.5046 43.0969 38.3598 43.0426C33.9607 41.2142 29.5616 39.3496 25.1806 37.4487C20.9987 35.6565 16.7807 33.81 12.5988 31.9634C8.39886 30.0445 4.19894 28.2161 0.0170898 26.2247C4.25325 27.7092 8.48937 29.3204 12.7074 30.8772C16.9436 32.4884 21.1617 34.0815 25.3978 35.747C30.0866 37.5754 34.8115 39.4401 39.5183 41.359C39.5364 41.359 39.5365 41.359 39.5546 41.359C43.0847 42.7711 46.6149 44.2012 50.145 45.6314C52.1001 42.3728 54.0734 39.0961 56.0466 35.8737C56.0466 35.8375 56.0466 35.8375 56.0647 35.8375C58.6897 31.4927 61.3328 27.1842 64.012 22.8756C66.4017 19.0377 68.8094 15.1998 71.2353 11.3981C73.6611 7.57835 76.0688 3.74046 78.5671 0.0292969Z" fill="white"/>
<path d="M39.9891 42.4082C39.9529 42.4444 39.9528 42.4806 39.9166 42.5168C39.627 43.0056 39.3193 43.4944 39.0296 43.9832C37.6175 46.3004 36.1331 48.5633 34.5943 50.79C32.7296 53.5417 30.7745 56.221 28.8194 58.8822C26.828 61.5252 24.8186 64.1502 22.7367 66.739C20.6548 69.3277 18.5186 71.8803 16.2557 74.3242C17.9393 71.4458 19.7677 68.676 21.6505 65.9424C23.5332 63.1907 25.4703 60.5114 27.4254 57.8503C29.4168 55.1891 31.4262 52.5641 33.5262 49.9754C35.1917 47.9116 36.8934 45.8659 38.6675 43.8927C39.0839 43.422 39.4822 42.9694 39.9166 42.5168C39.9347 42.4806 39.971 42.4444 39.9891 42.4082Z" fill="white"/>
<path d="M94.4437 48.3117C91.167 47.7143 87.9265 46.9358 84.7041 46.1212C81.4817 45.3065 78.2955 44.4014 75.1094 43.4781C71.9413 42.5186 68.7551 41.5411 65.6233 40.4549C63.0707 39.5859 60.5181 38.6808 58.0199 37.667C57.4768 37.4497 56.9518 37.2325 56.4087 37.0153C56.3725 36.9971 56.3363 36.979 56.282 36.9609C56.3182 36.979 56.3725 36.979 56.4268 36.979C57.0423 37.1058 57.6397 37.2144 58.2552 37.3411C60.8621 37.8661 63.4509 38.4816 66.0215 39.1333C69.2439 39.948 72.4301 40.8531 75.6162 41.7945C78.8024 42.754 81.9705 43.7316 85.1024 44.8178C88.2342 45.9039 91.3661 47.0264 94.4437 48.3117Z" fill="white"/>
<path d="M129.996 84.8815L118.157 121.332L175.631 139.998L187.469 103.548L129.996 84.8815Z" fill="#EBEBEB"/>
<path d="M187.494 103.58C184.453 105.046 181.393 106.404 178.352 107.834C175.293 109.21 172.233 110.568 169.174 111.926C165.988 113.338 162.783 114.713 159.597 116.071C159.489 116.107 159.398 116.162 159.308 116.216C156.483 117.411 153.659 118.606 150.817 119.819L150.401 119.981L150.165 119.601C148.572 116.976 146.997 114.333 145.422 111.69C145.368 111.6 145.314 111.509 145.259 111.419C143.467 108.432 141.693 105.445 139.937 102.421C138.253 99.5429 136.588 96.6464 134.922 93.7499C133.293 90.7991 131.628 87.9025 130.016 84.9336C131.863 87.631 133.637 90.4189 135.447 93.1706C137.24 95.9404 139.032 98.7283 140.788 101.534C142.761 104.648 144.716 107.78 146.653 110.948C146.653 110.948 146.653 110.948 146.671 110.966C148.138 113.319 149.586 115.691 151.034 118.063C153.587 116.994 156.158 115.926 158.728 114.894C158.746 114.876 158.746 114.876 158.746 114.876C162.168 113.464 165.589 112.07 169.029 110.713C172.107 109.482 175.166 108.287 178.244 107.092C181.321 105.879 184.399 104.666 187.494 103.58Z" fill="white"/>
<path d="M146.472 111.764C146.436 111.764 146.418 111.8 146.382 111.8C146.002 111.963 145.603 112.126 145.223 112.271C143.395 113.013 141.53 113.701 139.665 114.352C137.384 115.149 135.067 115.891 132.768 116.597C130.451 117.285 128.134 117.973 125.78 118.57C123.427 119.186 121.073 119.765 118.684 120.218C120.929 119.258 123.192 118.426 125.473 117.629C127.772 116.833 130.071 116.09 132.37 115.384C134.687 114.696 137.022 114.008 139.358 113.393C141.222 112.904 143.105 112.433 145.024 112.035C145.459 111.945 145.911 111.854 146.346 111.764C146.4 111.782 146.436 111.764 146.472 111.764Z" fill="white"/>
<path d="M175.89 138.807C174.225 137.033 172.65 135.187 171.129 133.304C169.59 131.421 168.106 129.52 166.639 127.602C165.191 125.664 163.743 123.709 162.367 121.718C161.245 120.107 160.14 118.459 159.108 116.776C158.873 116.414 158.656 116.052 158.439 115.708C158.42 115.69 158.402 115.653 158.384 115.617C158.402 115.635 158.439 115.671 158.457 115.69C158.764 116.034 159.072 116.359 159.38 116.685C160.683 118.115 161.933 119.6 163.164 121.102C164.702 122.985 166.187 124.886 167.653 126.805C169.101 128.742 170.55 130.697 171.926 132.689C173.301 134.698 174.641 136.707 175.89 138.807Z" fill="white"/>
</svg>
