<svg width="1440" height="666" viewBox="0 0 1440 666" fill="none" xmlns="http://www.w3.org/2000/svg">
<g opacity="0.25">
<path d="M1135.69 45.9141H1021.98V642.028H1135.69V45.9141Z" fill="#DBDBDB"/>
<path d="M1061.72 65.2559H1039.61V88.0238H1061.72V65.2559Z" fill="#EBEBEB"/>
<path d="M1090.01 65.2559H1067.9V88.0238H1090.01V65.2559Z" fill="#EBEBEB"/>
<path d="M1061.72 103.898H1039.61V126.666H1061.72V103.898Z" fill="#EBEBEB"/>
<path d="M1090.01 103.898H1067.9V126.666H1090.01V103.898Z" fill="#EBEBEB"/>
<path d="M1061.72 142.539H1039.61V165.307H1061.72V142.539Z" fill="#EBEBEB"/>
<path d="M1090.01 142.539H1067.9V165.307H1090.01V142.539Z" fill="#EBEBEB"/>
<path d="M1061.72 181.189H1039.61V203.957H1061.72V181.189Z" fill="#EBEBEB"/>
<path d="M1090.01 181.189H1067.9V203.957H1090.01V181.189Z" fill="#EBEBEB"/>
<path d="M1061.72 219.83H1039.61V242.598H1061.72V219.83Z" fill="#EBEBEB"/>
<path d="M1090.01 219.83H1067.9V242.598H1090.01V219.83Z" fill="#EBEBEB"/>
<path d="M1061.72 258.473H1039.61V281.241H1061.72V258.473Z" fill="#EBEBEB"/>
<path d="M1090.01 258.473H1067.9V281.241H1090.01V258.473Z" fill="#EBEBEB"/>
<path d="M1061.72 297.115H1039.61V319.883H1061.72V297.115Z" fill="#EBEBEB"/>
<path d="M1090.01 297.115H1067.9V319.883H1090.01V297.115Z" fill="#EBEBEB"/>
<path d="M1061.72 335.764H1039.61V358.531H1061.72V335.764Z" fill="#EBEBEB"/>
<path d="M1090.01 335.764H1067.9V358.531H1090.01V335.764Z" fill="#EBEBEB"/>
<path d="M1061.72 374.406H1039.61V397.174H1061.72V374.406Z" fill="#EBEBEB"/>
<path d="M1090.01 374.406H1067.9V397.174H1090.01V374.406Z" fill="#EBEBEB"/>
<path d="M1061.72 413.049H1039.61V435.817H1061.72V413.049Z" fill="#EBEBEB"/>
<path d="M1090.01 413.049H1067.9V435.817H1090.01V413.049Z" fill="#EBEBEB"/>
<path d="M1061.72 451.689H1039.61V474.457H1061.72V451.689Z" fill="#EBEBEB"/>
<path d="M1090.01 451.689H1067.9V474.457H1090.01V451.689Z" fill="#EBEBEB"/>
<path d="M1061.72 490.338H1039.61V513.106H1061.72V490.338Z" fill="#EBEBEB"/>
<path d="M1090.01 490.338H1067.9V513.106H1090.01V490.338Z" fill="#EBEBEB"/>
<path d="M1061.72 528.98H1039.61V551.748H1061.72V528.98Z" fill="#EBEBEB"/>
<path d="M1090.01 528.98H1067.9V551.748H1090.01V528.98Z" fill="#EBEBEB"/>
<path d="M1061.72 567.623H1039.61V590.391H1061.72V567.623Z" fill="#EBEBEB"/>
<path d="M1095.9 590.406H1118.02V567.638H1095.9V590.406Z" fill="#EBEBEB"/>
<path d="M1095.9 551.758H1118.02V528.99H1095.9V551.758Z" fill="#EBEBEB"/>
<path d="M1095.9 513.115H1118.02V490.347H1095.9V513.115Z" fill="#EBEBEB"/>
<path d="M1095.9 474.473H1118.02V451.705H1095.9V474.473Z" fill="#EBEBEB"/>
<path d="M1095.9 435.832H1118.02V413.064H1095.9V435.832Z" fill="#EBEBEB"/>
<path d="M1095.9 397.189H1118.02V374.422H1095.9V397.189Z" fill="#EBEBEB"/>
<path d="M1095.9 358.547H1118.02V335.779H1095.9V358.547Z" fill="#EBEBEB"/>
<path d="M1095.9 319.904H1118.02V297.136H1095.9V319.904Z" fill="#EBEBEB"/>
<path d="M1095.9 281.264H1118.02V258.496H1095.9V281.264Z" fill="#EBEBEB"/>
<path d="M1095.9 242.621H1118.02V219.853H1095.9V242.621Z" fill="#EBEBEB"/>
<path d="M1095.9 203.979H1118.02V181.211H1095.9V203.979Z" fill="#EBEBEB"/>
<path d="M1095.9 165.336H1118.02V142.568H1095.9V165.336Z" fill="#EBEBEB"/>
<path d="M1095.9 126.695H1118.02V103.927H1095.9V126.695Z" fill="#EBEBEB"/>
<path d="M1095.9 88.0527H1118.02V65.2848H1095.9V88.0527Z" fill="#EBEBEB"/>
<path d="M1090.01 567.623H1067.9V590.391H1090.01V567.623Z" fill="#EBEBEB"/>
<path d="M1225.35 45.9141H1135.69V642.028H1225.35V45.9141Z" fill="#A6A6A6"/>
<path d="M1197.85 590.406H1216.09V567.638H1197.85V590.406Z" fill="#C7C7C7"/>
<path d="M1174.5 590.406H1192.74V567.638H1174.5V590.406Z" fill="#C7C7C7"/>
<path d="M1197.85 551.758H1216.09V528.99H1197.85V551.758Z" fill="#C7C7C7"/>
<path d="M1174.5 551.758H1192.74V528.99H1174.5V551.758Z" fill="#C7C7C7"/>
<path d="M1197.85 513.115H1216.09V490.347H1197.85V513.115Z" fill="#C7C7C7"/>
<path d="M1174.5 513.115H1192.74V490.347H1174.5V513.115Z" fill="#C7C7C7"/>
<path d="M1197.85 474.473H1216.09V451.705H1197.85V474.473Z" fill="#C7C7C7"/>
<path d="M1174.5 474.473H1192.74V451.705H1174.5V474.473Z" fill="#C7C7C7"/>
<path d="M1197.85 435.832H1216.09V413.064H1197.85V435.832Z" fill="#C7C7C7"/>
<path d="M1174.5 435.832H1192.74V413.064H1174.5V435.832Z" fill="#C7C7C7"/>
<path d="M1197.85 397.189H1216.09V374.422H1197.85V397.189Z" fill="#C7C7C7"/>
<path d="M1174.5 397.189H1192.74V374.422H1174.5V397.189Z" fill="#C7C7C7"/>
<path d="M1197.85 358.547H1216.09V335.779H1197.85V358.547Z" fill="#C7C7C7"/>
<path d="M1174.5 358.547H1192.74V335.779H1174.5V358.547Z" fill="#C7C7C7"/>
<path d="M1197.85 319.904H1216.09V297.136H1197.85V319.904Z" fill="#C7C7C7"/>
<path d="M1174.5 319.904H1192.74V297.136H1174.5V319.904Z" fill="#C7C7C7"/>
<path d="M1197.85 281.264H1216.09V258.496H1197.85V281.264Z" fill="#C7C7C7"/>
<path d="M1174.5 281.264H1192.74V258.496H1174.5V281.264Z" fill="#C7C7C7"/>
<path d="M1197.85 242.621H1216.09V219.853H1197.85V242.621Z" fill="#C7C7C7"/>
<path d="M1174.5 242.621H1192.74V219.853H1174.5V242.621Z" fill="#C7C7C7"/>
<path d="M1197.85 203.979H1216.09V181.211H1197.85V203.979Z" fill="#C7C7C7"/>
<path d="M1174.5 203.979H1192.74V181.211H1174.5V203.979Z" fill="#C7C7C7"/>
<path d="M1197.85 165.336H1216.09V142.568H1197.85V165.336Z" fill="#C7C7C7"/>
<path d="M1174.5 165.336H1192.74V142.568H1174.5V165.336Z" fill="#C7C7C7"/>
<path d="M1197.85 126.695H1216.09V103.927H1197.85V126.695Z" fill="#C7C7C7"/>
<path d="M1174.5 126.695H1192.74V103.927H1174.5V126.695Z" fill="#C7C7C7"/>
<path d="M1197.85 88.0527H1216.09V65.2848H1197.85V88.0527Z" fill="#C7C7C7"/>
<path d="M1169.6 65.2559H1151.36V88.0238H1169.6V65.2559Z" fill="#C7C7C7"/>
<path d="M1169.6 103.898H1151.36V126.666H1169.6V103.898Z" fill="#C7C7C7"/>
<path d="M1169.6 142.539H1151.36V165.307H1169.6V142.539Z" fill="#C7C7C7"/>
<path d="M1169.6 181.189H1151.36V203.957H1169.6V181.189Z" fill="#C7C7C7"/>
<path d="M1169.6 219.83H1151.36V242.598H1169.6V219.83Z" fill="#C7C7C7"/>
<path d="M1169.6 258.473H1151.36V281.241H1169.6V258.473Z" fill="#C7C7C7"/>
<path d="M1169.6 297.115H1151.36V319.883H1169.6V297.115Z" fill="#C7C7C7"/>
<path d="M1169.6 335.764H1151.36V358.531H1169.6V335.764Z" fill="#C7C7C7"/>
<path d="M1169.6 374.406H1151.36V397.174H1169.6V374.406Z" fill="#C7C7C7"/>
<path d="M1169.6 413.049H1151.36V435.817H1169.6V413.049Z" fill="#C7C7C7"/>
<path d="M1169.6 451.689H1151.36V474.457H1169.6V451.689Z" fill="#C7C7C7"/>
<path d="M1169.6 490.338H1151.36V513.106H1169.6V490.338Z" fill="#C7C7C7"/>
<path d="M1169.6 528.98H1151.36V551.748H1169.6V528.98Z" fill="#C7C7C7"/>
<path d="M1169.6 567.623H1151.36V590.391H1169.6V567.623Z" fill="#C7C7C7"/>
<path d="M1174.5 88.0527H1192.74V65.2848H1174.5V88.0527Z" fill="#C7C7C7"/>
<path d="M328.283 13.75H193.767V641.993H328.283V13.75Z" fill="#EBEBEB"/>
<path d="M328.283 0H190.51V13.7499H328.283V0Z" fill="#C7C7C7"/>
<path d="M219.518 34.0469H205.906V642.025H219.518V34.0469Z" fill="white"/>
<path d="M243.692 34.0469H230.079V642.025H243.692V34.0469Z" fill="white"/>
<path d="M267.831 34.0469H254.219V642.025H267.831V34.0469Z" fill="white"/>
<path d="M292.005 34.0469H278.358V642.025H292.005V34.0469Z" fill="white"/>
<path d="M316.11 34.0469H302.498V642.025H316.11V34.0469Z" fill="white"/>
<path d="M219.518 51.4316H205.906V78.5886H219.518V51.4316Z" fill="#EBEBEB"/>
<path d="M243.692 51.4316H230.079V78.5886H243.692V51.4316Z" fill="#EBEBEB"/>
<path d="M267.831 51.4316H254.219V78.5886H267.831V51.4316Z" fill="#EBEBEB"/>
<path d="M292.005 51.4316H278.358V78.5886H292.005V51.4316Z" fill="#EBEBEB"/>
<path d="M316.11 51.4316H302.498V78.5886H316.11V51.4316Z" fill="#EBEBEB"/>
<path d="M219.518 95.5254H205.906V122.682H219.518V95.5254Z" fill="#EBEBEB"/>
<path d="M243.692 95.5254H230.079V122.682H243.692V95.5254Z" fill="#EBEBEB"/>
<path d="M267.831 95.5254H254.219V122.682H267.831V95.5254Z" fill="#EBEBEB"/>
<path d="M292.005 95.5254H278.358V122.682H292.005V95.5254Z" fill="#EBEBEB"/>
<path d="M316.11 95.5254H302.498V122.682H316.11V95.5254Z" fill="#EBEBEB"/>
<path d="M219.518 139.66H205.906V166.817H219.518V139.66Z" fill="#EBEBEB"/>
<path d="M243.692 139.66H230.079V166.817H243.692V139.66Z" fill="#EBEBEB"/>
<path d="M267.831 139.66H254.219V166.817H267.831V139.66Z" fill="#EBEBEB"/>
<path d="M292.005 139.66H278.358V166.817H292.005V139.66Z" fill="#EBEBEB"/>
<path d="M316.11 139.66H302.498V166.817H316.11V139.66Z" fill="#EBEBEB"/>
<path d="M219.518 183.787H205.906V210.944H219.518V183.787Z" fill="#EBEBEB"/>
<path d="M243.692 183.787H230.079V210.944H243.692V183.787Z" fill="#EBEBEB"/>
<path d="M267.831 183.787H254.219V210.944H267.831V183.787Z" fill="#EBEBEB"/>
<path d="M292.005 183.787H278.358V210.944H292.005V183.787Z" fill="#EBEBEB"/>
<path d="M316.11 183.787H302.498V210.944H316.11V183.787Z" fill="#EBEBEB"/>
<path d="M219.518 227.914H205.906V255.071H219.518V227.914Z" fill="#EBEBEB"/>
<path d="M243.692 227.914H230.079V255.071H243.692V227.914Z" fill="#EBEBEB"/>
<path d="M267.831 227.914H254.219V255.071H267.831V227.914Z" fill="#EBEBEB"/>
<path d="M292.005 227.914H278.358V255.071H292.005V227.914Z" fill="#EBEBEB"/>
<path d="M316.11 227.914H302.498V255.071H316.11V227.914Z" fill="#EBEBEB"/>
<path d="M219.518 272.047H205.906V299.204H219.518V272.047Z" fill="#EBEBEB"/>
<path d="M243.692 272.047H230.079V299.204H243.692V272.047Z" fill="#EBEBEB"/>
<path d="M267.831 272.047H254.219V299.204H267.831V272.047Z" fill="#EBEBEB"/>
<path d="M292.005 272.047H278.358V299.204H292.005V272.047Z" fill="#EBEBEB"/>
<path d="M316.11 272.047H302.498V299.204H316.11V272.047Z" fill="#EBEBEB"/>
<path d="M219.518 316.174H205.906V343.331H219.518V316.174Z" fill="#EBEBEB"/>
<path d="M243.692 316.174H230.079V343.331H243.692V316.174Z" fill="#EBEBEB"/>
<path d="M267.831 316.174H254.219V343.331H267.831V316.174Z" fill="#EBEBEB"/>
<path d="M292.005 316.174H278.358V343.331H292.005V316.174Z" fill="#EBEBEB"/>
<path d="M316.11 316.174H302.498V343.331H316.11V316.174Z" fill="#EBEBEB"/>
<path d="M219.518 360.309H205.906V387.465H219.518V360.309Z" fill="#EBEBEB"/>
<path d="M243.692 360.309H230.079V387.465H243.692V360.309Z" fill="#EBEBEB"/>
<path d="M267.831 360.309H254.219V387.465H267.831V360.309Z" fill="#EBEBEB"/>
<path d="M292.005 360.309H278.358V387.465H292.005V360.309Z" fill="#EBEBEB"/>
<path d="M316.11 360.309H302.498V387.465H316.11V360.309Z" fill="#EBEBEB"/>
<path d="M219.518 404.436H205.906V431.592H219.518V404.436Z" fill="#EBEBEB"/>
<path d="M243.692 404.436H230.079V431.592H243.692V404.436Z" fill="#EBEBEB"/>
<path d="M267.831 404.436H254.219V431.592H267.831V404.436Z" fill="#EBEBEB"/>
<path d="M292.005 404.436H278.358V431.592H292.005V404.436Z" fill="#EBEBEB"/>
<path d="M316.11 404.436H302.498V431.592H316.11V404.436Z" fill="#EBEBEB"/>
<path d="M219.518 448.568H205.906V475.725H219.518V448.568Z" fill="#EBEBEB"/>
<path d="M243.692 448.568H230.079V475.725H243.692V448.568Z" fill="#EBEBEB"/>
<path d="M267.831 448.568H254.219V475.725H267.831V448.568Z" fill="#EBEBEB"/>
<path d="M292.005 448.568H278.358V475.725H292.005V448.568Z" fill="#EBEBEB"/>
<path d="M316.11 448.568H302.498V475.725H316.11V448.568Z" fill="#EBEBEB"/>
<path d="M219.518 492.695H205.906V519.852H219.518V492.695Z" fill="#EBEBEB"/>
<path d="M243.692 492.695H230.079V519.852H243.692V492.695Z" fill="#EBEBEB"/>
<path d="M267.831 492.695H254.219V519.852H267.831V492.695Z" fill="#EBEBEB"/>
<path d="M292.005 492.695H278.358V519.852H292.005V492.695Z" fill="#EBEBEB"/>
<path d="M316.11 492.695H302.498V519.852H316.11V492.695Z" fill="#EBEBEB"/>
<path d="M219.518 536.828H205.906V563.985H219.518V536.828Z" fill="#EBEBEB"/>
<path d="M243.692 536.828H230.079V563.985H243.692V536.828Z" fill="#EBEBEB"/>
<path d="M267.831 536.828H254.219V563.985H267.831V536.828Z" fill="#EBEBEB"/>
<path d="M292.005 536.828H278.358V563.985H292.005V536.828Z" fill="#EBEBEB"/>
<path d="M316.11 536.828H302.498V563.985H316.11V536.828Z" fill="#EBEBEB"/>
<path d="M219.518 580.957H205.906V608.114H219.518V580.957Z" fill="#EBEBEB"/>
<path d="M243.692 580.957H230.079V608.114H243.692V580.957Z" fill="#EBEBEB"/>
<path d="M267.831 580.957H254.219V608.114H267.831V580.957Z" fill="#EBEBEB"/>
<path d="M292.005 580.957H278.358V608.114H292.005V580.957Z" fill="#EBEBEB"/>
<path d="M316.11 580.957H302.498V608.114H316.11V580.957Z" fill="#EBEBEB"/>
<path d="M219.518 625.082H205.906V642.021H219.518V625.082Z" fill="#EBEBEB"/>
<path d="M243.692 625.082H230.079V642.021H243.692V625.082Z" fill="#EBEBEB"/>
<path d="M267.831 625.082H254.219V642.021H267.831V625.082Z" fill="#EBEBEB"/>
<path d="M292.005 625.082H278.358V642.021H292.005V625.082Z" fill="#EBEBEB"/>
<path d="M316.11 625.082H302.498V642.021H316.11V625.082Z" fill="#EBEBEB"/>
<path d="M414.657 13.75H328.283V641.993H414.657V13.75Z" fill="#DBDBDB"/>
<path d="M418.394 0H328.283V13.7499H418.394V0Z" fill="#C7C7C7"/>
<path d="M354.102 34.0469H340.455V642.025H354.102V34.0469Z" fill="#C7C7C7"/>
<path d="M378.208 34.0469H364.595V642.025H378.208V34.0469Z" fill="#C7C7C7"/>
<path d="M402.347 34.0469H388.734V642.025H402.347V34.0469Z" fill="#C7C7C7"/>
<path d="M354.102 51.4316H340.455V78.5886H354.102V51.4316Z" fill="#DBDBDB"/>
<path d="M378.208 51.4316H364.595V78.5886H378.208V51.4316Z" fill="#DBDBDB"/>
<path d="M402.347 51.4316H388.734V78.5886H402.347V51.4316Z" fill="#DBDBDB"/>
<path d="M354.102 95.5254H340.455V122.682H354.102V95.5254Z" fill="#DBDBDB"/>
<path d="M378.208 95.5254H364.595V122.682H378.208V95.5254Z" fill="#DBDBDB"/>
<path d="M402.347 95.5254H388.734V122.682H402.347V95.5254Z" fill="#DBDBDB"/>
<path d="M354.102 139.66H340.455V166.817H354.102V139.66Z" fill="#DBDBDB"/>
<path d="M378.208 139.66H364.595V166.817H378.208V139.66Z" fill="#DBDBDB"/>
<path d="M402.347 139.66H388.734V166.817H402.347V139.66Z" fill="#DBDBDB"/>
<path d="M354.102 183.787H340.455V210.944H354.102V183.787Z" fill="#DBDBDB"/>
<path d="M378.208 183.787H364.595V210.944H378.208V183.787Z" fill="#DBDBDB"/>
<path d="M402.347 183.787H388.734V210.944H402.347V183.787Z" fill="#DBDBDB"/>
<path d="M354.102 227.914H340.455V255.071H354.102V227.914Z" fill="#DBDBDB"/>
<path d="M378.208 227.914H364.595V255.071H378.208V227.914Z" fill="#DBDBDB"/>
<path d="M402.347 227.914H388.734V255.071H402.347V227.914Z" fill="#DBDBDB"/>
<path d="M354.102 272.047H340.455V299.204H354.102V272.047Z" fill="#DBDBDB"/>
<path d="M378.208 272.047H364.595V299.204H378.208V272.047Z" fill="#DBDBDB"/>
<path d="M402.347 272.047H388.734V299.204H402.347V272.047Z" fill="#DBDBDB"/>
<path d="M354.102 316.174H340.455V343.331H354.102V316.174Z" fill="#DBDBDB"/>
<path d="M378.208 316.174H364.595V343.331H378.208V316.174Z" fill="#DBDBDB"/>
<path d="M402.347 316.174H388.734V343.331H402.347V316.174Z" fill="#DBDBDB"/>
<path d="M354.102 360.309H340.455V387.465H354.102V360.309Z" fill="#DBDBDB"/>
<path d="M378.208 360.309H364.595V387.465H378.208V360.309Z" fill="#DBDBDB"/>
<path d="M402.347 360.309H388.734V387.465H402.347V360.309Z" fill="#DBDBDB"/>
<path d="M354.102 404.436H340.455V431.592H354.102V404.436Z" fill="#DBDBDB"/>
<path d="M378.208 404.436H364.595V431.592H378.208V404.436Z" fill="#DBDBDB"/>
<path d="M402.347 404.436H388.734V431.592H402.347V404.436Z" fill="#DBDBDB"/>
<path d="M354.102 448.568H340.455V475.725H354.102V448.568Z" fill="#DBDBDB"/>
<path d="M378.208 448.568H364.595V475.725H378.208V448.568Z" fill="#DBDBDB"/>
<path d="M402.347 448.568H388.734V475.725H402.347V448.568Z" fill="#DBDBDB"/>
<path d="M354.102 492.695H340.455V519.852H354.102V492.695Z" fill="#DBDBDB"/>
<path d="M378.208 492.695H364.595V519.852H378.208V492.695Z" fill="#DBDBDB"/>
<path d="M402.347 492.695H388.734V519.852H402.347V492.695Z" fill="#DBDBDB"/>
<path d="M354.102 536.828H340.455V563.985H354.102V536.828Z" fill="#DBDBDB"/>
<path d="M378.208 536.828H364.595V563.985H378.208V536.828Z" fill="#DBDBDB"/>
<path d="M402.347 536.828H388.734V563.985H402.347V536.828Z" fill="#DBDBDB"/>
<path d="M354.102 580.957H340.455V608.114H354.102V580.957Z" fill="#DBDBDB"/>
<path d="M378.208 580.957H364.595V608.114H378.208V580.957Z" fill="#DBDBDB"/>
<path d="M402.347 580.957H388.734V608.114H402.347V580.957Z" fill="#DBDBDB"/>
<path d="M354.102 625.082H340.455V642.021H354.102V625.082Z" fill="#DBDBDB"/>
<path d="M378.208 625.082H364.595V642.021H378.208V625.082Z" fill="#DBDBDB"/>
<path d="M402.347 625.082H388.734V642.021H402.347V625.082Z" fill="#DBDBDB"/>
<path d="M158.827 244.652H24.8595V642.027H158.827V244.652Z" fill="#EBEBEB"/>
<path d="M158.827 210.945H43.9243V244.651H158.827V210.945Z" fill="#C7C7C7"/>
<path d="M144.151 262.244H39.5696V642.029H144.151V262.244Z" fill="#DBDBDB"/>
<path d="M144.151 298.488H39.5696V307.472H144.151V298.488Z" fill="white"/>
<path d="M144.151 335.656H39.5696V344.64H144.151V335.656Z" fill="white"/>
<path d="M144.151 372.826H39.5696V381.81H144.151V372.826Z" fill="white"/>
<path d="M144.151 409.994H39.5696V418.978H144.151V409.994Z" fill="white"/>
<path d="M144.151 447.164H39.5696V456.148H144.151V447.164Z" fill="white"/>
<path d="M144.151 484.332H39.5696V493.316H144.151V484.332Z" fill="white"/>
<path d="M144.151 521.5H39.5696V530.484H144.151V521.5Z" fill="white"/>
<path d="M144.151 558.676H39.5696V567.659H144.151V558.676Z" fill="white"/>
<path d="M144.151 595.879H39.5696V604.863H144.151V595.879Z" fill="white"/>
<path d="M144.151 633.047H39.5696V642.031H144.151V633.047Z" fill="white"/>
<path d="M242.731 244.652H158.826V642.027H242.731V244.652Z" fill="#DBDBDB"/>
<path d="M230.147 210.945H158.826V244.651H230.147V210.945Z" fill="#A6A6A6"/>
<path d="M234.879 262.244H170.382V642.029H234.879V262.244Z" fill="#C7C7C7"/>
<path d="M234.879 298.488H170.382V307.472H234.879V298.488Z" fill="white"/>
<path d="M234.879 335.656H170.382V344.64H234.879V335.656Z" fill="white"/>
<path d="M234.879 372.826H170.382V381.81H234.879V372.826Z" fill="white"/>
<path d="M234.879 409.994H170.382V418.978H234.879V409.994Z" fill="white"/>
<path d="M234.879 447.164H170.382V456.148H234.879V447.164Z" fill="white"/>
<path d="M234.879 484.332H170.382V493.316H234.879V484.332Z" fill="white"/>
<path d="M234.879 521.5H170.382V530.484H234.879V521.5Z" fill="white"/>
<path d="M234.879 558.676H170.382V567.659H234.879V558.676Z" fill="white"/>
<path d="M234.879 595.879H170.382V604.863H234.879V595.879Z" fill="white"/>
<path d="M234.879 633.047H170.382V642.031H234.879V633.047Z" fill="white"/>
<path d="M534.256 409.377H430.704V641.993H534.256V409.377Z" fill="#DBDBDB"/>
<path d="M465.301 429.5H446.991V443.764H465.301V429.5Z" fill="#C7C7C7"/>
<path d="M465.301 459.951H446.991V474.215H465.301V459.951Z" fill="#C7C7C7"/>
<path d="M465.301 490.396H446.991V504.661H465.301V490.396Z" fill="#C7C7C7"/>
<path d="M465.301 520.848H446.991V535.112H465.301V520.848Z" fill="#C7C7C7"/>
<path d="M465.301 551.293H446.991V565.557H465.301V551.293Z" fill="#C7C7C7"/>
<path d="M465.301 581.711H446.991V595.975H465.301V581.711Z" fill="#C7C7C7"/>
<path d="M465.301 612.156H446.991V626.42H465.301V612.156Z" fill="#C7C7C7"/>
<path d="M491.67 429.5H473.359V443.764H491.67V429.5Z" fill="#C7C7C7"/>
<path d="M491.67 459.951H473.359V474.215H491.67V459.951Z" fill="#C7C7C7"/>
<path d="M491.67 490.396H473.359V504.661H491.67V490.396Z" fill="#C7C7C7"/>
<path d="M491.67 520.848H473.359V535.112H491.67V520.848Z" fill="#C7C7C7"/>
<path d="M491.67 551.293H473.359V565.557H491.67V551.293Z" fill="#C7C7C7"/>
<path d="M491.67 581.711H473.359V595.975H491.67V581.711Z" fill="#C7C7C7"/>
<path d="M491.67 612.156H473.359V626.42H491.67V612.156Z" fill="#C7C7C7"/>
<path d="M517.969 429.5H499.659V443.764H517.969V429.5Z" fill="#C7C7C7"/>
<path d="M517.969 459.951H499.659V474.215H517.969V459.951Z" fill="#C7C7C7"/>
<path d="M517.969 490.396H499.659V504.661H517.969V490.396Z" fill="#C7C7C7"/>
<path d="M517.969 520.848H499.659V535.112H517.969V520.848Z" fill="#C7C7C7"/>
<path d="M517.969 551.293H499.659V565.557H517.969V551.293Z" fill="#C7C7C7"/>
<path d="M517.969 581.711H499.659V595.975H517.969V581.711Z" fill="#C7C7C7"/>
<path d="M517.969 612.156H499.659V626.42H517.969V612.156Z" fill="#C7C7C7"/>
<path d="M606.915 409.377H534.256V641.993H606.915V409.377Z" fill="#A6A6A6"/>
<path d="M584.558 624.139H599.474V609.874H584.558V624.139Z" fill="#C7C7C7"/>
<path d="M584.558 593.707H599.474V579.443H584.558V593.707Z" fill="#C7C7C7"/>
<path d="M584.558 563.27H599.474V549.005H584.558V563.27Z" fill="#C7C7C7"/>
<path d="M584.558 532.838H599.474V518.574H584.558V532.838Z" fill="#C7C7C7"/>
<path d="M584.558 502.373H599.474V488.109H584.558V502.373Z" fill="#C7C7C7"/>
<path d="M584.558 471.934H599.474V457.669H584.558V471.934Z" fill="#C7C7C7"/>
<path d="M584.558 441.502H599.474V427.238H584.558V441.502Z" fill="#C7C7C7"/>
<path d="M563.106 624.139H578.022V609.874H563.106V624.139Z" fill="#C7C7C7"/>
<path d="M563.106 593.707H578.022V579.443H563.106V593.707Z" fill="#C7C7C7"/>
<path d="M563.106 563.27H578.022V549.005H563.106V563.27Z" fill="#C7C7C7"/>
<path d="M563.106 532.838H578.022V518.574H563.106V532.838Z" fill="#C7C7C7"/>
<path d="M563.106 502.373H578.022V488.109H563.106V502.373Z" fill="#C7C7C7"/>
<path d="M563.106 471.934H578.022V457.669H563.106V471.934Z" fill="#C7C7C7"/>
<path d="M563.106 441.502H578.022V427.238H563.106V441.502Z" fill="#C7C7C7"/>
<path d="M541.693 624.139H556.609V609.874H541.693V624.139Z" fill="#C7C7C7"/>
<path d="M541.693 593.707H556.609V579.443H541.693V593.707Z" fill="#C7C7C7"/>
<path d="M541.693 563.27H556.609V549.005H541.693V563.27Z" fill="#C7C7C7"/>
<path d="M541.693 532.838H556.609V518.574H541.693V532.838Z" fill="#C7C7C7"/>
<path d="M541.693 502.373H556.609V488.109H541.693V502.373Z" fill="#C7C7C7"/>
<path d="M541.693 471.934H556.609V457.669H541.693V471.934Z" fill="#C7C7C7"/>
<path d="M541.693 441.502H556.609V427.238H541.693V441.502Z" fill="#C7C7C7"/>
<path d="M1304.66 142.539H1233.13V227.061H1304.66V142.539Z" fill="#DBDBDB"/>
<path d="M1350.06 142.539H1304.7V230.147H1350.06V142.539Z" fill="#C7C7C7"/>
<path d="M1353.08 179.883H1308.06V230.185H1353.08V179.883Z" fill="#DBDBDB"/>
<path d="M1381.16 179.883H1353.08V230.185H1381.16V179.883Z" fill="#C7C7C7"/>
<path d="M1321.39 221.576H1205.7V641.993H1321.39V221.576Z" fill="#EBEBEB"/>
<path d="M1255.32 239.645H1218.94V254.492H1255.32V239.645Z" fill="white"/>
<path d="M1301.85 239.645H1265.47V254.492H1301.85V239.645Z" fill="white"/>
<path d="M1255.32 264.879H1218.94V279.726H1255.32V264.879Z" fill="white"/>
<path d="M1301.85 264.879H1265.47V279.726H1301.85V264.879Z" fill="white"/>
<path d="M1255.32 290.121H1218.94V304.968H1255.32V290.121Z" fill="white"/>
<path d="M1301.85 290.121H1265.47V304.968H1301.85V290.121Z" fill="white"/>
<path d="M1255.32 315.355H1218.94V330.203H1255.32V315.355Z" fill="white"/>
<path d="M1301.85 315.355H1265.47V330.203H1301.85V315.355Z" fill="white"/>
<path d="M1255.32 340.59H1218.94V355.437H1255.32V340.59Z" fill="white"/>
<path d="M1301.85 340.59H1265.47V355.437H1301.85V340.59Z" fill="white"/>
<path d="M1255.32 365.83H1218.94V380.677H1255.32V365.83Z" fill="white"/>
<path d="M1301.85 365.83H1265.47V380.677H1301.85V365.83Z" fill="white"/>
<path d="M1255.32 391.064H1218.94V405.912H1255.32V391.064Z" fill="white"/>
<path d="M1301.85 391.064H1265.47V405.912H1301.85V391.064Z" fill="white"/>
<path d="M1255.32 416.299H1218.94V431.146H1255.32V416.299Z" fill="white"/>
<path d="M1301.85 416.299H1265.47V431.146H1301.85V416.299Z" fill="white"/>
<path d="M1255.32 441.541H1218.94V456.388H1255.32V441.541Z" fill="white"/>
<path d="M1301.85 441.541H1265.47V456.388H1301.85V441.541Z" fill="white"/>
<path d="M1255.32 466.775H1218.94V481.623H1255.32V466.775Z" fill="white"/>
<path d="M1301.85 466.775H1265.47V481.623H1301.85V466.775Z" fill="white"/>
<path d="M1255.32 492.01H1218.94V506.891H1255.32V492.01Z" fill="white"/>
<path d="M1301.85 492.01H1265.47V506.891H1301.85V492.01Z" fill="white"/>
<path d="M1255.32 517.252H1218.94V532.133H1255.32V517.252Z" fill="white"/>
<path d="M1301.85 517.252H1265.47V532.133H1301.85V517.252Z" fill="white"/>
<path d="M1255.32 542.486H1218.94V557.333H1255.32V542.486Z" fill="white"/>
<path d="M1301.85 542.486H1265.47V557.333H1301.85V542.486Z" fill="white"/>
<path d="M1255.32 567.721H1218.94V582.568H1255.32V567.721Z" fill="white"/>
<path d="M1301.85 567.721H1265.47V582.568H1301.85V567.721Z" fill="white"/>
<path d="M1415.14 221.576H1321.39V641.993H1415.14V221.576Z" fill="#C7C7C7"/>
<path d="M1375.87 582.562H1405.74V567.715H1375.87V582.562Z" fill="#EBEBEB"/>
<path d="M1337.65 582.562H1367.52V567.715H1337.65V582.562Z" fill="#EBEBEB"/>
<path d="M1375.87 557.328H1405.74V542.481H1375.87V557.328Z" fill="#EBEBEB"/>
<path d="M1337.65 557.328H1367.52V542.481H1337.65V557.328Z" fill="#EBEBEB"/>
<path d="M1375.87 532.094H1405.74V517.212H1375.87V532.094Z" fill="#EBEBEB"/>
<path d="M1337.65 532.094H1367.52V517.212H1337.65V532.094Z" fill="#EBEBEB"/>
<path d="M1375.87 506.859H1405.74V491.978H1375.87V506.859Z" fill="#EBEBEB"/>
<path d="M1337.65 506.859H1367.52V491.978H1337.65V506.859Z" fill="#EBEBEB"/>
<path d="M1375.87 481.623H1405.74V466.776H1375.87V481.623Z" fill="#EBEBEB"/>
<path d="M1337.65 481.623H1367.52V466.776H1337.65V481.623Z" fill="#EBEBEB"/>
<path d="M1375.87 456.389H1405.74V441.542H1375.87V456.389Z" fill="#EBEBEB"/>
<path d="M1337.65 456.389H1367.52V441.542H1337.65V456.389Z" fill="#EBEBEB"/>
<path d="M1375.87 431.154H1405.74V416.307H1375.87V431.154Z" fill="#EBEBEB"/>
<path d="M1337.65 431.154H1367.52V416.307H1337.65V431.154Z" fill="#EBEBEB"/>
<path d="M1375.87 405.92H1405.74V391.073H1375.87V405.92Z" fill="#EBEBEB"/>
<path d="M1337.65 405.92H1367.52V391.073H1337.65V405.92Z" fill="#EBEBEB"/>
<path d="M1375.87 380.686H1405.74V365.838H1375.87V380.686Z" fill="#EBEBEB"/>
<path d="M1337.65 380.686H1367.52V365.838H1337.65V380.686Z" fill="#EBEBEB"/>
<path d="M1375.87 355.451H1405.74V340.604H1375.87V355.451Z" fill="#EBEBEB"/>
<path d="M1337.65 355.451H1367.52V340.604H1337.65V355.451Z" fill="#EBEBEB"/>
<path d="M1375.87 330.217H1405.74V315.37H1375.87V330.217Z" fill="#EBEBEB"/>
<path d="M1337.65 330.217H1367.52V315.37H1337.65V330.217Z" fill="#EBEBEB"/>
<path d="M1375.87 304.982H1405.74V290.135H1375.87V304.982Z" fill="#EBEBEB"/>
<path d="M1337.65 304.982H1367.52V290.135H1337.65V304.982Z" fill="#EBEBEB"/>
<path d="M1375.87 279.748H1405.74V264.901H1375.87V279.748Z" fill="#EBEBEB"/>
<path d="M1337.65 279.748H1367.52V264.901H1337.65V279.748Z" fill="#EBEBEB"/>
<path d="M1375.87 254.514H1405.74V239.667H1375.87V254.514Z" fill="#EBEBEB"/>
<path d="M1337.65 254.514H1367.52V239.667H1337.65V254.514Z" fill="#EBEBEB"/>
<path d="M831.919 368.057H695.483V642.026H831.919V368.057Z" fill="#C7C7C7"/>
<path d="M741.088 391.75H716.948V408.517H741.088V391.75Z" fill="#DBDBDB"/>
<path d="M741.088 427.619H716.948V444.421H741.088V427.619Z" fill="#DBDBDB"/>
<path d="M741.088 463.449H716.948V480.251H741.088V463.449Z" fill="#DBDBDB"/>
<path d="M741.088 499.312H716.948V516.114H741.088V499.312Z" fill="#DBDBDB"/>
<path d="M741.088 535.148H716.948V551.95H741.088V535.148Z" fill="#DBDBDB"/>
<path d="M741.088 571.01H716.948V587.811H741.088V571.01Z" fill="#DBDBDB"/>
<path d="M741.088 606.846H716.948V623.647H741.088V606.846Z" fill="#DBDBDB"/>
<path d="M775.823 391.75H751.683V408.517H775.823V391.75Z" fill="#DBDBDB"/>
<path d="M775.823 427.619H751.683V444.421H775.823V427.619Z" fill="#DBDBDB"/>
<path d="M775.823 463.449H751.683V480.251H775.823V463.449Z" fill="#DBDBDB"/>
<path d="M775.823 499.312H751.683V516.114H775.823V499.312Z" fill="#DBDBDB"/>
<path d="M775.823 535.148H751.683V551.95H775.823V535.148Z" fill="#DBDBDB"/>
<path d="M775.823 571.01H751.683V587.811H775.823V571.01Z" fill="#DBDBDB"/>
<path d="M775.823 606.846H751.683V623.647H775.823V606.846Z" fill="#DBDBDB"/>
<path d="M810.454 391.75H786.315V408.517H810.454V391.75Z" fill="#DBDBDB"/>
<path d="M810.454 427.619H786.315V444.421H810.454V427.619Z" fill="#DBDBDB"/>
<path d="M810.454 463.449H786.315V480.251H810.454V463.449Z" fill="#DBDBDB"/>
<path d="M810.454 499.312H786.315V516.114H810.454V499.312Z" fill="#DBDBDB"/>
<path d="M810.454 535.148H786.315V551.95H810.454V535.148Z" fill="#DBDBDB"/>
<path d="M810.454 571.01H786.315V587.811H810.454V571.01Z" fill="#DBDBDB"/>
<path d="M810.454 606.846H786.315V623.647H810.454V606.846Z" fill="#DBDBDB"/>
<path d="M831.919 339.494H741.088V368.023H831.919V339.494Z" fill="#DBDBDB"/>
<path d="M831.953 321.834H774.348V339.493H831.953V321.834Z" fill="#EBEBEB"/>
<path d="M927.654 368.057H831.919V642.026H927.654V368.057Z" fill="#A6A6A6"/>
<path d="M898.232 620.986H917.879V604.185H898.232V620.986Z" fill="#C7C7C7"/>
<path d="M898.232 585.117H917.879V568.316H898.232V585.117Z" fill="#C7C7C7"/>
<path d="M898.232 549.281H917.879V532.48H898.232V549.281Z" fill="#C7C7C7"/>
<path d="M898.232 513.412H917.879V496.61H898.232V513.412Z" fill="#C7C7C7"/>
<path d="M898.232 477.576H917.879V460.775H898.232V477.576Z" fill="#C7C7C7"/>
<path d="M898.232 441.705H917.879V424.903H898.232V441.705Z" fill="#C7C7C7"/>
<path d="M898.232 405.877H917.879V389.11H898.232V405.877Z" fill="#C7C7C7"/>
<path d="M869.935 620.986H889.583V604.185H869.935V620.986Z" fill="#C7C7C7"/>
<path d="M869.935 585.117H889.583V568.316H869.935V585.117Z" fill="#C7C7C7"/>
<path d="M869.935 549.281H889.583V532.48H869.935V549.281Z" fill="#C7C7C7"/>
<path d="M869.935 513.412H889.583V496.61H869.935V513.412Z" fill="#C7C7C7"/>
<path d="M869.935 477.576H889.583V460.775H869.935V477.576Z" fill="#C7C7C7"/>
<path d="M869.935 441.705H889.583V424.903H869.935V441.705Z" fill="#C7C7C7"/>
<path d="M869.935 405.877H889.583V389.11H869.935V405.877Z" fill="#C7C7C7"/>
<path d="M841.745 620.986H861.392V604.185H841.745V620.986Z" fill="#C7C7C7"/>
<path d="M841.745 585.117H861.392V568.316H841.745V585.117Z" fill="#C7C7C7"/>
<path d="M841.745 549.281H861.392V532.48H841.745V549.281Z" fill="#C7C7C7"/>
<path d="M841.745 513.412H861.392V496.61H841.745V513.412Z" fill="#C7C7C7"/>
<path d="M841.745 477.576H861.392V460.775H841.745V477.576Z" fill="#C7C7C7"/>
<path d="M841.745 441.705H861.392V424.903H841.745V441.705Z" fill="#C7C7C7"/>
<path d="M841.745 405.877H861.392V389.11H841.745V405.877Z" fill="#C7C7C7"/>
<path d="M913.15 339.494H831.919V368.023H913.15V339.494Z" fill="#C7C7C7"/>
<path d="M875.946 321.834H831.919V339.493H875.946V321.834Z" fill="#DBDBDB"/>
</g>
<g opacity="0.25">
<path d="M1440 663.771L1259.98 664.594L1080 664.903L720 665.486L360 664.903L179.983 664.594L0 663.771L179.983 662.914L360 662.639L720 662.057L1080 662.639L1259.98 662.948L1440 663.771Z" fill="#263238"/>
<path d="M1440 642H0V662.882H1440V642Z" fill="#C7C7C7"/>
<path d="M100.947 642C102.284 645.463 102.592 648.961 102.661 652.458C102.627 655.921 102.318 659.419 100.947 662.916C99.5749 659.419 99.3006 655.956 99.2321 652.458C99.3006 648.961 99.6092 645.497 100.947 642Z" fill="#263238"/>
<path d="M213.517 642C214.854 645.463 215.163 648.961 215.232 652.458C215.197 655.921 214.889 659.419 213.517 662.916C212.146 659.419 211.871 655.956 211.803 652.458C211.871 648.961 212.146 645.497 213.517 642Z" fill="#263238"/>
<path d="M326.054 642C327.391 645.463 327.7 648.961 327.768 652.458C327.734 655.921 327.425 659.419 326.054 662.916C324.682 659.419 324.408 655.956 324.339 652.458C324.408 648.961 324.716 645.497 326.054 642Z" fill="#263238"/>
<path d="M438.624 642C439.962 645.463 440.27 648.961 440.339 652.458C440.304 655.921 439.996 659.419 438.624 662.916C437.253 659.419 436.978 655.956 436.91 652.458C436.978 648.961 437.253 645.497 438.624 642Z" fill="#263238"/>
<path d="M551.161 642C552.498 645.463 552.807 648.961 552.875 652.458C552.841 655.921 552.533 659.419 551.161 662.916C549.789 659.419 549.515 655.956 549.447 652.458C549.515 648.961 549.824 645.497 551.161 642Z" fill="#263238"/>
<path d="M663.732 642C665.069 645.463 665.377 648.961 665.446 652.458C665.412 655.921 665.103 659.419 663.732 662.916C662.36 659.419 662.086 655.956 662.017 652.458C662.086 648.961 662.36 645.497 663.732 642Z" fill="#263238"/>
<path d="M776.268 642C777.605 645.463 777.914 648.961 777.982 652.458C777.948 655.921 777.64 659.419 776.268 662.916C774.896 659.419 774.622 655.956 774.554 652.458C774.622 648.961 774.931 645.497 776.268 642Z" fill="#263238"/>
<path d="M888.839 642C890.176 645.463 890.485 648.961 890.553 652.458C890.519 655.921 890.21 659.419 888.839 662.916C887.467 659.419 887.193 655.956 887.124 652.458C887.193 648.961 887.467 645.497 888.839 642Z" fill="#263238"/>
<path d="M1001.38 642C1002.71 645.463 1003.02 648.961 1003.09 652.458C1003.06 655.921 1002.75 659.419 1001.38 662.916C1000 659.419 999.729 655.956 999.661 652.458C999.729 648.961 1000.04 645.497 1001.38 642Z" fill="#263238"/>
<path d="M1113.95 642C1115.28 645.463 1115.59 648.961 1115.66 652.458C1115.63 655.921 1115.32 659.419 1113.95 662.916C1112.57 659.419 1112.3 655.956 1112.23 652.458C1112.3 648.961 1112.57 645.497 1113.95 642Z" fill="#263238"/>
<path d="M1226.48 642C1227.82 645.463 1228.13 648.961 1228.2 652.458C1228.16 655.921 1227.85 659.419 1226.48 662.916C1225.11 659.419 1224.84 655.956 1224.77 652.458C1224.84 648.961 1225.15 645.497 1226.48 642Z" fill="#263238"/>
<path d="M1339.05 642C1340.39 645.463 1340.7 648.961 1340.77 652.458C1340.73 655.921 1340.42 659.419 1339.05 662.916C1337.68 659.419 1337.41 655.956 1337.34 652.458C1337.41 648.961 1337.68 645.497 1339.05 642Z" fill="#263238"/>
</g>
<path d="M491.012 80.5352C489.654 80.9594 488.297 81.3837 486.981 81.8504" stroke="#263238" stroke-width="0.75" stroke-miterlimit="10"/>
<path d="M476.947 85.668C386.469 124.108 376.519 238.495 280.525 254.299" stroke="#263238" stroke-width="0.75" stroke-miterlimit="10" stroke-dasharray="4.05 4.05"/>
<path d="M275.222 255.062C273.821 255.232 272.421 255.381 271 255.508" stroke="#263238" stroke-width="0.75" stroke-miterlimit="10"/>
<path d="M507.262 53.6342L491.012 80.5338L516.554 67.5931L607.245 53.5918L507.262 53.6342Z" fill="#FFC727"/>
<path opacity="0.1" d="M507.262 53.6342L491.012 80.5338L516.554 67.5931L607.245 53.5918L507.262 53.6342Z" fill="black"/>
<path d="M518.06 74.9166L491.012 80.5383L516.554 67.5977L518.06 74.9166Z" fill="#263238"/>
<path d="M516.554 67.5931L607.244 53.5918L524.467 107.645L516.554 67.5931Z" fill="#FFD04B"/>
<path d="M507.262 53.6362L476.565 24L607.244 53.5938L507.262 53.6362Z" fill="#FFC727"/>
<path d="M120.413 335.404H106.77V641.985H120.413V335.404Z" fill="#37474F"/>
<path d="M120.421 641.975H127.819L127.819 335.394H120.421L120.421 641.975Z" fill="#455A64"/>
<path d="M120.413 331.541H105.51V335.394H120.413V331.541Z" fill="#263238"/>
<path d="M120.415 335.404H129.105V331.552H120.415V335.404Z" fill="#37474F"/>
<path d="M120.413 328.131H108.516V331.55H120.413V328.131Z" fill="#37474F"/>
<path d="M126.362 328.131H120.413V331.55H126.362V328.131Z" fill="#455A64"/>
<path d="M125.187 320.437C125.187 324.692 121.737 328.132 117.492 328.132C113.237 328.132 109.797 324.682 109.797 320.437C109.797 316.182 113.248 312.742 117.492 312.742C121.747 312.732 125.187 316.182 125.187 320.437Z" fill="#37474F"/>
<path d="M61.754 361.908V394.751H26.3911V362.215C26.3911 352.614 34.1707 344.824 43.7815 344.824H44.6812C54.1014 344.824 61.754 352.477 61.754 361.908Z" fill="#FFC727"/>
<path d="M117.492 359.241V394.752H61.754V361.909C61.754 352.478 54.112 344.836 44.6812 344.836H103.086C111.035 344.825 117.492 351.282 117.492 359.241Z" fill="#FFC727"/>
<path opacity="0.1" d="M71.4282 361.274V394.752H69.1525V361.909C69.1525 352.478 61.5105 344.836 52.0797 344.836H54.9905C64.0614 344.825 71.4282 352.192 71.4282 361.274Z" fill="#020100"/>
<path opacity="0.1" d="M112.316 361.274V394.752H110.04V361.909C110.04 352.478 102.398 344.836 92.9677 344.836H95.8784C104.949 344.825 112.316 352.192 112.316 361.274Z" fill="#020100"/>
<path opacity="0.3" d="M59.944 362.712V392.2H28.1904V362.987C28.1904 354.361 35.1762 347.375 43.8026 347.375H44.607C53.0746 347.375 59.944 354.244 59.944 362.712Z" fill="#020100"/>
<path d="M22.4643 398.034L26.3805 394.742H61.7434L58.1976 397.716C46.7557 407.317 31.1012 415.107 21.5011 415.107H19.1937C9.76285 415.117 8.39745 408.894 22.4643 398.034Z" fill="#37474F"/>
<path d="M61.7434 394.752L58.1976 397.737C46.7558 407.337 31.1013 415.117 21.5011 415.117H18.9926C9.74173 415.032 8.49276 408.829 22.4643 398.044L26.3806 394.752H61.7434Z" fill="#37474F"/>
<path d="M59.1291 394.752L55.5832 397.737C44.1837 407.305 28.6033 415.064 18.9926 415.117C9.74173 415.032 8.49276 408.829 22.4643 398.044L26.3806 394.752H59.1291Z" fill="#455A64"/>
<path d="M112.02 409.316V418.345L93.2535 394.752H100.44L112.02 409.316Z" fill="#455A64"/>
<path d="M112.02 418.345H109.374L90.6074 394.752H93.2535L112.02 418.345Z" fill="#37474F"/>
<path d="M82.9759 329.551V337.913H75.3233V369.317C75.3233 370.777 74.1378 371.963 72.6771 371.963C71.2165 371.963 70.031 370.777 70.031 369.317V327.455L75.3233 328.312L82.9759 329.551Z" fill="#455A64"/>
<path d="M82.9759 329.551V337.913H75.3233V369.317C75.3233 370.587 74.4236 371.656 73.2275 371.91C73.0476 371.952 72.8677 371.974 72.6771 371.974C72.529 371.974 72.3808 371.963 72.2326 371.931C71.6822 371.847 71.1847 371.582 70.8037 371.19C70.3274 370.714 70.031 370.047 70.031 369.317V327.455L75.3233 328.312L82.9759 329.551Z" fill="#455A64"/>
<path d="M72.6772 371.963H70.6132C69.4383 371.963 68.3375 371.021 68.3375 369.846V327.455H70.031V369.317C70.031 370.047 70.3274 370.714 70.8037 371.19C71.1848 371.571 71.8833 371.899 72.6772 371.963Z" fill="#37474F"/>
<path d="M59.9439 362.711V383.446L54.6834 381.234L51.5927 379.932L50.2273 379.361L49.3382 378.98L49.2959 378.959L48.3539 378.567L48.0681 378.45L47.6976 378.292L39.9286 375.011L41.5692 371.105L41.8867 370.364L43.2945 367.04L43.8554 365.686L44.0883 365.156L45.0621 362.828L46.1734 360.203L50.439 350.084L55.9853 352.423C57.6047 354.201 58.7902 356.361 59.4253 358.753C59.764 360.023 59.9439 361.346 59.9439 362.711Z" fill="#EBEBEB"/>
<path d="M59.944 368.109V370.417C59.9016 370.322 59.8593 370.237 59.817 370.152C59.7958 370.11 59.7852 370.078 59.764 370.036C59.7323 369.972 59.7005 369.909 59.6688 369.835C59.6264 369.771 59.5947 369.697 59.5629 369.634C59.1501 368.776 58.7268 367.908 58.3034 367.04C58.261 366.935 58.1975 366.829 58.1446 366.712C57.7742 365.94 57.4037 365.156 57.0332 364.384C56.8004 363.918 56.5781 363.452 56.3558 362.976C56.3347 362.934 56.3135 362.881 56.2923 362.828C55.7313 361.653 55.1704 360.467 54.6094 359.282C54.1966 358.382 53.7732 357.483 53.3604 356.572C52.3866 354.413 51.3811 352.275 50.4391 350.084C51.5822 352.106 52.6512 354.159 53.7626 356.202C54.2918 357.207 54.8317 358.202 55.3503 359.208C55.9113 360.266 56.4617 361.325 57.0226 362.394C57.0967 362.542 57.1708 362.69 57.2449 362.828C57.4778 363.283 57.7212 363.749 57.9541 364.204C58.2399 364.775 58.5362 365.336 58.822 365.908C58.8749 365.993 58.9173 366.077 58.9596 366.162C59.2877 366.808 59.6159 367.453 59.944 368.109Z" fill="#DBDBDB"/>
<path d="M59.944 370.016V370.111C59.9016 370.121 59.8593 370.143 59.817 370.153C59.7111 370.185 59.6053 370.217 59.4994 370.248C58.1552 370.661 56.811 371.032 55.4562 371.381L55.0116 371.487C54.6835 371.572 54.3554 371.656 54.0272 371.73C53.9849 371.741 53.9426 371.751 53.9108 371.762C53.5192 371.857 53.1276 371.942 52.7465 372.037C51.9844 372.207 51.2224 372.376 50.4709 372.545C48.862 372.884 47.2532 373.202 45.6337 373.477C45.5702 373.498 45.5067 373.509 45.4432 373.519C45.1151 373.572 44.787 373.636 44.4588 373.678C43.0934 373.911 41.728 374.101 40.3521 374.249C41.5375 373.858 42.723 373.519 43.919 373.202C44.2683 373.106 44.6176 373.011 44.9669 372.926C45.0727 372.895 45.1892 372.863 45.295 372.831C46.9462 372.408 48.6186 372.037 50.2803 371.667C50.7778 371.561 51.2753 371.455 51.7727 371.349C52.2173 371.275 52.6513 371.18 53.0958 371.095C53.6356 370.989 54.1648 370.884 54.7047 370.799C54.9058 370.757 55.1174 370.725 55.3186 370.693C55.4244 370.672 55.5408 370.651 55.6573 370.63C56.8851 370.418 58.1235 370.227 59.383 370.079C59.4994 370.058 59.637 370.047 59.7641 370.037C59.817 370.026 59.8805 370.016 59.944 370.016Z" fill="#DBDBDB"/>
<path d="M59.9547 364.764H32.562V391.818H59.9547V364.764Z" fill="white"/>
<path d="M59.9441 377.253V378.576C59.8594 378.651 59.7748 378.725 59.6901 378.799C59.5313 378.947 59.3725 379.085 59.2032 379.222C59.1397 379.275 59.0868 379.317 59.0338 379.381C58.9809 379.423 58.928 379.466 58.8751 379.518C58.8433 379.54 58.801 379.571 58.7798 379.603C57.4144 380.789 56.049 381.974 54.6836 383.16C54.4931 383.318 54.3131 383.477 54.1226 383.646L53.8792 383.848L53.6463 383.646C52.9689 383.054 52.2809 382.461 51.5929 381.858C51.2542 381.572 50.9155 381.276 50.5768 380.979C50.3651 380.799 50.1534 380.609 49.9312 380.418C49.8782 380.376 49.8359 380.334 49.783 380.291C49.5395 380.079 49.2961 379.868 49.0526 379.656C49.0421 379.646 49.0209 379.635 49.0103 379.614C48.9785 379.582 48.9468 379.561 48.915 379.529C48.8621 379.487 48.7986 379.434 48.7457 379.381C48.6822 379.339 48.6293 379.286 48.5658 379.233C47.1898 378.037 45.8244 376.83 44.459 375.613C44.279 375.454 44.0991 375.295 43.9192 375.126C43.6228 374.872 43.3264 374.607 43.0406 374.343C42.5538 373.909 42.0669 373.475 41.58 373.03C40.5639 372.12 39.5372 371.199 38.5211 370.278C38.4046 370.172 38.2882 370.067 38.1612 369.961C38.0342 369.844 37.9072 369.728 37.7696 369.611C36.0337 367.992 34.2767 366.415 32.5514 364.764C34.3825 366.182 36.1819 367.664 38.0024 369.103C38.14 369.22 38.2882 369.326 38.4258 369.453C38.574 369.58 38.7327 369.696 38.8809 369.823C39.8865 370.638 40.8814 371.453 41.8869 372.289C42.395 372.702 42.903 373.125 43.4111 373.549C43.9297 373.983 44.4484 374.417 44.967 374.851C45.1893 375.031 45.4222 375.221 45.6339 375.412C46.8934 376.46 48.1424 377.518 49.3913 378.587C49.4019 378.587 49.4019 378.587 49.4019 378.598C49.4972 378.682 49.5925 378.756 49.6877 378.83C49.9312 379.042 50.1746 379.243 50.418 379.455C50.5239 379.54 50.6403 379.635 50.7462 379.73C50.9579 379.91 51.159 380.079 51.3707 380.259C52.2068 380.979 53.0536 381.688 53.8898 382.408C55.3822 381.138 56.8746 379.857 58.367 378.598C58.3776 378.587 58.3776 378.587 58.3776 378.587C58.5258 378.46 58.674 378.333 58.8222 378.206C59.1079 377.973 59.3937 377.719 59.6795 377.486C59.7642 377.402 59.8594 377.327 59.9441 377.253Z" fill="#DBDBDB"/>
<path d="M49.4654 379.201C49.4442 379.212 49.4336 379.233 49.4125 379.244C49.1902 379.434 48.9679 379.625 48.7351 379.815C47.666 380.715 46.5652 381.583 45.4539 382.419C44.099 383.456 42.7019 384.451 41.3047 385.435C39.897 386.399 38.4893 387.362 37.0498 388.283C35.6103 389.204 34.1496 390.103 32.6466 390.939C33.9379 389.807 35.2821 388.748 36.6476 387.722C38.013 386.684 39.3995 385.689 40.7967 384.705C42.2044 383.731 43.6122 382.768 45.0517 381.847C46.1948 381.106 47.3591 380.387 48.5551 379.709C48.8303 379.55 49.1055 379.392 49.3913 379.244C49.4125 379.233 49.4442 379.222 49.4654 379.201Z" fill="#DBDBDB"/>
<path d="M59.9441 380.144V380.589C59.6477 380.335 59.3407 380.091 59.0338 379.826C58.9491 379.752 58.8644 379.678 58.7798 379.604C58.6316 379.488 58.494 379.371 58.3564 379.244C58.3352 379.223 58.3141 379.202 58.3035 379.191C58.3246 379.202 58.3564 379.213 58.3776 379.223C58.5469 379.318 58.7163 379.414 58.8856 379.509C59.002 379.572 59.1079 379.636 59.2137 379.699C59.4466 379.858 59.7006 379.996 59.9441 380.144Z" fill="#DBDBDB"/>
<path d="M156.983 528.234C156.983 528.234 123.43 556.675 123.398 556.696C116.952 562.105 111.396 566.953 108.76 569.736C108.739 569.747 108.728 569.757 108.718 569.779C107.723 570.826 107.151 571.567 107.13 571.927C107.13 571.959 107.119 571.98 107.119 572.001C107.426 575.007 149.119 627.782 151.193 629.126C153.268 630.491 157.279 624.67 157.301 621.336C157.301 617.98 150.389 590.651 150.389 590.651L183.656 561.904L156.983 528.234Z" fill="#EB9481"/>
<path d="M130.289 550.852C130.289 550.852 123.42 556.673 123.398 556.694C116.952 562.103 111.396 566.951 108.76 569.734C108.739 569.745 108.728 569.756 108.718 569.777C107.786 570.877 107.215 571.65 107.13 571.925C107.13 571.957 107.119 571.978 107.119 571.999C107.426 575.005 149.119 627.78 151.193 629.124C153.268 630.489 157.279 624.668 157.301 621.334C157.301 617.979 150.389 590.649 150.389 590.649L157.459 584.817L130.289 550.852Z" fill="#EBEBEB"/>
<path d="M151.193 629.116C149.119 627.761 107.426 574.997 107.119 571.981C106.982 570.837 114.317 564.317 123.409 556.686C123.504 556.612 123.599 556.527 123.695 556.453L150.971 590.197L150.378 590.641C150.378 590.641 157.301 617.97 157.29 621.326C157.269 624.66 153.257 630.481 151.193 629.116Z" fill="#FFC727"/>
<path d="M152.76 626.903C145.954 617.832 117.63 581.908 110.21 573.462C110.147 573.398 110.104 573.43 110.157 573.504C116.709 582.639 145.319 618.34 152.612 627.019C152.77 627.199 152.908 627.094 152.76 626.903Z" fill="#263238"/>
<path d="M152.538 593.582C150.421 589.571 146.504 585.707 141.9 585.009C141.72 584.977 141.688 585.231 141.815 585.316C145.636 587.909 148.875 590.587 152.093 593.921C152.305 594.154 152.686 593.868 152.538 593.582Z" fill="#263238"/>
<path d="M153.003 597.309C150.886 593.297 146.97 589.434 142.366 588.735C142.186 588.703 142.154 588.957 142.281 589.042C146.102 591.635 149.341 594.313 152.559 597.647C152.781 597.88 153.162 597.594 153.003 597.309Z" fill="#263238"/>
<path d="M153.48 601.045C151.363 597.033 147.446 593.17 142.842 592.471C142.662 592.44 142.63 592.694 142.757 592.778C146.578 595.372 149.817 598.05 153.035 601.384C153.257 601.616 153.628 601.331 153.48 601.045Z" fill="#263238"/>
<path d="M174.712 494.862C172.574 506.886 124.033 555.787 124.033 555.787L159.576 594.939C159.576 594.939 228.418 522.932 224.131 496.577C220.395 473.651 183.804 381.979 183.804 381.979L144.08 382.91C144.08 382.91 176.818 483.039 174.712 494.862Z" fill="#37474F"/>
<path d="M163.291 585.351C158.56 579.73 160 581.276 155.205 575.719C152.855 572.998 137.423 555.121 134.787 552.962C134.734 552.909 134.639 552.994 134.671 553.057C136.47 555.947 152.22 573.559 154.612 576.227C159.513 581.699 158.169 580.069 163.133 585.488C163.228 585.594 163.387 585.456 163.291 585.351Z" fill="#263238"/>
<path d="M181.444 490.766C180.809 487.792 180.089 484.828 179.39 481.875C177.962 475.831 176.448 469.798 174.871 463.797C171.727 451.878 168.361 440.034 164.71 428.264C161.047 416.452 157.195 404.671 152.792 393.113C152.252 391.684 151.691 390.266 151.13 388.837C151.087 388.731 150.918 388.784 150.96 388.89C154.803 400.48 158.751 412.038 162.371 423.702C165.98 435.324 169.335 447.009 172.521 458.748C174.119 464.643 175.622 470.56 177.083 476.487C177.803 479.398 178.512 482.319 179.2 485.241C179.899 488.204 180.819 491.221 181.073 494.269C181.327 497.254 180.407 499.932 178.925 502.483C177.496 504.949 175.792 507.288 174.151 509.627C170.87 514.306 139.37 551.087 138.354 552.092C138.27 552.167 138.407 552.283 138.481 552.209C142.726 548.208 169.473 517.883 172.849 513.205C174.522 510.887 176.141 508.548 177.739 506.177C179.232 503.965 180.735 501.7 181.518 499.128C182.386 496.376 182.037 493.55 181.444 490.766Z" fill="#263238"/>
<path d="M175.643 382.168L174.151 487.516C169.684 461.213 144.091 382.909 144.091 382.909L175.643 382.168Z" fill="#263238"/>
<path d="M164.445 577.399C164.445 577.399 173.992 618.953 173.992 618.985C174.299 627.389 174.723 634.756 175.305 638.545C175.305 638.567 175.305 638.588 175.315 638.609C175.527 640.038 175.77 640.948 176.035 641.181C176.056 641.202 176.067 641.223 176.088 641.234C178.649 642.832 245.903 642.313 248.243 641.509C250.592 640.715 248.465 633.973 245.84 631.909C243.194 629.845 217.368 618.53 217.368 618.53L207.407 577.018L164.445 577.399Z" fill="#EB9481"/>
<path d="M248.232 641.487C245.893 642.292 178.639 642.821 176.077 641.223C176.056 641.212 176.046 641.191 176.024 641.17C175.76 640.937 175.527 640.027 175.315 638.598C175.305 638.577 175.305 638.556 175.305 638.534C174.733 634.756 174.31 627.389 173.992 618.985C173.992 618.974 172.341 611.756 172.341 611.756L215.494 610.75L217.357 618.519C217.357 618.519 243.194 629.834 245.84 631.898C248.444 633.962 250.582 640.694 248.232 641.487Z" fill="#EBEBEB"/>
<path d="M248.232 641.499C245.893 642.314 178.649 642.833 176.077 641.224C175.093 640.631 174.447 630.841 174.003 618.975C174.003 618.848 173.992 618.732 173.992 618.605L217.368 617.779L217.357 618.52C217.357 618.52 243.183 629.835 245.829 631.899C248.444 633.952 250.571 640.695 248.232 641.499Z" fill="#FFC727"/>
<path d="M247.449 638.894C236.113 638.703 190.366 639.01 179.147 639.677C179.052 639.687 179.052 639.74 179.147 639.751C190.377 640.185 236.123 639.508 247.449 639.074C247.692 639.074 247.692 638.894 247.449 638.894Z" fill="#263238"/>
<path d="M220.998 618.625C216.531 617.831 211.08 618.551 207.693 621.758C207.566 621.885 207.736 622.065 207.884 622.022C212.276 620.604 216.373 619.683 220.977 619.186C221.315 619.154 221.315 618.678 220.998 618.625Z" fill="#263238"/>
<path d="M224.237 620.541C219.77 619.747 214.319 620.467 210.932 623.674C210.805 623.801 210.974 623.981 211.123 623.938C215.515 622.52 219.611 621.599 224.216 621.102C224.544 621.07 224.554 620.594 224.237 620.541Z" fill="#263238"/>
<path d="M227.465 622.455C222.999 621.661 217.547 622.381 214.16 625.588C214.033 625.715 214.203 625.895 214.351 625.852C218.744 624.434 222.84 623.513 227.444 623.016C227.783 622.984 227.793 622.508 227.465 622.455Z" fill="#263238"/>
<path d="M179.973 382.073C179.941 382.909 176.744 417.033 175.654 417.975C174.426 419.034 167.546 423.871 165.461 425.215C165.461 425.215 185.889 484.086 191.393 503.742C199.384 532.246 218.924 617.853 218.924 617.853L172.193 618.933C172.193 618.933 156.073 537.379 149.225 510.219C143.35 486.944 121.313 417.213 121.313 417.213C116.402 398.616 122.181 383.417 122.181 383.417C122.181 383.417 179.983 382.041 179.973 382.073Z" fill="#37474F"/>
<path d="M217.04 608.795C209.694 608.922 211.8 608.784 204.455 608.996C200.866 609.102 177.252 609.811 173.918 610.499C173.844 610.51 173.844 610.637 173.929 610.647C177.305 611.071 200.898 609.949 204.486 609.779C211.821 609.419 209.715 609.451 217.05 609.007C217.188 608.996 217.177 608.795 217.04 608.795Z" fill="#263238"/>
<path d="M177.697 416.197C173.198 418.706 168.996 421.881 165.006 425.13C164.847 425.257 165.017 425.511 165.186 425.395C169.494 422.558 173.908 419.785 178.046 416.716C178.364 416.472 178.036 416.006 177.697 416.197Z" fill="#263238"/>
<path d="M173.368 384C173.325 383.842 173.04 383.852 173.071 384.032C174.098 389.557 174.617 394.5 175.083 399.75C175.294 402.195 175.739 415.817 171.399 415.595C170.669 415.563 170.192 414.939 169.896 413.902C169.536 412.663 169.737 411.023 169.716 409.731C169.684 406.873 169.557 404.016 169.282 401.168C168.785 395.844 167.874 390.605 166.297 385.493C166.244 385.323 166.001 385.387 166.033 385.556C167.335 392.807 168.446 400.089 168.647 407.466C168.742 411.012 167.938 416.527 171.643 416.41C175.421 416.294 176.236 407.159 176.257 404.693C176.342 397.824 175.104 390.637 173.368 384Z" fill="#263238"/>
<path d="M171.579 415.932C171.367 416.895 171.23 417.869 171.134 418.854C171.06 419.616 170.933 420.441 171.156 421.182C171.198 421.33 171.399 421.309 171.452 421.193C171.833 420.484 171.886 419.605 172.023 418.822C172.193 417.912 172.373 417.012 172.51 416.102C172.606 415.488 171.717 415.339 171.579 415.932Z" fill="#263238"/>
<path d="M165.969 584.227C165.821 583.147 165.652 582.068 165.472 580.999C165.133 578.935 164.731 576.881 164.371 574.817C163.63 570.679 162.826 566.551 161.989 562.434C160.328 554.22 158.444 546.028 156.475 537.888C155.353 533.284 154.083 528.732 152.739 524.192C152.643 523.874 152.199 524.044 152.262 524.35C153.109 528.521 153.935 532.691 154.887 536.83C155.84 540.958 156.782 545.096 157.703 549.235C159.523 557.417 161.238 565.62 163.059 573.812C163.567 576.119 164.043 578.437 164.551 580.755C164.805 581.909 165.07 583.063 165.345 584.206C165.62 585.349 166.001 586.471 166.223 587.625C166.244 587.731 166.403 587.678 166.393 587.572C166.17 586.471 166.128 585.338 165.969 584.227Z" fill="#263238"/>
<path d="M196.738 521.386C195.003 513.67 192.727 506.06 190.441 498.502C185.836 483.271 180.481 468.273 175.146 453.285C173.611 448.967 172.077 444.648 170.531 440.33C169.759 438.171 165.969 426.517 165.504 425.416C165.461 425.3 165.292 425.353 165.324 425.48C166.424 429.449 167.949 435.249 169.208 439.176C170.457 443.061 171.801 446.913 173.103 450.777C175.665 458.376 178.279 465.955 180.766 473.565C185.699 488.616 190.599 503.667 194.685 518.983C195.828 523.27 196.961 527.557 198.019 531.865C199.067 536.173 199.988 540.502 200.993 544.82C201.025 544.936 201.216 544.905 201.205 544.778C200.231 536.903 198.485 529.134 196.738 521.386Z" fill="#263238"/>
<path d="M168.637 562.624C165.715 547.89 162.296 533.252 158.539 518.719C154.771 504.112 150.611 489.601 146.06 475.206C141.519 460.822 136.513 446.575 131.178 432.455C128.648 425.766 126.076 419.066 124.351 412.112C122.647 405.243 121.694 397.78 123.144 390.773C123.515 388.995 123.991 387.249 124.626 385.545C124.668 385.428 124.499 385.333 124.446 385.449C119.133 398.67 123.113 412.916 127.696 425.724C130.204 432.741 132.871 439.706 135.348 446.734C137.889 453.952 140.334 461.203 142.683 468.485C147.33 482.912 151.68 497.444 155.607 512.083C159.534 526.721 163.08 541.465 166.234 556.294C169.399 571.176 172.119 586.121 174.881 601.088C175.241 603.035 175.538 604.993 175.834 606.952C175.855 607.057 176.025 607.057 176.003 606.941C173.855 592.112 171.547 577.336 168.637 562.624Z" fill="#263238"/>
<path d="M159.163 321.547C164 339.424 175.358 367.092 184.82 366.722C193.457 366.383 212.361 350.623 220.31 345.415C228.312 340.176 209.704 320.859 205.153 324.162C198.104 329.284 187.572 338.387 185.752 337.847C183.476 337.18 180.47 331.687 167.208 315.599C161.767 309.026 157.099 313.937 159.163 321.547Z" fill="#EB9481"/>
<path d="M213.652 316.351C217.42 314.922 221.633 312.974 225.867 312.953C230.101 312.932 233.731 318.436 233.774 320.034C233.816 321.632 232.45 331.635 228.217 331.73C223.993 331.825 226.364 324.109 226.184 323.241C226.004 322.363 225.814 321.251 225.02 321.347C224.226 321.453 210.424 328.396 210.424 328.396L213.652 316.351Z" fill="#EB9481"/>
<path d="M213.927 316.92C214.171 316.91 225.391 312.189 229.614 312.168C233.848 312.147 237.478 317.651 237.52 319.249C237.563 320.847 236.197 330.85 231.964 330.945C227.74 331.04 230.111 323.324 229.931 322.456C229.751 321.578 229.561 320.466 228.767 320.562C227.973 320.667 214.171 327.611 214.171 327.611L213.927 316.92Z" fill="#EB9481"/>
<path d="M230.524 330.448C229.984 329.792 229.878 328.787 229.762 327.972C229.635 327.072 229.688 326.162 229.857 325.273C229.995 324.5 230.302 323.727 230.312 322.933C230.323 322.203 230.037 321.335 229.667 320.711C229.328 320.128 228.714 320.34 228.185 320.541C227.402 320.838 226.65 321.25 225.909 321.631C225.115 322.055 224.321 322.489 223.528 322.923C222.713 323.367 221.855 323.78 221.104 324.331C221.051 324.373 221.083 324.468 221.157 324.447C221.887 324.172 222.575 323.78 223.284 323.431C224.078 323.039 224.872 322.648 225.676 322.267C226.428 321.917 227.158 321.515 227.91 321.176C228.174 321.06 228.703 320.753 229.01 320.816C229.339 320.88 229.508 321.674 229.593 321.928C229.836 322.732 229.709 323.42 229.497 324.214C229.296 324.976 229.159 325.749 229.116 326.543C229.074 327.273 229.116 328.046 229.339 328.744C229.55 329.411 230.027 329.951 230.386 330.544C230.45 330.607 230.588 330.512 230.524 330.448Z" fill="#263238"/>
<path d="M200.782 328.331C200.782 328.331 212.245 317.376 214.637 315.206C219.431 310.835 239.838 301.944 242.707 301.573C245.575 301.203 246.75 307.067 232.906 313.502C225.613 316.9 224.396 321.144 224.597 323.483C224.787 325.822 227.126 330.13 231.064 329.929C235.001 329.728 237.415 323.928 241.013 323.208C244.612 322.488 242.379 329.167 239.923 333.052C237.457 336.936 232.906 340.207 229.529 341.562C226.153 342.916 215.727 347.701 215.727 347.701L200.782 328.331Z" fill="#EB9481"/>
<path d="M235.869 327.05C234.419 328.236 232.768 329.76 230.82 329.876C228.809 330.003 227.465 328.723 226.491 327.103C225.507 325.473 224.914 323.589 225.327 321.684C225.697 319.969 226.682 318.435 227.92 317.207C229.455 315.693 231.276 314.55 233.17 313.534C233.255 313.492 233.181 313.365 233.085 313.407C231.297 314.254 225.719 316.699 224.703 321.695C224.29 323.737 224.946 325.537 225.93 327.209C226.841 328.754 228.142 330.236 230.058 330.342C232.387 330.48 234.345 328.543 235.986 327.093C236.06 327.04 235.943 326.987 235.869 327.05Z" fill="#263238"/>
<path d="M200.75 326.842L218.913 353.631C218.913 353.631 191.478 369.857 183.55 367.529C175.622 365.2 163.217 342.931 157.861 323.254C152.506 303.577 164.826 310.881 169.684 316.882C174.543 322.883 185.106 336.781 185.656 336.58C186.207 336.389 200.75 326.842 200.75 326.842Z" fill="#FFC727"/>
<path d="M211.017 358.002C209.313 358.912 207.439 359.875 205.46 360.839L189.636 334.081C191.224 333.076 193.065 331.858 194.801 330.736C199.787 339.098 205.841 349.27 211.017 358.002Z" fill="#EBEBEB"/>
<path d="M203.332 361.875C202.74 362.161 202.126 362.436 201.512 362.712L185.932 336.441C186.26 336.24 186.831 335.88 187.572 335.414C192.483 343.628 198.315 353.429 203.332 361.875Z" fill="#EBEBEB"/>
<path d="M199.533 363.592C193.267 366.323 187.085 368.344 183.825 367.604C183.719 367.582 183.635 367.551 183.539 367.529C175.612 365.201 163.207 342.931 157.851 323.254C156.898 319.751 156.507 317.094 156.528 315.147C156.528 315.041 156.538 314.956 156.528 314.861C156.538 314.702 156.538 314.543 156.56 314.395C156.56 314.332 156.57 314.268 156.581 314.205C156.591 314.056 156.612 313.908 156.623 313.781L199.533 363.592Z" fill="#263238"/>
<path d="M209.059 351.186C208.487 350.234 207.894 349.281 207.312 348.339C206.137 346.445 199.088 335.214 196.325 331.817C196.251 331.721 196.114 331.838 196.167 331.933C198.125 335.871 205.428 346.889 206.635 348.71C207.259 349.641 207.884 350.562 208.508 351.483C209.143 352.414 209.884 353.261 210.519 354.192C210.583 354.288 210.731 354.203 210.678 354.108C210.096 353.155 209.63 352.139 209.059 351.186Z" fill="#263238"/>
<path d="M118.254 400.678C118.424 400.858 188.43 392.507 189.054 391.755C189.922 390.707 172.024 320.924 164.456 311.715C162.836 309.746 157.703 309.355 153.374 310.043C152.178 310.223 151.035 310.498 150.05 310.837C150.029 310.847 149.987 310.858 149.934 310.868C148.939 311.228 148.092 311.662 147.51 312.16C135.74 322.226 126.69 356.318 124.658 366.532C121.281 383.372 117.651 400.032 118.254 400.678Z" fill="#FFC727"/>
<path d="M187.614 384.189C170.732 386.38 133.94 391.153 119.344 392.889C119.842 390.306 120.466 387.216 121.154 383.808L185.55 375.742C186.355 378.918 187.064 381.797 187.614 384.189Z" fill="#EBEBEB"/>
<path d="M184.672 372.302C167.959 374.472 137.095 378.463 121.864 380.315C122.054 379.373 122.255 378.388 122.456 377.415L183.984 369.656C184.217 370.556 184.45 371.434 184.672 372.302Z" fill="#EBEBEB"/>
<path d="M142.757 330.42C146.303 348.667 162.487 382.591 172.584 385.576C184.27 389.037 224.258 375.224 232.027 369.254C235.118 366.873 217.876 346.974 213.991 348.509C197.733 354.923 183.264 358.363 181.116 356.976C177.824 354.849 164.149 336.199 155.268 324.64C144.133 310.119 141.159 322.238 142.757 330.42Z" fill="#EB9481"/>
<path d="M231.001 369.835C232.779 369.158 244.909 359.907 248.444 355.62C250.698 352.89 254.583 348.148 257.589 340.696C261.05 332.091 262.627 325.804 261.674 323.031C260.574 319.813 260.267 319.284 252.074 333.636C247.438 341.755 242.855 342.76 238.865 342.781C222.501 342.855 210.668 349.778 210.668 349.778C210.668 349.778 224.174 372.45 231.001 369.835Z" fill="#EB9481"/>
<path d="M267.559 312.301L246.877 339.683C246.306 340.434 245.163 340.837 244.326 340.583L229.36 335.989C228.524 335.735 228.312 334.909 228.873 334.158L249.555 306.776C250.137 306.014 251.27 305.622 252.106 305.876L267.072 310.47C267.909 310.724 268.12 311.539 267.559 312.301Z" fill="#37474F"/>
<path d="M265.728 310.047L250.751 305.453C249.915 305.199 248.772 305.601 248.2 306.363L227.518 333.745C226.947 334.497 227.158 335.323 227.995 335.577L242.972 340.17C243.808 340.424 244.951 340.022 245.522 339.26L266.205 311.878C266.776 311.126 266.564 310.311 265.728 310.047ZM245.226 338.127C244.686 338.847 243.638 339.249 242.887 339.017L229.487 334.91C228.735 334.677 228.566 333.915 229.116 333.184L248.37 307.686C249.481 306.215 250.137 306.332 250.889 306.564L253.567 307.39C253.725 307.443 253.736 307.633 253.588 307.835L253.524 307.919C253.175 308.374 253.461 308.459 253.81 308.575L260.013 310.481C260.362 310.586 260.637 310.671 260.986 310.216L261.05 310.131C261.198 309.941 261.442 309.814 261.6 309.867L264.289 310.692C265.04 310.925 265.495 311.306 264.479 312.65L245.226 338.127Z" fill="#263238"/>
<path d="M258.182 309.21L256.488 308.691C256.435 308.67 256.414 308.617 256.456 308.564C256.499 308.511 256.573 308.49 256.636 308.501L258.33 309.019C258.383 309.04 258.404 309.093 258.361 309.146C258.319 309.199 258.245 309.22 258.182 309.21Z" fill="white"/>
<path d="M264.479 312.63L245.226 338.128C244.686 338.848 243.638 339.25 242.887 339.018L229.487 334.911C228.735 334.678 228.566 333.916 229.116 333.185L248.37 307.687C249.481 306.216 250.137 306.333 250.889 306.565L253.567 307.391C253.725 307.444 253.736 307.634 253.588 307.836L253.524 307.92C253.175 308.375 253.461 308.46 253.81 308.576L260.013 310.482C260.362 310.588 260.637 310.672 260.986 310.217L261.05 310.132C261.198 309.942 261.442 309.815 261.6 309.868L264.289 310.693C265.03 310.905 265.495 311.286 264.479 312.63Z" fill="white"/>
<path d="M264.479 312.63L263.04 314.536L246.93 309.593L248.37 307.687C249.481 306.216 250.137 306.333 250.889 306.565L253.577 307.391C253.736 307.444 253.747 307.634 253.598 307.836L253.535 307.92C253.186 308.375 253.471 308.46 253.821 308.576L260.023 310.482C260.372 310.588 260.658 310.672 260.997 310.217L261.06 310.132C261.209 309.942 261.452 309.815 261.611 309.868L264.289 310.693C265.03 310.905 265.495 311.286 264.479 312.63Z" fill="#FFC727"/>
<path d="M249.259 309.169L249.089 308.618L249.862 308.375L249.883 308.46L249.248 308.671L249.386 309.116L249.259 309.169Z" fill="white"/>
<path d="M263.008 312.692C262.976 312.734 262.902 312.766 262.849 312.744C262.796 312.734 262.786 312.681 262.817 312.628C262.849 312.586 262.923 312.554 262.976 312.575C263.029 312.596 263.05 312.649 263.008 312.692Z" fill="white"/>
<path d="M262.786 312.986C262.754 313.029 262.68 313.061 262.627 313.039C262.574 313.018 262.563 312.976 262.595 312.923C262.627 312.881 262.701 312.849 262.754 312.87C262.807 312.891 262.817 312.944 262.786 312.986Z" fill="white"/>
<path d="M262.563 313.285C262.532 313.328 262.458 313.359 262.405 313.338C262.352 313.328 262.341 313.275 262.373 313.222C262.405 313.179 262.479 313.148 262.532 313.169C262.585 313.19 262.595 313.243 262.563 313.285Z" fill="white"/>
<path d="M252.677 307.826C252.667 307.826 252.646 307.836 252.635 307.836C252.625 307.836 252.614 307.847 252.614 307.847C252.593 307.762 252.529 307.709 252.434 307.678C252.339 307.646 252.233 307.656 252.117 307.688C252.117 307.678 252.117 307.678 252.117 307.667C252.117 307.656 252.106 307.646 252.106 307.635C252.127 307.635 252.138 307.625 252.159 307.625C252.191 307.614 252.233 307.604 252.265 307.604C252.307 307.604 252.349 307.604 252.392 307.604C252.413 307.604 252.423 307.614 252.445 307.614C252.455 307.614 252.487 307.625 252.487 307.625C252.498 307.625 252.508 307.635 252.519 307.635C252.55 307.646 252.572 307.667 252.593 307.688C252.614 307.699 252.625 307.72 252.635 307.731C252.646 307.752 252.656 307.762 252.667 307.783C252.667 307.805 252.677 307.815 252.677 307.826Z" fill="white"/>
<path d="M252.138 307.793C252.138 307.772 252.127 307.762 252.127 307.74C252.201 307.709 252.275 307.709 252.349 307.719C252.455 307.74 252.519 307.793 252.54 307.867C252.519 307.878 252.498 307.878 252.476 307.889C252.455 307.836 252.424 307.793 252.36 307.772C252.286 307.762 252.212 307.762 252.138 307.793Z" fill="white"/>
<path d="M252.402 307.92C252.381 307.93 252.36 307.93 252.339 307.941C252.328 307.909 252.307 307.888 252.275 307.888C252.244 307.878 252.201 307.878 252.169 307.899C252.169 307.878 252.159 307.867 252.159 307.846C252.265 307.793 252.381 307.825 252.402 307.92Z" fill="white"/>
<path d="M252.265 307.951C252.254 307.972 252.222 307.983 252.201 307.972C252.18 307.961 252.18 307.951 252.191 307.93C252.201 307.908 252.233 307.898 252.254 307.908C252.265 307.919 252.275 307.94 252.265 307.951Z" fill="white"/>
<path d="M250.095 307.115C250.137 307.062 250.211 307.03 250.275 307.052C250.338 307.073 250.349 307.126 250.307 307.179C250.264 307.231 250.19 307.263 250.127 307.242C250.074 307.221 250.053 307.168 250.095 307.115Z" fill="white"/>
<path d="M250.434 307.221C250.476 307.168 250.55 307.136 250.614 307.157C250.677 307.178 250.688 307.231 250.645 307.284C250.603 307.337 250.529 307.369 250.465 307.348C250.412 307.326 250.391 307.273 250.434 307.221Z" fill="white"/>
<path d="M250.772 307.316C250.815 307.263 250.889 307.232 250.952 307.253C251.016 307.274 251.026 307.327 250.984 307.38C250.942 307.433 250.868 307.464 250.804 307.443C250.741 307.433 250.73 307.369 250.772 307.316Z" fill="white"/>
<path d="M251.1 307.422C251.143 307.369 251.217 307.337 251.28 307.358C251.344 307.379 251.354 307.432 251.312 307.485C251.27 307.538 251.196 307.57 251.132 307.549C251.079 307.528 251.069 307.475 251.1 307.422Z" fill="white"/>
<path d="M251.439 307.529C251.481 307.476 251.556 307.444 251.619 307.466C251.683 307.487 251.693 307.54 251.651 307.593C251.608 307.646 251.534 307.677 251.471 307.656C251.418 307.635 251.397 307.582 251.439 307.529Z" fill="white"/>
<path d="M264.024 311.233L263.199 310.979L262.955 311.296L263.781 311.55L264.024 311.233Z" stroke="white" stroke-width="0.5" stroke-miterlimit="10"/>
<path d="M263.781 311.203L263.22 311.033L263.04 311.266L263.601 311.435L263.781 311.203Z" fill="white"/>
<path d="M263.929 311.509L263.855 311.487L264.003 311.297L264.077 311.318L263.929 311.509Z" fill="white"/>
<path d="M231.752 333.681L231.625 333.639L231.254 334.147L231.022 334.073L231.212 333.819L230.81 333.692L230.619 333.946L230.386 333.882L230.768 333.374L230.641 333.343L231.583 333.004L231.752 333.681Z" fill="#EBEBEB"/>
<path d="M244.337 337.121L242.993 336.719L243.12 336.539L244.464 336.952L244.337 337.121Z" fill="#EBEBEB"/>
<path d="M244.019 337.545L242.675 337.132L242.813 336.963L244.146 337.376L244.019 337.545Z" fill="#EBEBEB"/>
<path d="M243.702 337.958L242.368 337.556L242.495 337.387L243.829 337.789L243.702 337.958Z" fill="#EBEBEB"/>
<path d="M237.796 335.449L237.139 335.692L237.034 335.216L237.139 335.174L237.235 335.565L237.764 335.375L237.796 335.449Z" fill="#EBEBEB"/>
<path d="M237.965 335.649C237.722 335.967 237.245 336.136 236.885 336.02C236.526 335.914 236.43 335.565 236.674 335.247C236.917 334.93 237.393 334.76 237.753 334.877C238.113 334.983 238.208 335.332 237.965 335.649Z" stroke="#EBEBEB" stroke-miterlimit="10"/>
<path d="M254.424 310.427C254.583 310.215 254.911 310.11 255.144 310.184C255.249 310.215 255.324 310.279 255.355 310.353C255.366 310.385 255.345 310.417 255.302 310.438C255.26 310.459 255.207 310.448 255.197 310.417C255.175 310.364 255.122 310.321 255.048 310.3C254.964 310.279 254.868 310.279 254.773 310.311C254.688 310.342 254.604 310.395 254.551 310.47C254.498 310.544 254.477 310.618 254.498 310.681C254.519 310.745 254.572 310.798 254.657 310.819C254.731 310.84 254.805 310.84 254.89 310.819C254.932 310.808 254.974 310.829 254.974 310.861C254.974 310.893 254.943 310.935 254.9 310.946C254.784 310.978 254.667 310.978 254.561 310.946C254.339 310.861 254.265 310.628 254.424 310.427Z" fill="white"/>
<path d="M255.133 311.031L255.599 310.406C255.62 310.375 255.673 310.353 255.705 310.364C255.736 310.375 255.747 310.406 255.726 310.438L255.535 310.692L255.842 310.787L256.033 310.533C256.054 310.502 256.107 310.481 256.139 310.491C256.17 310.502 256.181 310.533 256.16 310.565L255.694 311.19C255.673 311.221 255.62 311.243 255.588 311.232C255.556 311.221 255.546 311.19 255.567 311.158L255.758 310.904L255.451 310.809L255.26 311.063C255.239 311.094 255.186 311.116 255.154 311.105C255.123 311.105 255.112 311.073 255.133 311.031Z" fill="white"/>
<path d="M256.414 311.285L256.128 311.201L255.969 311.317C255.937 311.338 255.906 311.338 255.885 311.338C255.874 311.338 255.874 311.328 255.863 311.328C255.842 311.306 255.842 311.264 255.885 311.243L256.615 310.703C256.647 310.682 256.678 310.671 256.71 310.682C256.742 310.692 256.753 310.714 256.742 310.735L256.541 311.433C256.53 311.465 256.488 311.497 256.446 311.497C256.435 311.497 256.424 311.497 256.424 311.497C256.403 311.486 256.382 311.465 256.393 311.444L256.414 311.285ZM256.446 311.158L256.52 310.904L256.255 311.105L256.446 311.158Z" fill="white"/>
<path d="M257.472 311.061L257.282 311.009L256.858 311.57C256.837 311.601 256.784 311.622 256.753 311.612C256.721 311.601 256.71 311.57 256.731 311.538L257.155 310.977L256.964 310.924C256.932 310.913 256.922 310.882 256.943 310.85C256.964 310.818 257.017 310.797 257.049 310.807L257.557 310.966C257.589 310.977 257.599 311.009 257.578 311.04C257.568 311.051 257.515 311.072 257.472 311.061Z" fill="white"/>
<path d="M240.654 320.78L252.18 324.315L254.604 321.098L243.077 317.562L240.654 320.78Z" fill="#455A64"/>
<path d="M253.238 324.643L252.18 324.315L252.921 323.32L253.238 324.643Z" fill="#455A64"/>
<path d="M253.471 321.512L243.279 318.379L243.321 318.326L253.524 321.449L253.471 321.512Z" fill="white"/>
<path d="M251.111 321.195L243.024 318.718L243.067 318.654L251.153 321.131L251.111 321.195Z" fill="white"/>
<path d="M251.894 322.242L242.527 319.374L242.569 319.311L251.937 322.19L251.894 322.242Z" fill="white"/>
<path d="M252.476 322.835L242.273 319.702L242.326 319.639L252.529 322.772L252.476 322.835Z" fill="white"/>
<path d="M252.233 323.163L242.029 320.03L242.072 319.967L252.275 323.1L252.233 323.163Z" fill="white"/>
<path d="M249.153 322.623L241.775 320.358L241.828 320.305L249.206 322.559L249.153 322.623Z" fill="white"/>
<path d="M234.917 328.372L246.443 331.907L248.867 328.69L237.351 325.154L234.917 328.372Z" fill="#455A64"/>
<path d="M247.512 332.234L246.443 331.906L247.184 330.922L247.512 332.234Z" fill="#455A64"/>
<path d="M247.745 329.102L237.542 325.969L237.584 325.916L247.787 329.038L247.745 329.102Z" fill="white"/>
<path d="M245.374 328.784L237.298 326.308L237.341 326.244L245.427 328.721L245.374 328.784Z" fill="white"/>
<path d="M246.157 329.832L236.79 326.964L236.843 326.9L246.2 329.779L246.157 329.832Z" fill="white"/>
<path d="M246.75 330.425L236.547 327.292L236.589 327.229L246.792 330.362L246.75 330.425Z" fill="white"/>
<path d="M246.496 330.753L236.293 327.62L236.346 327.557L246.549 330.69L246.496 330.753Z" fill="white"/>
<path d="M243.427 330.213L236.049 327.947L236.092 327.895L243.469 330.16L243.427 330.213Z" fill="white"/>
<path d="M258.076 318.242L246.56 314.707L248.602 311.986L260.129 315.522L258.076 318.242Z" fill="#FFC727"/>
<path d="M245.491 314.38L246.56 314.708L247.301 313.713L245.491 314.38Z" fill="#FFC727"/>
<path d="M257.345 315.363L248.857 312.759L248.899 312.695L257.398 315.31L257.345 315.363Z" fill="white"/>
<path d="M258.806 316.22L248.602 313.087L248.645 313.023L258.848 316.156L258.806 316.22Z" fill="white"/>
<path d="M258.552 316.549L248.359 313.416L248.401 313.363L258.605 316.486L258.552 316.549Z" fill="white"/>
<path d="M257.504 316.632L248.105 313.742L248.147 313.689L257.546 316.568L257.504 316.632Z" fill="white"/>
<path d="M258.054 317.204L247.862 314.081L247.904 314.018L258.107 317.151L258.054 317.204Z" fill="white"/>
<path d="M255.144 316.719L247.608 314.411L247.65 314.348L255.197 316.666L255.144 316.719Z" fill="white"/>
<path d="M256.223 320.689L244.707 317.154L246.221 315.143L257.747 318.678L256.223 320.689Z" fill="#FFC727"/>
<path d="M243.638 316.826L244.707 317.154L245.448 316.17L243.638 316.826Z" fill="#FFC727"/>
<path d="M256.657 319.037L246.475 315.915L246.517 315.852L256.7 318.974L256.657 319.037Z" fill="white"/>
<path d="M254.604 318.815L246.221 316.243L246.274 316.18L254.657 318.752L254.604 318.815Z" fill="white"/>
<path d="M255.197 319.397L245.977 316.571L246.02 316.508L255.25 319.344L255.197 319.397Z" fill="white"/>
<path d="M252.836 319.08L245.723 316.899L245.776 316.836L252.889 319.027L252.836 319.08Z" fill="white"/>
<path d="M250.508 328.264L238.981 324.729L241.13 321.893L252.646 325.428L250.508 328.264Z" fill="#DBDBDB"/>
<path d="M237.923 324.401L238.981 324.729L239.733 323.734L237.923 324.401Z" fill="#DBDBDB"/>
<path d="M250.275 326.591L240.632 323.638L240.685 323.574L250.317 326.538L250.275 326.591Z" fill="white"/>
<path d="M249.238 326.686L240.389 323.966L240.431 323.902L249.28 326.623L249.238 326.686Z" fill="white"/>
<path d="M250.211 325.765L241.13 322.981L241.183 322.918L250.254 325.702L250.211 325.765Z" fill="white"/>
<path d="M251.46 325.744L241.384 322.653L241.426 322.59L251.503 325.681L251.46 325.744Z" fill="white"/>
<path d="M249.301 327.111L240.135 324.295L240.188 324.242L249.343 327.047L249.301 327.111Z" fill="white"/>
<path d="M245.099 335.433L233.572 331.897L235.361 329.537L246.877 333.072L245.099 335.433Z" fill="#FFC727"/>
<path d="M232.503 331.569L233.572 331.897L234.324 330.902L232.503 331.569Z" fill="#FFC727"/>
<path d="M245.819 333.409L235.626 330.276L235.668 330.213L245.872 333.346L245.819 333.409Z" fill="white"/>
<path d="M245.575 333.739L235.372 330.606L235.414 330.553L245.618 333.675L245.575 333.739Z" fill="white"/>
<path d="M244.517 333.823L235.118 330.944L235.171 330.881L244.559 333.76L244.517 333.823Z" fill="white"/>
<path d="M245.078 334.404L234.874 331.271L234.917 331.207L245.12 334.34L245.078 334.404Z" fill="white"/>
<path d="M242.167 333.906L234.62 331.599L234.673 331.535L242.209 333.853L242.167 333.906Z" fill="white"/>
<path d="M240.855 342.665C236.737 342.824 249.936 334.145 250.031 329.456C250.127 324.756 245.586 326.344 242.051 329.075C229.751 338.559 220.299 338.326 214.16 347.27C208.021 356.192 240.855 342.665 240.855 342.665Z" fill="#EB9481"/>
<path d="M228.259 337.237C225.602 338.052 222.999 338.973 220.617 340.434C218.405 341.788 216.701 343.704 215.166 345.779C215.102 345.864 215.229 345.991 215.293 345.895C218.574 341.661 223.528 339.47 228.291 337.354C228.365 337.322 228.333 337.216 228.259 337.237Z" fill="#263238"/>
<path d="M181.973 355.82C185.201 356.614 207.386 349.966 207.386 349.966L220.638 380.016C220.638 380.016 181.962 389.976 172.817 387.044C163.672 384.112 148.812 353.608 143.826 335.794C139.137 319.049 144.61 307.914 157.046 325.093C157.057 325.093 180.29 355.407 181.973 355.82Z" fill="#FFC727"/>
<path d="M213.578 381.74C211.08 382.311 208.095 382.989 204.867 383.677L192.748 353.998C195.648 353.278 198.686 352.463 201.226 351.754C204.952 360.793 209.482 371.769 213.578 381.74Z" fill="#EBEBEB"/>
<path d="M201.48 384.366C200.559 384.556 199.617 384.747 198.675 384.927L186.588 355.396C187.435 355.226 188.345 355.046 189.308 354.824C192.97 363.673 197.426 374.469 201.48 384.366Z" fill="#EBEBEB"/>
<path d="M172.32 386.124C164.625 382.408 154.771 362.245 152.876 358.286C151.659 355.757 150.547 353.174 149.447 350.591C147.256 345.416 145.223 340.166 143.276 334.895C143.244 334.799 143.107 334.852 143.138 334.937C144.228 339.023 145.53 343.055 147.023 347.035C146.06 345.564 145.213 344.029 144.43 342.462C144.387 342.388 144.26 342.452 144.292 342.526C145.065 344.41 146.113 346.167 147.309 347.818C148.833 351.809 150.537 355.725 152.421 359.535C152.961 360.636 164.392 385.351 172.944 387.468C175.919 388.209 186.016 387.246 188.144 386.695C188.239 386.674 188.26 386.558 188.154 386.558C185.243 386.558 175.072 387.457 172.32 386.124Z" fill="#263238"/>
<path d="M212.16 376.545C211.758 375.507 211.355 374.47 210.943 373.433C210.117 371.358 205.153 359.059 203.025 355.238C202.972 355.132 202.814 355.217 202.845 355.323C204.084 359.546 209.334 371.676 210.212 373.676C210.657 374.703 211.112 375.719 211.567 376.735C212.033 377.762 212.615 378.725 213.07 379.752C213.112 379.858 213.282 379.805 213.239 379.699C212.837 378.672 212.562 377.582 212.16 376.545Z" fill="#263238"/>
<path d="M207.397 350.02C205.544 350.147 188.927 354.423 185.254 355.333C184.386 355.545 183.444 355.894 182.534 355.778C181.571 355.651 180.925 354.867 180.3 354.19C179.073 352.846 165.598 335.879 164.635 335.043C164.265 334.736 163.99 334.672 164.339 335.212C164.942 336.133 178.046 352.899 179.231 354.211C180.332 355.439 181.369 356.72 183.169 356.603C183.963 356.55 206.381 350.972 207.481 350.486C207.714 350.39 207.683 349.999 207.397 350.02Z" fill="#263238"/>
<path d="M163.471 321.773C160.126 322.387 151.585 318.46 149.468 313.623C149.32 313.295 150.103 310.003 150.865 305.96C151.32 303.504 151.754 300.763 151.987 298.222C152.029 297.704 167.536 303.483 167.536 303.483C167.536 303.483 165.503 308.659 165.143 313.072C165.122 313.443 165.122 313.792 165.165 314.12C165.165 314.173 165.175 314.226 165.175 314.29C165.302 316.311 167.049 321.106 163.471 321.773Z" fill="#EB9481"/>
<path d="M165.154 314.131C165.154 314.184 165.154 314.247 165.154 314.3C164.657 314.322 164.106 314.3 163.524 314.237C154.189 313.2 152.76 301.281 152.548 298.275C155.332 298.932 167.536 303.483 167.536 303.483C167.536 303.483 165.503 308.659 165.133 313.083C165.112 313.454 165.112 313.803 165.154 314.131Z" fill="#263238"/>
<path d="M145.541 281.625C144.959 287.51 151.087 302.942 155.755 305.726C162.508 309.758 171.971 308.382 174.998 300.624C177.93 293.109 169.578 273.136 164.53 270.765C157.068 267.293 146.398 272.935 145.541 281.625Z" fill="#EB9481"/>
<path d="M163.09 288.093C163.069 288.062 163.027 288.178 163.048 288.22C163.492 289.247 163.82 290.507 163.016 291.216C162.995 291.237 163.016 291.29 163.048 291.269C164.127 290.655 163.672 288.993 163.09 288.093Z" fill="#263238"/>
<path d="M161.735 287.362C160.01 287.892 161.195 291.3 162.794 290.813C164.36 290.337 163.175 286.928 161.735 287.362Z" fill="#263238"/>
<path d="M169.261 286.135C169.25 286.093 169.356 286.156 169.377 286.199C169.716 287.268 170.277 288.432 171.346 288.453C171.378 288.453 171.399 288.506 171.357 288.517C170.14 288.76 169.409 287.204 169.261 286.135Z" fill="#263238"/>
<path d="M169.822 284.706C171.473 283.986 172.796 287.352 171.261 288.019C169.758 288.675 168.435 285.309 169.822 284.706Z" fill="#263238"/>
<path d="M159.841 286.272C160.264 285.997 160.613 285.669 161.005 285.352C161.45 284.992 161.831 284.748 162.011 284.187C162.106 283.88 161.884 283.468 161.587 283.351C160.92 283.076 160.264 283.383 159.724 283.796C159.132 284.24 158.782 284.738 158.602 285.457C158.422 286.156 159.28 286.643 159.841 286.272Z" fill="#263238"/>
<path d="M170.552 282.536C170.055 282.62 169.578 282.62 169.07 282.652C168.499 282.694 168.054 282.779 167.536 282.483C167.26 282.324 167.144 281.869 167.271 281.583C167.567 280.927 168.255 280.704 168.933 280.63C169.674 280.546 170.266 280.673 170.891 281.075C171.494 281.467 171.208 282.419 170.552 282.536Z" fill="#263238"/>
<path d="M165.514 298.244C165.853 298.403 166.223 298.657 166.615 298.551C166.996 298.456 167.366 298.138 167.663 297.895C167.694 297.874 167.737 297.895 167.726 297.937C167.589 298.435 167.102 298.89 166.583 298.975C166.075 299.059 165.694 298.721 165.429 298.329C165.398 298.265 165.472 298.213 165.514 298.244Z" fill="#263238"/>
<path d="M165.535 294.686C166.445 295.395 167.493 295.596 168.488 295.448C168.933 295.385 169.388 295.247 169.801 295.057C169.885 295.025 169.97 294.982 170.033 294.94C170.108 294.908 170.171 294.866 170.256 294.824C170.372 294.76 170.404 294.633 170.383 294.517V294.506C170.372 294.464 170.362 294.432 170.34 294.4C170.34 294.4 170.34 294.4 170.34 294.39L170.309 294.294C170.044 293.469 169.536 292.262 169.536 292.262C169.885 292.305 171.642 292.463 171.462 292.051C170.033 288.6 168.435 284.768 166.287 281.646C166.223 281.54 166.054 281.625 166.107 281.741C167.356 285.107 169.187 288.23 170.489 291.595C169.938 291.585 169.039 291.511 168.615 291.669C168.509 291.744 169.642 293.987 169.727 294.369C169.727 294.369 169.737 294.379 169.737 294.411C168.435 295.057 167.26 295.004 165.609 294.548C165.493 294.527 165.44 294.623 165.535 294.686Z" fill="#263238"/>
<path d="M169.176 294.823C169.176 294.823 168.795 296.051 167.927 296.739C167.61 296.993 167.239 297.183 166.784 297.215C165.863 297.289 165.578 296.516 165.493 295.807C165.429 295.214 165.514 294.664 165.514 294.664C165.514 294.664 167.165 295.384 169.176 294.823Z" fill="#263238"/>
<path d="M167.927 296.739C167.61 296.993 167.239 297.183 166.784 297.215C165.863 297.289 165.578 296.517 165.493 295.807C166.435 295.585 167.546 295.881 167.927 296.739Z" fill="#FF9BBC"/>
<path d="M150.897 295.914C153.924 294.654 150.103 286.271 150.103 286.271C150.103 286.271 154.326 284.334 154.167 279.561C154.167 279.561 167.155 278.555 169.028 273.443C170.902 268.33 167.26 261.916 165.662 262.001C164.223 262.075 162.445 264.859 162.445 264.859C162.445 264.859 160.772 262.805 159.46 262.953C157.438 263.186 157.11 265.864 156.231 266.753C153.945 269.05 146.07 271.59 144.366 273.845C142.662 276.099 143.403 277.973 143.403 277.973C143.403 277.973 141.244 279.137 141.074 282.26C140.852 286.091 147.848 297.184 150.897 295.914Z" fill="#263238"/>
<path d="M151.161 295.183C153.373 291.965 151.225 287.679 149.129 284.958C149.097 284.916 149.161 284.874 149.203 284.916C151.362 287.403 153.839 292.272 151.288 295.299C151.214 295.373 151.098 295.268 151.161 295.183Z" fill="#263238"/>
<path d="M152.04 279.107C155.067 279.35 157.988 279.594 160.984 278.948C162.328 278.662 163.63 278.228 164.879 277.657C166.117 277.085 168.319 276.101 168.806 274.693C168.816 274.672 168.837 274.683 168.837 274.704C168.456 275.889 167.377 276.598 166.35 277.233C164.921 278.112 163.355 278.747 161.735 279.17C158.623 279.975 155.12 280.091 151.976 279.361C151.818 279.329 151.881 279.096 152.04 279.107Z" fill="#263238"/>
<path d="M145.679 271.907C147.065 270.986 148.663 270.393 150.156 269.663C152.04 268.752 154.326 267.842 155.819 266.339C155.85 266.307 155.903 266.35 155.871 266.392C154.898 267.535 153.532 268.234 152.23 268.954C150.897 269.694 149.531 270.361 148.155 271.007C146.589 271.748 144.874 272.595 143.964 274.161C143.107 275.654 143.329 277.315 143.54 278.935C143.562 279.094 143.318 279.136 143.265 278.988C142.461 276.204 143.212 273.537 145.679 271.907Z" fill="#263238"/>
<path d="M142.726 278.735C142.736 278.725 142.747 278.746 142.736 278.756C139.413 281.17 141.106 286.092 142.81 288.981C144.408 291.691 146.568 294.252 149.531 295.491C149.68 295.554 149.563 295.766 149.425 295.713C145.975 294.358 143.435 291.056 141.858 287.817C140.651 285.34 139.317 280.185 142.726 278.735Z" fill="#263238"/>
<path d="M152.241 294.051C152.241 294.051 147.489 289.691 145.435 291.49C143.382 293.289 147.743 300.169 150.717 300.593C153.691 301.005 154.125 298.264 154.125 298.264L152.241 294.051Z" fill="#EB9481"/>
<path d="M146.737 293.438C146.695 293.449 146.695 293.512 146.737 293.512C148.833 293.872 150.251 295.428 151.363 297.122C150.632 296.54 149.764 296.317 148.96 297.206C148.917 297.249 148.981 297.323 149.034 297.302C149.785 296.963 150.389 296.974 151.056 297.482C151.532 297.841 151.913 298.349 152.305 298.815C152.432 298.963 152.728 298.805 152.611 298.625C152.601 298.614 152.59 298.593 152.59 298.582C152.103 296.116 149.426 293.1 146.737 293.438Z" fill="#263238"/>
<path d="M166.287 313.727C166.276 313.695 166.223 313.716 166.244 313.748C167.303 316.796 169.547 323.909 164.741 324.766C162.804 325.116 160.74 324.364 158.973 323.56C157.152 322.734 155.437 321.676 153.818 320.48C152.029 319.146 150.177 317.749 148.61 316.14C148.547 316.076 148.452 316.193 148.515 316.256C150.156 317.844 151.638 319.548 153.426 320.977C155.152 322.353 157.004 323.56 159.015 324.417C160.899 325.221 163.069 325.931 165.101 325.475C167.028 325.031 168.065 323.433 168.118 321.464C168.16 318.871 167.334 316.076 166.287 313.727Z" fill="#263238"/>
</svg>
