<svg width="411" height="388" viewBox="0 0 411 388" fill="none" xmlns="http://www.w3.org/2000/svg">
<path d="M122.822 -125.322C132.585 -135.085 148.415 -135.085 158.178 -125.322L393.322 109.822C403.085 119.585 403.085 135.415 393.322 145.178L158.178 380.322C148.415 390.085 132.585 390.085 122.822 380.322L-112.322 145.178C-122.085 135.415 -122.085 119.585 -112.322 109.822L122.822 -125.322Z" fill="url(#paint0_linear)"/>
<g clip-path="url(#clip0)">
<g style="mix-blend-mode:screen" opacity="0.1">
<path d="M358.429 125.071C362.334 121.166 368.666 121.166 372.571 125.071L421.929 174.429C425.834 178.334 425.834 184.666 421.929 188.571L372.571 237.929C368.666 241.834 362.334 241.834 358.429 237.929L309.071 188.571C305.166 184.666 305.166 178.334 309.071 174.429L358.429 125.071Z" fill="white"/>
</g>
</g>
<g clip-path="url(#clip1)">
<g style="mix-blend-mode:screen" opacity="0.1">
<path d="M192.519 304.1C202.282 294.336 218.111 294.336 227.874 304.1L337.519 413.744C347.282 423.507 347.282 439.336 337.519 449.1L227.874 558.744C218.111 568.507 202.282 568.507 192.519 558.744L82.8744 449.1C73.1113 439.336 73.1113 423.507 82.8744 413.744L192.519 304.1Z" fill="white"/>
</g>
</g>
<g style="mix-blend-mode:screen" opacity="0.1">
<path d="M1.92894 -6.92894C5.83418 -10.8342 12.1658 -10.8342 16.0711 -6.92893L46.9289 23.9289C50.8342 27.8342 50.8342 34.1658 46.9289 38.0711L16.0711 68.9289C12.1658 72.8342 5.83418 72.8342 1.92893 68.9289L-28.9289 38.0711C-32.8342 34.1658 -32.8342 27.8342 -28.9289 23.9289L1.92894 -6.92894Z" fill="white"/>
</g>
<defs>
<linearGradient id="paint0_linear" x1="298.559" y1="21.4699" x2="140.5" y2="398" gradientUnits="userSpaceOnUse">
<stop stop-color="#007AFF"/>
<stop offset="1" stop-color="#005ABC"/>
</linearGradient>
<clipPath id="clip0">
<rect width="107" height="102" fill="white" transform="translate(302 115)"/>
</clipPath>
<clipPath id="clip1">
<rect width="164" height="93" fill="white" transform="translate(72 295)"/>
</clipPath>
</defs>
</svg>
