<svg width="765" height="799" viewBox="0 0 765 799" fill="none" xmlns="http://www.w3.org/2000/svg">
<path d="M198.822 -280.322C208.585 -290.085 224.415 -290.085 234.178 -280.322L747.322 232.822C757.085 242.585 757.085 258.415 747.322 268.178L234.178 781.322C224.415 791.085 208.585 791.085 198.822 781.322L-314.322 268.178C-324.085 258.415 -324.085 242.585 -314.322 232.822L198.822 -280.322Z" fill="url(#paint0_linear)"/>
<g style="mix-blend-mode:screen" opacity="0.1">
<path d="M1.32233 -5.32234C11.0854 -15.0854 26.9146 -15.0854 36.6777 -5.32233L146.322 104.322C156.085 114.085 156.085 129.915 146.322 139.678L36.6777 249.322C26.9146 259.085 11.0854 259.085 1.32233 249.322L-108.322 139.678C-118.085 129.915 -118.085 114.085 -108.322 104.322L1.32233 -5.32234Z" fill="white"/>
</g>
<g clip-path="url(#clip0)">
<g style="mix-blend-mode:screen" opacity="0.1">
<path d="M633.322 282.678C643.085 272.915 658.915 272.915 668.678 282.678L778.322 392.322C788.085 402.085 788.085 417.915 778.322 427.678L668.678 537.322C658.915 547.085 643.085 547.085 633.322 537.322L523.678 427.678C513.915 417.915 513.915 402.085 523.678 392.322L633.322 282.678Z" fill="white"/>
</g>
</g>
<g clip-path="url(#clip1)">
<g style="mix-blend-mode:screen" opacity="0.1">
<path d="M198.322 599.678C208.085 589.915 223.915 589.915 233.678 599.678L343.322 709.322C353.085 719.085 353.085 734.915 343.322 744.678L233.678 854.322C223.915 864.085 208.085 864.085 198.322 854.322L88.6777 744.678C78.9146 734.915 78.9146 719.085 88.6777 709.322L198.322 599.678Z" fill="white"/>
</g>
</g>
<defs>
<linearGradient id="paint0_linear" x1="537" y1="35.5" x2="216.5" y2="799" gradientUnits="userSpaceOnUse">
<stop stop-color="#007AFF"/>
<stop offset="1" stop-color="#005ABC"/>
</linearGradient>
<clipPath id="clip0">
<rect width="190" height="187" fill="white" transform="translate(513 274)"/>
</clipPath>
<clipPath id="clip1">
<rect width="271" height="198" fill="white" transform="translate(78 591)"/>
</clipPath>
</defs>
</svg>
