<svg width="433" height="457" viewBox="0 0 433 457" fill="none" xmlns="http://www.w3.org/2000/svg">
<g clip-path="url(#clip0)">
<path d="M113.322 -122.322C123.085 -132.085 138.915 -132.085 148.678 -122.322L417.322 146.322C427.085 156.085 427.085 171.915 417.322 181.678L148.678 450.322C138.915 460.085 123.085 460.085 113.322 450.322L-155.322 181.678C-165.085 171.915 -165.085 156.085 -155.322 146.322L113.322 -122.322Z" fill="url(#paint0_linear)"/>
<g clip-path="url(#clip1)">
<g style="mix-blend-mode:screen" opacity="0.1">
<path d="M368.93 160.022C372.835 156.117 379.167 156.117 383.072 160.022L432.43 209.38C436.335 213.285 436.335 219.617 432.43 223.522L383.072 272.88C379.167 276.785 372.835 276.785 368.93 272.88L319.572 223.522C315.667 219.617 315.667 213.285 319.572 209.38L368.93 160.022Z" fill="white"/>
</g>
</g>
<g clip-path="url(#clip2)">
<g style="mix-blend-mode:screen" opacity="0.1">
<path d="M174.536 361.344C184.299 351.581 200.128 351.581 209.891 361.344L319.536 470.988C329.299 480.751 329.299 496.581 319.536 506.344L209.891 615.988C200.128 625.751 184.299 625.751 174.536 615.988L64.891 506.344C55.1279 496.581 55.1279 480.751 64.891 470.988L174.536 361.344Z" fill="white"/>
</g>
</g>
<g style="mix-blend-mode:screen" opacity="0.1">
<path d="M0.928932 -33.9289C4.83418 -37.8342 11.1658 -37.8342 15.0711 -33.9289L94.9289 45.9289C98.8342 49.8342 98.8342 56.1658 94.9289 60.0711L15.0711 139.929C11.1658 143.834 4.83418 143.834 0.928932 139.929L-78.9289 60.0711C-82.8342 56.1658 -82.8342 49.8342 -78.9289 45.9289L0.928932 -33.9289Z" fill="white"/>
</g>
</g>
<defs>
<linearGradient id="paint0_linear" x1="308.634" y1="44.8386" x2="131" y2="468" gradientUnits="userSpaceOnUse">
<stop stop-color="#007AFF"/>
<stop offset="1" stop-color="#005ABC"/>
</linearGradient>
<clipPath id="clip0">
<rect width="433" height="457" fill="white"/>
</clipPath>
<clipPath id="clip1">
<rect width="120.251" height="114.632" fill="white" transform="translate(312.501 149.951)"/>
</clipPath>
<clipPath id="clip2">
<rect width="184.311" height="104.518" fill="white" transform="translate(54.0166 352.244)"/>
</clipPath>
</defs>
</svg>
