<svg width="564" height="836" viewBox="0 0 564 836" fill="none" xmlns="http://www.w3.org/2000/svg">
<path d="M-39.992 0.600082C-42.2015 0.600082 -44.0092 0.600082 -45.4153 0.600082C-130.581 0.600082 -159.907 31.8186 -190.639 58.1526C-214.943 79.1774 -264.757 143.738 -295.288 184.301H142.391H178.747C186.983 184.301 194.816 186 201.846 188.973C172.721 76.6289 88.3591 0.600082 -39.992 0.600082Z" fill="#0069DB"/>
<path d="M-39.992 0.600082C-42.2015 0.600082 -44.0092 0.600082 -45.4153 0.600082C-130.581 0.600082 -159.907 31.8186 -190.639 58.1526C-214.943 79.1774 -264.757 143.738 -295.288 184.301H142.391H178.747C186.983 184.301 194.816 186 201.846 188.973C172.721 76.6289 88.3591 0.600082 -39.992 0.600082Z" fill="#0069DB"/>
<path d="M415.562 341.455C414.96 341.455 485.061 315.333 485.061 189.397C485.061 108.059 413.152 0.599609 266.322 0.599609H67.8696C67.8696 0.599609 208.473 40.7377 241.013 201.078C242.419 208.298 250.654 250.348 234.385 281.142C228.961 291.548 220.726 300.468 208.473 306.626C199.635 311.936 189.391 314.909 178.545 314.909H-269.78C-298.303 317.457 -321 344.641 -321 378.195V772.356C-321 807.397 -296.294 835.855 -265.763 835.855H359.12C469.996 835.855 564 721.387 564 588.23C564.201 385.204 432.435 344.853 415.562 341.455ZM318.345 590.142C311.114 617.537 287.211 637.713 259.091 637.713H-64.4987C-98.6453 637.713 -126.163 608.405 -126.163 572.515C-126.163 536.624 -98.4445 507.317 -64.4987 507.317H259.091C290.023 507.317 315.332 531.315 319.952 562.533C320.755 566.144 321.157 569.966 321.157 573.789C321.358 579.523 320.354 584.832 318.345 590.142Z" fill="#0069DB"/>
</svg>
