<svg width="47" height="48" viewBox="0 0 47 48" fill="none" xmlns="http://www.w3.org/2000/svg">
<path d="M40.4434 47.3754C40.3839 47.3754 40.3235 47.3691 40.2648 47.3571C40.2062 47.3462 40.1487 47.3279 40.0937 47.305C40.0377 47.2821 39.985 47.2538 39.9352 47.2206C39.8849 47.1877 39.8383 47.1494 39.7962 47.107C39.7539 47.065 39.7155 47.0183 39.6826 46.968C39.6497 46.9188 39.6211 46.8656 39.5982 46.8095C39.5753 46.7546 39.557 46.6971 39.5461 46.6384C39.5341 46.5798 39.5278 46.5194 39.5278 46.4599C39.5278 46.4004 39.5341 46.34 39.5461 46.2813C39.557 46.2227 39.5753 46.1652 39.5982 46.1103C39.6211 46.0542 39.6497 46.0015 39.6826 45.952C39.7155 45.9017 39.7539 45.8548 39.7962 45.8127C39.8383 45.7707 39.8849 45.732 39.9352 45.6991C39.985 45.6662 40.0377 45.6376 40.0937 45.6147C40.1487 45.5918 40.2062 45.5735 40.2648 45.5629C40.383 45.5389 40.5037 45.5389 40.6219 45.5629C40.6805 45.5735 40.738 45.5918 40.7938 45.6147C40.8491 45.6376 40.9023 45.6662 40.9515 45.6991C41.0018 45.732 41.0485 45.7707 41.0905 45.8127C41.1329 45.8548 41.1712 45.9017 41.2041 45.952C41.2382 46.0015 41.2656 46.0542 41.2885 46.1103C41.3114 46.1652 41.3297 46.2227 41.3414 46.2813C41.3535 46.34 41.3589 46.4004 41.3589 46.4599C41.3589 46.5194 41.3535 46.58 41.3414 46.6384C41.3297 46.6971 41.3114 46.7548 41.2885 46.8095C41.2656 46.8656 41.2382 46.9188 41.2041 46.968C41.1712 47.0183 41.1329 47.065 41.0905 47.107C41.0485 47.1494 41.0018 47.1877 40.9515 47.2206C40.9023 47.2538 40.8491 47.2821 40.7938 47.305C40.738 47.3279 40.6805 47.3462 40.6219 47.3571C40.5632 47.3691 40.5029 47.3754 40.4434 47.3754Z" fill="#0069DB"/>
<path d="M39.5187 32.2396C42.1669 32.2396 44.4454 30.2592 44.8185 27.6334C44.9804 26.4987 45.1215 25.1208 45.2396 23.5341C46.2244 22.8815 46.875 21.7628 46.875 20.4954V18.2255C46.875 17.118 46.3778 16.124 45.5956 15.4551C45.6116 14.6312 45.6156 14.1239 45.6156 14.1125C45.6156 10.2647 44.0907 6.76564 41.3206 4.25967C38.641 1.83553 34.9986 0.5 31.065 0.5H29.9915C26.0576 0.5 22.4155 1.83553 19.7356 4.25967C16.9662 6.76535 15.4409 10.2647 15.4409 14.119C15.4409 14.1245 15.4449 14.632 15.4587 15.4571C14.6773 16.1258 14.1815 17.1185 14.1815 18.2255V20.4954C14.1815 21.7351 14.8041 22.8326 15.7531 23.4909C15.8069 24.3804 15.8669 25.2044 15.9319 25.9568C14.4985 25.291 12.9026 24.9191 11.2209 24.9191C5.03368 24.9191 0 29.9528 0 36.14C0 42.3276 5.03368 47.361 11.2209 47.361C12.6068 47.361 13.9349 47.1086 15.1617 46.6469C15.2481 47.0629 15.6166 47.375 16.0583 47.375H35.998C36.5038 47.375 36.9135 46.9653 36.9135 46.4595C36.9135 45.9536 36.5038 45.5439 35.998 45.5439H17.3372C20.408 43.5398 22.4419 40.0731 22.4419 36.14C22.4419 36.0362 22.4404 35.9323 22.4376 35.8285H24.0257L25.7578 39.2998V39.3C25.9449 39.6748 26.2854 39.9481 26.6919 40.0496C26.8066 40.0782 26.9237 40.0926 27.0395 40.0926C27.3339 40.0926 27.6237 40.0019 27.8687 39.8276C27.9127 39.7962 27.9539 39.7612 27.992 39.722L29.0863 41.0888C29.3887 41.5969 29.932 41.9076 30.5297 41.9076H30.5305C31.1282 41.9073 31.6718 41.5957 31.9742 41.087L33.0651 39.7229C33.1032 39.7615 33.1444 39.7964 33.1882 39.8276C33.4328 40.0019 33.7229 40.0926 34.017 40.0926C34.1331 40.0926 34.2496 40.0782 34.3643 40.0496C34.7706 39.9481 35.1116 39.6748 35.2987 39.3C35.2987 39.3 35.2987 39.3 35.299 39.2998L37.0308 35.8285H39.8598C42.1884 35.8285 44.0829 37.7231 44.0829 40.0514V46.4595C44.0829 46.9653 44.4929 47.375 44.9985 47.375C45.504 47.375 45.914 46.9653 45.914 46.4595V40.0514C45.914 36.7134 43.1983 33.9974 39.8598 33.9974H37.8433C37.8453 33.8813 37.825 33.7645 37.7821 33.6535C37.6888 33.4135 37.4991 33.2232 37.2588 33.1303L34.9554 32.2385L39.5176 32.2396H39.5187ZM45.0439 18.2255V20.4954C45.0439 21.4945 44.2311 22.3073 43.2323 22.3073C42.3431 22.3073 41.6018 21.6641 41.4491 20.8187L41.4408 20.2577C41.4402 20.195 41.433 20.1338 41.4202 20.0748V18.2255C41.4202 17.2261 42.233 16.4133 43.2323 16.4133C44.2311 16.4133 45.0439 17.2261 45.0439 18.2255ZM29.9915 2.33105H31.065C38.3162 2.33105 43.7848 7.39564 43.7848 14.1056C43.7848 14.1087 43.7834 14.2947 43.7788 14.6234C43.6003 14.5963 43.4177 14.5822 43.2323 14.5822C42.6661 14.5822 42.1297 14.7121 41.6511 14.9436C41.6511 14.3156 41.6508 13.8584 41.6502 13.8341C41.6064 11.589 40.6878 9.48676 39.0641 7.91549C37.4482 6.35194 35.3199 5.49105 33.0709 5.49105H33.068L27.9819 5.49249C25.7638 5.49306 23.6572 6.33477 22.0499 7.8617C20.4357 9.39549 19.4984 11.4589 19.4115 13.6707C19.4095 13.7222 19.4077 14.2469 19.4066 14.9442C18.928 14.7124 18.3909 14.5822 17.8245 14.5822C17.6385 14.5822 17.4557 14.5963 17.2777 14.6234C17.2734 14.2961 17.272 14.1122 17.272 14.1122C17.272 7.39564 22.74 2.33105 29.9915 2.33105ZM20.8351 30.3591C20.0718 29.0948 19.0664 27.9921 17.884 27.1167C17.7898 26.2549 17.7043 25.2553 17.6291 24.1332C17.6937 24.1366 17.7587 24.1383 17.8245 24.1383C18.4582 24.1383 19.055 23.9753 19.5748 23.6897L19.5551 24.4605C19.5548 24.4682 19.5548 24.4759 19.5548 24.484C19.5548 26.909 20.8546 28.946 23.3225 30.4046L21.4002 30.404C21.2082 30.404 21.0194 30.3888 20.8351 30.3591ZM39.8203 16.0193H38.8412C35.3511 16.0193 28.0821 13.4816 26.8381 11.4766C26.671 11.2074 26.3769 11.0434 26.0605 11.0434C25.7435 11.0434 25.4491 11.2074 25.2823 11.4766L25.2686 11.4989C24.2672 13.1125 22.8793 14.4555 21.2374 15.4028C21.2385 14.5711 21.2397 13.8355 21.2414 13.7362C21.3864 10.1411 24.3462 7.32497 27.9825 7.32383L33.0688 7.32211H33.0706C36.7212 7.32211 39.7485 10.2592 39.8194 13.8621C39.8197 13.9251 39.82 14.9897 39.8203 16.0193ZM16.0126 18.2255C16.0126 17.2261 16.8254 16.4133 17.8245 16.4133C18.8232 16.4133 19.6363 17.2261 19.6363 18.2255V20.4954C19.6363 21.4945 18.8238 22.3073 17.8245 22.3073C16.8254 22.3073 16.0126 21.4945 16.0126 20.4954V18.2255ZM11.2209 45.5299C6.04305 45.5299 1.83105 41.3179 1.83105 36.14C1.83105 30.9627 6.04305 26.7502 11.2209 26.7502C16.3982 26.7502 20.6108 30.9627 20.6108 36.14C20.6108 41.3179 16.3988 45.5299 11.2209 45.5299ZM23.7977 33.1303C23.5577 33.2232 23.3674 33.4135 23.2744 33.6535C23.2318 33.7645 23.2112 33.8813 23.2129 33.9974H22.2364C22.1189 33.3915 21.9523 32.8027 21.7412 32.2356L26.1063 32.2362L23.7977 33.1303ZM27.1122 37.913L25.3967 34.4746L27.1179 33.8083L29.2113 35.3518L27.1122 37.913ZM30.5297 39.9618L29.1807 38.2775L30.5283 36.6336L31.8761 38.2781L30.5297 39.9618ZM35.6601 34.4749L33.9446 37.913L31.8449 35.3518L33.4757 34.1499C33.4857 34.1425 33.4963 34.1348 33.506 34.1273L33.9386 33.8083L35.6601 34.4749ZM32.2701 30.4194C32.0117 30.4566 31.7814 30.6023 31.6369 30.82C31.4924 31.0374 31.4481 31.3064 31.5145 31.559L31.903 33.0341L30.5283 34.0478L29.1535 33.0341L29.5418 31.5593C29.6084 31.3069 29.5641 31.038 29.4196 30.82C29.2754 30.6025 29.0448 30.4566 28.7862 30.42C28.7121 30.4091 21.3976 29.3065 21.3859 24.4954L21.4674 18.2255C21.4674 17.9454 21.4359 17.673 21.3753 17.4109L21.7478 17.213C23.4798 16.2923 24.987 14.9994 26.1598 13.4364C28.874 15.8231 35.4647 17.8504 38.8412 17.8504H39.6083C39.5954 17.9737 39.5891 18.0987 39.5891 18.2258V21.9439C39.5891 24.3747 37.6113 26.3519 35.1809 26.3519H30.764C30.2582 26.3519 29.8485 26.7616 29.8485 27.2674C29.8485 27.773 30.2582 28.183 30.764 28.183H35.1809C36.5816 28.183 37.8759 27.7192 38.9185 26.937C37.0474 29.7002 32.3293 30.4114 32.2701 30.4194ZM41.5017 24.484C41.5017 24.4797 41.5017 24.4751 41.5017 24.4708L41.4906 23.6946C42.0084 23.9776 42.6018 24.1383 43.2323 24.1383C43.2733 24.1383 43.3147 24.1378 43.3557 24.1363C43.2535 25.3732 43.1362 26.4592 43.0063 27.3753C42.7603 29.1045 41.2611 30.4086 39.5187 30.4086H39.5179L37.7472 30.408C39.7222 29.2447 41.5017 27.3902 41.5017 24.484Z" fill="#0069DB"/>
<path d="M6.23457 32.1367C7.34922 32.1367 8.47361 32.838 8.47361 34.1254C8.47361 36.2108 5.50415 36.8929 5.50415 37.7672V37.8539H8.02185C8.26189 37.8539 8.47361 38.1517 8.47361 38.4976C8.47361 38.8432 8.26189 39.1605 8.02185 39.1605H4.60093C4.33199 39.1605 3.94775 38.9777 3.94775 38.699V37.7672C3.94775 36.2583 6.97443 35.3937 6.97443 34.1735C6.97443 33.8662 6.78217 33.4914 6.24401 33.4914C5.85978 33.4914 5.52332 33.6834 5.52332 34.2121C5.52332 34.4905 5.22549 34.7594 4.73539 34.7594C4.35116 34.7594 4.06305 34.5869 4.06305 33.9812C4.06305 32.8093 5.13937 32.1367 6.23457 32.1367Z" fill="#0069DB"/>
<path d="M11.2309 37.6805H8.98244C8.70378 37.6805 8.48291 37.4983 8.48291 37.1618C8.48291 37.0851 8.50237 36.9793 8.55987 36.8734L10.7792 32.5212C10.9234 32.2423 11.1637 32.1367 11.404 32.1367C11.6632 32.1367 12.1533 32.3579 12.1533 32.7035C12.1533 32.7613 12.1339 32.8188 12.1053 32.8863L10.4049 36.2969H11.2309V35.6246C11.2309 35.3076 11.6057 35.1731 11.9805 35.1731C12.3553 35.1731 12.7301 35.3076 12.7301 35.6246V36.2969H13.1432C13.4502 36.2969 13.6044 36.6431 13.6044 36.989C13.6044 37.3349 13.3738 37.6811 13.1432 37.6811H12.7301V38.699C12.7301 39.0069 12.3553 39.1605 11.9805 39.1605C11.6057 39.1605 11.2309 39.0069 11.2309 38.699V37.6805Z" fill="#0069DB"/>
<path d="M15.5063 38.6983C15.5063 38.9292 15.1604 39.1598 14.7567 39.1598C14.3244 39.1598 14.0166 38.9292 14.0166 38.6983V32.4241C14.0166 32.1552 14.3244 31.9727 14.7567 31.9727C15.1604 31.9727 15.5063 32.1552 15.5063 32.4241V35.2588C15.6789 34.884 16.102 34.5287 16.6974 34.5287C17.572 34.5287 18.331 35.4414 18.331 36.5463V38.6983C18.331 39.0062 17.9562 39.1598 17.5814 39.1598C17.2358 39.1598 16.8416 39.0062 16.8416 38.6983V36.5463C16.8416 36.1812 16.5249 35.8256 16.1501 35.8256C15.8328 35.8256 15.5061 36.0945 15.5061 36.5463V38.6983H15.5063Z" fill="#0069DB"/>
<path d="M35.5518 22.9012C35.0462 22.9012 34.6362 22.4915 34.6362 21.9857V19.5366C34.6362 19.0308 35.0462 18.6211 35.5518 18.6211C36.0576 18.6211 36.4673 19.0308 36.4673 19.5366V21.9857C36.4673 22.4915 36.0576 22.9012 35.5518 22.9012Z" fill="#0069DB"/>
<path d="M25.5059 22.9012C25 22.9012 24.5903 22.4915 24.5903 21.9857V19.5366C24.5903 19.0308 25 18.6211 25.5059 18.6211C26.0117 18.6211 26.4214 19.0308 26.4214 19.5366V21.9857C26.4214 22.4915 26.0117 22.9012 25.5059 22.9012Z" fill="#0069DB"/>
</svg>
