<svg width="50" height="46" viewBox="0 0 50 46" fill="none" xmlns="http://www.w3.org/2000/svg">
<path d="M11.1457 12.283C11.2996 12.6588 11.6899 12.9064 12.0958 12.8852C12.4983 12.8642 12.8531 12.5918 12.9767 12.2084C13.1018 11.8202 12.9655 11.3842 12.6423 11.1353C12.3152 10.8833 11.8493 10.8686 11.506 11.0976C11.1237 11.3526 10.9686 11.8583 11.1457 12.283Z" fill="#0069DB"/>
<path d="M39.9738 15.7554C43.1329 15.7554 45.703 13.1853 45.703 10.0262C45.703 6.86709 43.1329 4.29688 39.9738 4.29688C36.8147 4.29688 34.2446 6.86699 34.2446 10.0262C34.2446 13.1854 36.8147 15.7554 39.9738 15.7554ZM39.9738 6.25C42.056 6.25 43.7499 7.94395 43.7499 10.0262C43.7499 12.1083 42.056 13.8023 39.9738 13.8023C37.8917 13.8023 36.1978 12.1083 36.1978 10.0262C36.1978 7.94405 37.8917 6.25 39.9738 6.25Z" fill="#0069DB"/>
<path d="M39.9739 25.9115C35.6232 25.9115 31.9109 28.6971 30.5268 32.5783L23.065 27.8615C23.7416 26.3326 24.0952 24.6674 24.0952 22.9813C24.0952 21.2003 23.7034 19.4826 22.9856 17.9287L30.4632 13.2015C31.7943 17.1783 35.5548 20.0521 39.9739 20.0521C45.5023 20.0521 50 15.5545 50 10.0261C50 4.49766 45.5023 0 39.9739 0C34.4455 0 29.9478 4.49766 29.9478 10.0261C29.9478 10.4146 29.9701 10.798 30.0133 11.1751L22.0243 16.2257C20.7691 14.3712 18.9966 12.8643 16.8552 11.9313C16.3607 11.7159 15.7852 11.9422 15.5698 12.4366C15.3544 12.9312 15.5807 13.5065 16.0751 13.722C19.7606 15.3274 22.142 18.9619 22.142 22.9813C22.142 25.9024 20.9151 28.6035 18.7898 30.4995V27.1459C18.7898 25.5526 17.5975 24.2325 16.0582 24.0312C16.7672 23.1493 17.1918 22.0299 17.1918 20.813C17.1918 17.9765 14.8841 15.6687 12.0475 15.6687C9.21084 15.6687 6.90313 17.9764 6.90313 20.813C6.90313 22.0299 7.32783 23.1494 8.03672 24.0312C6.49746 24.2326 5.30508 25.5526 5.30508 27.1459V30.4996C3.17998 28.6035 1.95312 25.9024 1.95312 22.9813C1.95312 18.9684 4.3293 15.3361 8.00664 13.7278C8.50078 13.5117 8.72617 12.9359 8.51006 12.4418C8.29404 11.9477 7.71826 11.7222 7.22393 11.9384C2.83555 13.8577 0 18.1923 0 22.9813C0 25.0829 0.549316 27.1521 1.58867 28.9653C2.59551 30.7219 4.04082 32.2087 5.76846 33.2652C5.76973 33.266 5.771 33.2668 5.77227 33.2676C7.65703 34.4204 9.82705 35.0298 12.0477 35.0298C14.2684 35.0298 16.4383 34.4204 18.323 33.2676C18.3243 33.2668 18.3256 33.266 18.3269 33.2652C19.849 32.3344 21.152 31.0694 22.1289 29.5804L30.0394 34.5809C29.9791 35.0246 29.9478 35.4775 29.9478 35.9376C29.9478 41.466 34.4455 45.9637 39.9739 45.9637C45.5023 45.9637 50 41.466 50 35.9376C50 30.4092 45.5023 25.9115 39.9739 25.9115ZM39.9739 1.95312C44.4253 1.95312 48.0469 5.57471 48.0469 10.0261C48.0469 14.4774 44.4253 18.099 39.9739 18.099C35.5226 18.099 31.901 14.4774 31.901 10.0261C31.901 5.57471 35.5225 1.95312 39.9739 1.95312ZM12.0476 17.6218C13.8072 17.6218 15.2388 19.0533 15.2388 20.813C15.2388 22.5727 13.8072 24.0042 12.0476 24.0042C10.2879 24.0042 8.85635 22.5727 8.85635 20.813C8.85635 19.0533 10.2879 17.6218 12.0476 17.6218ZM7.2584 31.8701V27.1459C7.2584 26.4907 7.7915 25.9576 8.44668 25.9576H15.6485C16.3038 25.9576 16.8368 26.4906 16.8368 27.1459V31.8702C15.3721 32.6611 13.7275 33.0769 12.0476 33.0769C10.3677 33.0768 8.72314 32.661 7.2584 31.8701ZM39.9739 44.0106C35.5225 44.0106 31.901 40.389 31.901 35.9376C31.901 31.4862 35.5225 27.8646 39.9739 27.8646C44.4254 27.8646 48.0469 31.4862 48.0469 35.9376C48.0469 40.389 44.4253 44.0106 39.9739 44.0106Z" fill="#0069DB"/>
<path d="M39.9738 30.209C36.8147 30.209 34.2446 32.7791 34.2446 35.9382C34.2446 39.0973 36.8147 41.6675 39.9738 41.6675C43.1329 41.6675 45.703 39.0973 45.703 35.9382C45.703 32.7791 43.1329 30.209 39.9738 30.209ZM39.9738 39.7144C37.8917 39.7144 36.1978 38.0204 36.1978 35.9382C36.1978 33.8561 37.8917 32.1621 39.9738 32.1621C42.056 32.1621 43.7499 33.8561 43.7499 35.9382C43.7499 38.0203 42.056 39.7144 39.9738 39.7144Z" fill="#0069DB"/>
</svg>
