<svg width="155" height="48" viewBox="0 0 155 48" fill="none" xmlns="http://www.w3.org/2000/svg">
<rect width="155" height="48" rx="10" fill="#002A58"/>
<path d="M51.5002 20H52.2402V13.64H54.7002V13H49.0402V13.64H51.5002V20ZM57.2194 12.49C57.5394 12.49 57.7694 12.7 57.7694 12.98C57.7694 13.28 57.5794 13.51 57.1794 13.69L57.4294 14C57.9694 13.75 58.2294 13.4 58.2294 12.93C58.2294 12.4 57.8394 12.07 57.2794 12.07C56.9894 12.07 56.6694 12.16 56.4494 12.33L56.6194 12.68C56.8194 12.55 57.0094 12.49 57.2194 12.49ZM57.2794 14.7C56.4494 14.7 55.6694 14.96 55.1394 15.41L55.4594 15.94C55.8894 15.56 56.5294 15.32 57.2094 15.32C58.1894 15.32 58.6994 15.81 58.6994 16.71V17.03H57.0294C55.5194 17.03 54.9994 17.71 54.9994 18.52C54.9994 19.43 55.7294 20.05 56.9194 20.05C57.7894 20.05 58.4094 19.72 58.7294 19.18V20H59.4094V16.74C59.4094 15.38 58.6394 14.7 57.2794 14.7ZM57.0294 19.49C56.1894 19.49 55.6994 19.11 55.6994 18.5C55.6994 17.96 56.0294 17.56 57.0494 17.56H58.6994V18.42C58.4194 19.11 57.8294 19.49 57.0294 19.49ZM61.6979 13.59C61.9979 13.59 62.2179 13.36 62.2179 13.07C62.2179 12.8 61.9879 12.58 61.6979 12.58C61.4079 12.58 61.1779 12.81 61.1779 13.08C61.1779 13.36 61.4079 13.59 61.6979 13.59ZM61.3379 20H62.0479V14.74H61.3379V20ZM68.4806 14.7C67.6506 14.7 66.8706 14.96 66.3406 15.41L66.6606 15.94C67.0906 15.56 67.7306 15.32 68.4106 15.32C69.3906 15.32 69.9006 15.81 69.9006 16.71V17.03H68.2306C66.7206 17.03 66.2006 17.71 66.2006 18.52C66.2006 19.43 66.9306 20.05 68.1206 20.05C68.9906 20.05 69.6106 19.72 69.9306 19.18V20H70.6106V16.74C70.6106 15.38 69.8406 14.7 68.4806 14.7ZM68.2306 19.49C67.3906 19.49 66.9006 19.11 66.9006 18.5C66.9006 17.96 67.2306 17.56 68.2506 17.56H69.9006V18.42C69.6206 19.11 69.0306 19.49 68.2306 19.49ZM75.249 14.7C74.379 14.7 73.649 15.08 73.219 15.78V14.74H72.539V21.94H73.249V19.01C73.689 19.69 74.409 20.05 75.249 20.05C76.749 20.05 77.869 18.97 77.869 17.37C77.869 15.78 76.749 14.7 75.249 14.7ZM75.199 19.42C74.079 19.42 73.239 18.6 73.239 17.37C73.239 16.15 74.079 15.32 75.199 15.32C76.309 15.32 77.159 16.15 77.159 17.37C77.159 18.6 76.309 19.42 75.199 19.42ZM82.0264 14.7C81.1564 14.7 80.4264 15.08 79.9964 15.78V14.74H79.3164V21.94H80.0264V19.01C80.4664 19.69 81.1864 20.05 82.0264 20.05C83.5264 20.05 84.6464 18.97 84.6464 17.37C84.6464 15.78 83.5264 14.7 82.0264 14.7ZM81.9764 19.42C80.8564 19.42 80.0164 18.6 80.0164 17.37C80.0164 16.15 80.8564 15.32 81.9764 15.32C83.0864 15.32 83.9364 16.15 83.9364 17.37C83.9364 18.6 83.0864 19.42 81.9764 19.42ZM91.2309 19.17C91.0309 19.35 90.7409 19.44 90.4509 19.44C89.8609 19.44 89.5409 19.1 89.5409 18.48V15.34H91.1409V14.74H89.5409V13.59H88.8309V14.74H87.8909V15.34H88.8309V18.52C88.8309 19.49 89.3809 20.05 90.3709 20.05C90.7809 20.05 91.2009 19.93 91.4809 19.68L91.2309 19.17ZM94.6134 14.7C93.7834 14.7 93.0034 14.96 92.4734 15.41L92.7934 15.94C93.2234 15.56 93.8634 15.32 94.5434 15.32C95.5234 15.32 96.0334 15.81 96.0334 16.71V17.03H94.3634C92.8534 17.03 92.3334 17.71 92.3334 18.52C92.3334 19.43 93.0634 20.05 94.2534 20.05C95.1234 20.05 95.7434 19.72 96.0634 19.18V20H96.7434V16.74C96.7434 15.38 95.9734 14.7 94.6134 14.7ZM94.3634 19.49C93.5234 19.49 93.0334 19.11 93.0334 18.5C93.0334 17.96 93.3634 17.56 94.3834 17.56H96.0334V18.42C95.7534 19.11 95.1634 19.49 94.3634 19.49ZM94.6534 21.04C94.4134 21.04 94.2234 21.22 94.2234 21.47C94.2234 21.72 94.4134 21.9 94.6534 21.9C94.8934 21.9 95.0834 21.72 95.0834 21.47C95.0834 21.22 94.8934 21.04 94.6534 21.04ZM99.0318 13.59C99.3318 13.59 99.5518 13.36 99.5518 13.07C99.5518 12.8 99.3218 12.58 99.0318 12.58C98.7418 12.58 98.5118 12.81 98.5118 13.08C98.5118 13.36 98.7418 13.59 99.0318 13.59ZM98.6718 20H99.3818V14.74H98.6718V20Z" fill="white"/>
<path d="M55.8642 36.32C55.3242 36.632 54.7362 36.752 54.1362 36.752C52.3602 36.752 51.1002 35.504 51.1002 33.8C51.1002 32.06 52.3602 30.848 54.1482 30.848C55.0482 30.848 55.8042 31.148 56.4642 31.808L57.4482 30.848C56.6562 29.948 55.4802 29.48 54.0762 29.48C51.4482 29.48 49.5282 31.292 49.5282 33.8C49.5282 36.308 51.4482 38.12 54.0522 38.12C55.2402 38.12 56.4642 37.76 57.3402 37.052V33.704H55.8642V36.32ZM63.3217 38.12C65.9257 38.12 67.8457 36.296 67.8457 33.8C67.8457 31.304 65.9257 29.48 63.3217 29.48C60.7177 29.48 58.7977 31.316 58.7977 33.8C58.7977 36.284 60.7177 38.12 63.3217 38.12ZM63.3217 36.752C61.6297 36.752 60.3697 35.516 60.3697 33.8C60.3697 32.084 61.6297 30.848 63.3217 30.848C65.0137 30.848 66.2737 32.084 66.2737 33.8C66.2737 35.516 65.0137 36.752 63.3217 36.752ZM73.4233 38.12C76.0273 38.12 77.9473 36.296 77.9473 33.8C77.9473 31.304 76.0273 29.48 73.4233 29.48C70.8193 29.48 68.8993 31.316 68.8993 33.8C68.8993 36.284 70.8193 38.12 73.4233 38.12ZM73.4233 36.752C71.7313 36.752 70.4713 35.516 70.4713 33.8C70.4713 32.084 71.7313 30.848 73.4233 30.848C75.1153 30.848 76.3753 32.084 76.3753 33.8C76.3753 35.516 75.1153 36.752 73.4233 36.752ZM85.3369 36.32C84.7969 36.632 84.2089 36.752 83.6089 36.752C81.8329 36.752 80.5729 35.504 80.5729 33.8C80.5729 32.06 81.8329 30.848 83.6209 30.848C84.5209 30.848 85.2769 31.148 85.9369 31.808L86.9209 30.848C86.1289 29.948 84.9529 29.48 83.5489 29.48C80.9209 29.48 79.0009 31.292 79.0009 33.8C79.0009 36.308 80.9209 38.12 83.5249 38.12C84.7129 38.12 85.9369 37.76 86.8129 37.052V33.704H85.3369V36.32ZM88.8704 38H94.8224V36.68H90.4304V29.6H88.8704V38ZM97.614 36.692V34.376H101.67V33.092H97.614V30.908H102.186V29.6H96.054V38H102.354V36.692H97.614ZM110.865 29.6H107.409V38H108.969V35.576H110.865C113.073 35.576 114.441 34.436 114.441 32.588C114.441 30.728 113.073 29.6 110.865 29.6ZM110.793 34.256H108.969V30.92H110.793C112.161 30.92 112.869 31.532 112.869 32.588C112.869 33.644 112.161 34.256 110.793 34.256ZM115.999 38H121.951V36.68H117.559V29.6H115.999V38ZM129.529 38H131.161L127.369 29.6H125.833L122.053 38H123.661L124.489 36.056H128.689L129.529 38ZM125.017 34.832L126.589 31.16L128.173 34.832H125.017ZM138.638 29.6H137.102L134.618 33.692L132.158 29.6H130.49L133.79 35.06V38H135.35V35.036L138.638 29.6Z" fill="white"/>
<g clip-path="url(#clip0_8768_9697)">
<path d="M20.3174 12.3093C19.384 11.7934 18.2881 11.8053 17.3606 12.3167L28.2304 22.344L31.882 18.6925L20.3174 12.3093Z" fill="white"/>
<path d="M16.2736 13.3418C16.0082 13.7757 15.8562 14.2722 15.8562 14.7986V32.9088C15.8562 33.4188 15.9948 33.9048 16.2453 34.3298L27.1762 23.3989L16.2736 13.3418Z" fill="white"/>
<path d="M36.7234 21.3634L33.2403 19.4414L29.3263 23.3539L34.123 27.7779L36.7249 26.342C37.6613 25.8231 38.2219 24.8927 38.2219 23.8519C38.2204 22.8112 37.6613 21.8808 36.7234 21.3634Z" fill="white"/>
<path d="M28.2721 24.4102L17.3114 35.3709C17.7871 35.6422 18.3089 35.7854 18.8338 35.7854C19.3407 35.7854 19.8507 35.6571 20.3174 35.3992L32.7482 28.5389L28.2721 24.4102Z" fill="white"/>
</g>
<defs>
<clipPath id="clip0_8768_9697">
<rect width="23.8581" height="23.8581" fill="white" transform="translate(15.11 11.9277)"/>
</clipPath>
</defs>
</svg>
