<svg width="47" height="47" viewBox="0 0 47 47" fill="none" xmlns="http://www.w3.org/2000/svg">
<path d="M40.4434 46.8754C40.3839 46.8754 40.3235 46.8691 40.2648 46.8571C40.2062 46.8462 40.1487 46.8279 40.0937 46.805C40.0377 46.7821 39.985 46.7538 39.9352 46.7206C39.8849 46.6877 39.8383 46.6494 39.7962 46.607C39.7539 46.565 39.7155 46.5183 39.6826 46.468C39.6497 46.4188 39.6211 46.3656 39.5982 46.3095C39.5753 46.2546 39.557 46.1971 39.5461 46.1384C39.5341 46.0798 39.5278 46.0194 39.5278 45.9599C39.5278 45.9004 39.5341 45.84 39.5461 45.7813C39.557 45.7227 39.5753 45.6652 39.5982 45.6103C39.6211 45.5542 39.6497 45.5015 39.6826 45.452C39.7155 45.4017 39.7539 45.3548 39.7962 45.3127C39.8383 45.2707 39.8849 45.232 39.9352 45.1991C39.985 45.1662 40.0377 45.1376 40.0937 45.1147C40.1487 45.0918 40.2062 45.0735 40.2648 45.0629C40.383 45.0389 40.5037 45.0389 40.6219 45.0629C40.6805 45.0735 40.738 45.0918 40.7938 45.1147C40.8491 45.1376 40.9023 45.1662 40.9515 45.1991C41.0018 45.232 41.0485 45.2707 41.0905 45.3127C41.1329 45.3548 41.1712 45.4017 41.2041 45.452C41.2382 45.5015 41.2656 45.5542 41.2885 45.6103C41.3114 45.6652 41.3297 45.7227 41.3414 45.7813C41.3535 45.84 41.3589 45.9004 41.3589 45.9599C41.3589 46.0194 41.3535 46.08 41.3414 46.1384C41.3297 46.1971 41.3114 46.2548 41.2885 46.3095C41.2656 46.3656 41.2382 46.4188 41.2041 46.468C41.1712 46.5183 41.1329 46.565 41.0905 46.607C41.0485 46.6494 41.0018 46.6877 40.9515 46.7206C40.9023 46.7538 40.8491 46.7821 40.7938 46.805C40.738 46.8279 40.6805 46.8462 40.6219 46.8571C40.5632 46.8691 40.5029 46.8754 40.4434 46.8754Z" fill="#0069DB"/>
<path d="M39.5187 31.7396C42.1669 31.7396 44.4454 29.7592 44.8185 27.1334C44.9804 25.9987 45.1215 24.6208 45.2396 23.0341C46.2244 22.3815 46.875 21.2628 46.875 19.9954V17.7255C46.875 16.618 46.3778 15.624 45.5956 14.9551C45.6116 14.1312 45.6156 13.6239 45.6156 13.6125C45.6156 9.76467 44.0907 6.26564 41.3206 3.75967C38.641 1.33553 34.9986 0 31.065 0H29.9915C26.0576 0 22.4155 1.33553 19.7356 3.75967C16.9662 6.26535 15.4409 9.76467 15.4409 13.619C15.4409 13.6245 15.4449 14.132 15.4587 14.9571C14.6773 15.6258 14.1815 16.6185 14.1815 17.7255V19.9954C14.1815 21.2351 14.8041 22.3326 15.7531 22.9909C15.8069 23.8804 15.8669 24.7044 15.9319 25.4568C14.4985 24.791 12.9026 24.4191 11.2209 24.4191C5.03368 24.4191 0 29.4528 0 35.64C0 41.8276 5.03368 46.861 11.2209 46.861C12.6068 46.861 13.9349 46.6086 15.1617 46.1469C15.2481 46.5629 15.6166 46.875 16.0583 46.875H35.998C36.5038 46.875 36.9135 46.4653 36.9135 45.9595C36.9135 45.4536 36.5038 45.0439 35.998 45.0439H17.3372C20.408 43.0398 22.4419 39.5731 22.4419 35.64C22.4419 35.5362 22.4404 35.4323 22.4376 35.3285H24.0257L25.7578 38.7998V38.8C25.9449 39.1748 26.2854 39.4481 26.6919 39.5496C26.8066 39.5782 26.9237 39.5926 27.0395 39.5926C27.3339 39.5926 27.6237 39.5019 27.8687 39.3276C27.9127 39.2962 27.9539 39.2612 27.992 39.222L29.0863 40.5888C29.3887 41.0969 29.932 41.4076 30.5297 41.4076H30.5305C31.1282 41.4073 31.6718 41.0957 31.9742 40.587L33.0651 39.2229C33.1032 39.2615 33.1444 39.2964 33.1882 39.3276C33.4328 39.5019 33.7229 39.5926 34.017 39.5926C34.1331 39.5926 34.2496 39.5782 34.3643 39.5496C34.7706 39.4481 35.1116 39.1748 35.2987 38.8C35.2987 38.8 35.2987 38.8 35.299 38.7998L37.0308 35.3285H39.8598C42.1884 35.3285 44.0829 37.2231 44.0829 39.5514V45.9595C44.0829 46.4653 44.4929 46.875 44.9985 46.875C45.504 46.875 45.914 46.4653 45.914 45.9595V39.5514C45.914 36.2134 43.1983 33.4974 39.8598 33.4974H37.8433C37.8453 33.3813 37.825 33.2645 37.7821 33.1535C37.6888 32.9135 37.4991 32.7232 37.2588 32.6303L34.9554 31.7385L39.5176 31.7396H39.5187ZM45.0439 17.7255V19.9954C45.0439 20.9945 44.2311 21.8073 43.2323 21.8073C42.3431 21.8073 41.6018 21.1641 41.4491 20.3187L41.4408 19.7577C41.4402 19.695 41.433 19.6338 41.4202 19.5748V17.7255C41.4202 16.7261 42.233 15.9133 43.2323 15.9133C44.2311 15.9133 45.0439 16.7261 45.0439 17.7255ZM29.9915 1.83105H31.065C38.3162 1.83105 43.7848 6.89564 43.7848 13.6056C43.7848 13.6087 43.7834 13.7947 43.7788 14.1234C43.6003 14.0963 43.4177 14.0822 43.2323 14.0822C42.6661 14.0822 42.1297 14.2121 41.6511 14.4436C41.6511 13.8156 41.6508 13.3584 41.6502 13.3341C41.6064 11.089 40.6878 8.98676 39.0641 7.41549C37.4482 5.85194 35.3199 4.99105 33.0709 4.99105H33.068L27.9819 4.99249C25.7638 4.99306 23.6572 5.83477 22.0499 7.3617C20.4357 8.89549 19.4984 10.9589 19.4115 13.1707C19.4095 13.2222 19.4077 13.7469 19.4066 14.4442C18.928 14.2124 18.3909 14.0822 17.8245 14.0822C17.6385 14.0822 17.4557 14.0963 17.2777 14.1234C17.2734 13.7961 17.272 13.6122 17.272 13.6122C17.272 6.89564 22.74 1.83105 29.9915 1.83105ZM20.8351 29.8591C20.0718 28.5948 19.0664 27.4921 17.884 26.6167C17.7898 25.7549 17.7043 24.7553 17.6291 23.6332C17.6937 23.6366 17.7587 23.6383 17.8245 23.6383C18.4582 23.6383 19.055 23.4753 19.5748 23.1897L19.5551 23.9605C19.5548 23.9682 19.5548 23.9759 19.5548 23.984C19.5548 26.409 20.8546 28.446 23.3225 29.9046L21.4002 29.904C21.2082 29.904 21.0194 29.8888 20.8351 29.8591ZM39.8203 15.5193H38.8412C35.3511 15.5193 28.0821 12.9816 26.8381 10.9766C26.671 10.7074 26.3769 10.5434 26.0605 10.5434C25.7435 10.5434 25.4491 10.7074 25.2823 10.9766L25.2686 10.9989C24.2672 12.6125 22.8793 13.9555 21.2374 14.9028C21.2385 14.0711 21.2397 13.3355 21.2414 13.2362C21.3864 9.64108 24.3462 6.82497 27.9825 6.82383L33.0688 6.82211H33.0706C36.7212 6.82211 39.7485 9.75924 39.8194 13.3621C39.8197 13.4251 39.82 14.4897 39.8203 15.5193ZM16.0126 17.7255C16.0126 16.7261 16.8254 15.9133 17.8245 15.9133C18.8232 15.9133 19.6363 16.7261 19.6363 17.7255V19.9954C19.6363 20.9945 18.8238 21.8073 17.8245 21.8073C16.8254 21.8073 16.0126 20.9945 16.0126 19.9954V17.7255ZM11.2209 45.0299C6.04305 45.0299 1.83105 40.8179 1.83105 35.64C1.83105 30.4627 6.04305 26.2502 11.2209 26.2502C16.3982 26.2502 20.6108 30.4627 20.6108 35.64C20.6108 40.8179 16.3988 45.0299 11.2209 45.0299ZM23.7977 32.6303C23.5577 32.7232 23.3674 32.9135 23.2744 33.1535C23.2318 33.2645 23.2112 33.3813 23.2129 33.4974H22.2364C22.1189 32.8915 21.9523 32.3027 21.7412 31.7356L26.1063 31.7362L23.7977 32.6303ZM27.1122 37.413L25.3967 33.9746L27.1179 33.3083L29.2113 34.8518L27.1122 37.413ZM30.5297 39.4618L29.1807 37.7775L30.5283 36.1336L31.8761 37.7781L30.5297 39.4618ZM35.6601 33.9749L33.9446 37.413L31.8449 34.8518L33.4757 33.6499C33.4857 33.6425 33.4963 33.6348 33.506 33.6273L33.9386 33.3083L35.6601 33.9749ZM32.2701 29.9194C32.0117 29.9566 31.7814 30.1023 31.6369 30.32C31.4924 30.5374 31.4481 30.8064 31.5145 31.059L31.903 32.5341L30.5283 33.5478L29.1535 32.5341L29.5418 31.0593C29.6084 30.8069 29.5641 30.538 29.4196 30.32C29.2754 30.1025 29.0448 29.9566 28.7862 29.92C28.7121 29.9091 21.3976 28.8065 21.3859 23.9954L21.4674 17.7255C21.4674 17.4454 21.4359 17.173 21.3753 16.9109L21.7478 16.713C23.4798 15.7923 24.987 14.4994 26.1598 12.9364C28.874 15.3231 35.4647 17.3504 38.8412 17.3504H39.6083C39.5954 17.4737 39.5891 17.5987 39.5891 17.7258V21.4439C39.5891 23.8747 37.6113 25.8519 35.1809 25.8519H30.764C30.2582 25.8519 29.8485 26.2616 29.8485 26.7674C29.8485 27.273 30.2582 27.683 30.764 27.683H35.1809C36.5816 27.683 37.8759 27.2192 38.9185 26.437C37.0474 29.2002 32.3293 29.9114 32.2701 29.9194ZM41.5017 23.984C41.5017 23.9797 41.5017 23.9751 41.5017 23.9708L41.4906 23.1946C42.0084 23.4776 42.6018 23.6383 43.2323 23.6383C43.2733 23.6383 43.3147 23.6378 43.3557 23.6363C43.2535 24.8732 43.1362 25.9592 43.0063 26.8753C42.7603 28.6045 41.2611 29.9086 39.5187 29.9086H39.5179L37.7472 29.908C39.7222 28.7447 41.5017 26.8902 41.5017 23.984Z" fill="#0069DB"/>
<path d="M6.23457 31.6367C7.34922 31.6367 8.47361 32.338 8.47361 33.6254C8.47361 35.7108 5.50415 36.3929 5.50415 37.2672V37.3539H8.02185C8.26189 37.3539 8.47361 37.6517 8.47361 37.9976C8.47361 38.3432 8.26189 38.6605 8.02185 38.6605H4.60093C4.33199 38.6605 3.94775 38.4777 3.94775 38.199V37.2672C3.94775 35.7583 6.97443 34.8937 6.97443 33.6735C6.97443 33.3662 6.78217 32.9914 6.24401 32.9914C5.85978 32.9914 5.52332 33.1834 5.52332 33.7121C5.52332 33.9905 5.22549 34.2594 4.73539 34.2594C4.35116 34.2594 4.06305 34.0869 4.06305 33.4812C4.06305 32.3093 5.13937 31.6367 6.23457 31.6367Z" fill="#0069DB"/>
<path d="M11.2309 37.1805H8.98244C8.70378 37.1805 8.48291 36.9983 8.48291 36.6618C8.48291 36.5851 8.50237 36.4793 8.55987 36.3734L10.7792 32.0212C10.9234 31.7423 11.1637 31.6367 11.404 31.6367C11.6632 31.6367 12.1533 31.8579 12.1533 32.2035C12.1533 32.2613 12.1339 32.3188 12.1053 32.3863L10.4049 35.7969H11.2309V35.1246C11.2309 34.8076 11.6057 34.6731 11.9805 34.6731C12.3553 34.6731 12.7301 34.8076 12.7301 35.1246V35.7969H13.1432C13.4502 35.7969 13.6044 36.1431 13.6044 36.489C13.6044 36.8349 13.3738 37.1811 13.1432 37.1811H12.7301V38.199C12.7301 38.5069 12.3553 38.6605 11.9805 38.6605C11.6057 38.6605 11.2309 38.5069 11.2309 38.199V37.1805Z" fill="#0069DB"/>
<path d="M15.5063 38.1983C15.5063 38.4292 15.1604 38.6598 14.7567 38.6598C14.3244 38.6598 14.0166 38.4292 14.0166 38.1983V31.9241C14.0166 31.6552 14.3244 31.4727 14.7567 31.4727C15.1604 31.4727 15.5063 31.6552 15.5063 31.9241V34.7588C15.6789 34.384 16.102 34.0287 16.6974 34.0287C17.572 34.0287 18.331 34.9414 18.331 36.0463V38.1983C18.331 38.5062 17.9562 38.6598 17.5814 38.6598C17.2358 38.6598 16.8416 38.5062 16.8416 38.1983V36.0463C16.8416 35.6812 16.5249 35.3256 16.1501 35.3256C15.8328 35.3256 15.5061 35.5945 15.5061 36.0463V38.1983H15.5063Z" fill="#0069DB"/>
<path d="M35.5518 22.4012C35.0462 22.4012 34.6362 21.9915 34.6362 21.4857V19.0366C34.6362 18.5308 35.0462 18.1211 35.5518 18.1211C36.0576 18.1211 36.4673 18.5308 36.4673 19.0366V21.4857C36.4673 21.9915 36.0576 22.4012 35.5518 22.4012Z" fill="#0069DB"/>
<path d="M25.5059 22.4012C25 22.4012 24.5903 21.9915 24.5903 21.4857V19.0366C24.5903 18.5308 25 18.1211 25.5059 18.1211C26.0117 18.1211 26.4214 18.5308 26.4214 19.0366V21.4857C26.4214 21.9915 26.0117 22.4012 25.5059 22.4012Z" fill="#0069DB"/>
</svg>
