<svg width="28" height="34" viewBox="0 0 28 34" fill="none" xmlns="http://www.w3.org/2000/svg">
<path d="M23.1148 17.5807C23.0761 13.4042 26.6335 11.3723 26.7961 11.2777C24.7815 8.42296 21.6588 8.03291 20.5615 8.00181C17.9388 7.73357 15.3948 9.52701 14.0588 9.52701C12.6961 9.52701 10.6388 8.02773 8.42146 8.07179C5.56813 8.11455 2.8988 9.72009 1.43479 12.2133C-1.58654 17.2969 0.666795 24.7674 3.56146 28.8765C5.00946 30.8889 6.70146 33.1359 8.91613 33.0569C11.0828 32.9701 11.8921 31.7144 14.5068 31.7144C17.0975 31.7144 17.8575 33.0569 20.1161 33.0063C22.4415 32.9701 23.9055 30.9848 25.3028 28.9542C26.9761 26.6476 27.6481 24.376 27.6748 24.2594C27.6201 24.2413 23.1588 22.5865 23.1148 17.5807Z" fill="white"/>
<path d="M18.8481 5.29869C20.0135 3.88234 20.8108 1.95542 20.5895 0C18.9028 0.072567 16.7935 1.13386 15.5788 2.51911C14.5041 3.73979 13.5441 5.74057 13.7921 7.62213C15.6868 7.75949 17.6321 6.69301 18.8481 5.29869Z" fill="white"/>
</svg>
