<svg width="409" height="400" viewBox="0 0 409 400" fill="none" xmlns="http://www.w3.org/2000/svg">
<g clip-path="url(#clip0)">
<path d="M288.24 0H286.6V86.0529H288.24V0Z" fill="#EBEBEB"/>
<path d="M291.887 78.8516H282.953V84.868H291.887V78.8516Z" fill="#DBDBDB"/>
<path d="M291.887 80.8574H282.953V84.8684H291.887V80.8574Z" fill="#C7C7C7"/>
<path d="M288.994 131.725C292.718 130.849 295.027 127.119 294.151 123.395C293.275 119.67 289.545 117.362 285.821 118.238C282.096 119.114 279.787 122.843 280.664 126.568C281.54 130.292 285.269 132.601 288.994 131.725Z" fill="#EBEBEB"/>
<path d="M309.845 124.977H264.995L273.108 110.574L279.763 83.8652H295.077L301.732 110.574L309.845 124.977Z" fill="#DBDBDB"/>
<path d="M204.831 0H203.19V71.9234H204.831V0Z" fill="#EBEBEB"/>
<path d="M208.477 64.7227H199.544V70.7391H208.477V64.7227Z" fill="#DBDBDB"/>
<path d="M208.477 66.7285H199.544V70.7395H208.477V66.7285Z" fill="#C7C7C7"/>
<path d="M210.939 110.848C210.939 114.677 207.839 117.776 204.011 117.776C200.182 117.776 197.083 114.677 197.083 110.848C197.083 107.019 200.182 103.92 204.011 103.92C207.839 103.92 210.939 107.019 210.939 110.848Z" fill="#EBEBEB"/>
<path d="M226.436 110.848H181.586L189.699 96.4455L196.353 69.7363H211.668L218.322 96.4455L226.436 110.848Z" fill="#DBDBDB"/>
<path d="M124.886 0H123.245V57.1559H124.886V0Z" fill="#EBEBEB"/>
<path d="M128.441 49.9551H119.507V55.9715H128.441V49.9551Z" fill="#DBDBDB"/>
<path d="M128.441 51.9609H119.507V55.9719H128.441V51.9609Z" fill="#C7C7C7"/>
<path d="M130.902 96.0803C130.902 99.9089 127.803 103.008 123.974 103.008C120.146 103.008 117.046 99.9089 117.046 96.0803C117.046 92.2517 120.146 89.1523 123.974 89.1523C127.803 89.1523 130.902 92.2517 130.902 96.0803Z" fill="#EBEBEB"/>
<path d="M146.49 96.0809H101.641L109.754 81.678L116.317 54.9688H131.723L138.286 81.678L146.49 96.0809Z" fill="#DBDBDB"/>
<path d="M377.393 305.105C364.54 322.516 351.14 342.753 347.858 364.631C347.858 364.995 348.314 365.086 348.405 364.722C349.863 358.705 351.778 352.871 354.057 347.219C362.534 344.849 370.83 342.935 375.296 334.549C379.854 325.889 379.216 314.676 378.396 305.287C378.396 304.831 377.666 304.831 377.393 305.105Z" fill="#EBEBEB"/>
<path d="M354.239 347.128C359.982 334.184 367.457 321.149 376.846 310.483C376.937 310.392 377.028 310.483 376.937 310.574C370.739 318.14 366.089 326.436 361.532 334.822C365.816 330.538 370.465 326.618 374.476 322.06C374.567 321.969 374.658 322.06 374.567 322.151C370.556 326.983 366.181 332.179 360.985 335.734C359.617 338.286 358.159 340.93 356.7 343.482C357.065 343.3 357.43 343.118 357.794 342.935C357.885 342.935 357.885 343.026 357.885 343.026C357.521 343.209 357.065 343.482 356.7 343.573C356.062 344.758 355.333 346.035 354.695 347.22C354.512 347.584 354.148 347.402 354.239 347.128Z" fill="#A6A6A6"/>
<path d="M358.615 342.571C362.079 340.566 365.36 338.469 368.46 336.008C368.551 335.917 368.642 336.099 368.551 336.099C365.543 338.652 362.261 341.022 358.706 342.845C358.523 342.845 358.432 342.662 358.615 342.571Z" fill="#A6A6A6"/>
<path d="M346.399 361.349C346.399 361.622 346.855 361.622 346.855 361.349C346.946 354.147 346.855 346.946 346.946 339.653C348.769 335.916 352.78 333.91 355.515 330.902C357.521 328.714 359.161 326.344 360.62 323.792C363.993 317.684 365.907 310.847 366.545 303.919C367.274 296.262 364.357 270.829 361.167 271.741C359.526 272.196 354.057 284.776 352.598 288.969C350.228 295.806 348.587 302.917 347.493 310.027C344.85 326.982 345.123 344.302 346.399 361.349Z" fill="#EBEBEB"/>
<path d="M346.308 330.356C346.399 330.356 346.399 330.356 346.308 330.356C346.764 321.24 348.77 312.033 350.684 303.191C352.78 293.711 355.151 284.686 360.073 276.208C360.164 276.026 360.438 276.208 360.347 276.391C356.974 282.954 354.604 289.882 352.78 297.083C353.145 296.536 353.51 296.081 353.874 295.625C353.966 295.443 354.33 295.625 354.148 295.807C353.692 296.536 353.236 297.357 352.598 297.995C352.598 297.995 352.598 297.995 352.507 297.995C350.866 304.832 349.59 311.76 348.587 318.688C348.678 318.597 348.77 318.505 348.861 318.414C348.952 318.323 349.043 318.414 348.952 318.505C348.861 318.779 348.678 318.961 348.496 319.235C347.949 322.79 347.493 326.254 347.038 329.718C353.327 324.34 358.706 318.05 361.714 310.301H361.805C358.888 318.414 354.148 325.525 347.038 330.447C346.946 331.359 346.764 332.361 346.673 333.273C346.673 333.455 346.308 333.455 346.308 333.273C346.308 332.453 346.308 331.632 346.399 330.812C346.308 330.538 346.217 330.447 346.308 330.356Z" fill="#A6A6A6"/>
<path d="M349.316 317.138C354.148 310.027 358.614 303.008 362.078 295.169C362.078 295.077 362.261 295.169 362.261 295.26C359.344 303.099 355.15 311.03 349.59 317.411C349.407 317.502 349.225 317.32 349.316 317.138Z" fill="#A6A6A6"/>
<path d="M355.698 293.345C357.703 289.79 359.8 286.417 361.623 282.862C361.714 282.771 361.805 282.862 361.805 282.953C360.256 286.599 358.341 290.337 356.062 293.527C355.88 293.71 355.515 293.619 355.698 293.345Z" fill="#A6A6A6"/>
<path d="M354.877 294.896C354.968 294.896 354.968 294.988 354.877 294.896C354.877 294.988 354.877 294.896 354.877 294.896Z" fill="#A6A6A6"/>
<path d="M341.568 340.565C341.477 345.305 340.93 350.137 339.927 354.786C340.018 355.333 340.109 355.788 340.109 356.335C341.568 351.139 342.388 345.852 342.662 340.565C342.753 340.383 342.753 340.292 342.662 340.109C342.935 332.999 342.297 325.797 341.112 318.687C338.924 305.469 334.002 292.798 324.795 282.862C324.521 282.589 323.883 282.68 323.792 283.044C320.055 292.525 321.331 303.828 324.521 313.218C326.253 318.323 328.715 323.154 331.814 327.529C334.913 331.996 338.924 335.734 341.568 340.565Z" fill="#EBEBEB"/>
<path d="M325.798 287.148C334.549 301.368 340.656 318.141 341.386 334.914C341.386 335.188 340.93 335.279 340.839 335.005C340.656 333.456 340.383 331.997 340.201 330.539C336.554 327.075 332.908 323.428 330.264 319.053C330.264 318.962 330.355 318.871 330.355 318.962C333.546 322.517 336.463 326.254 340.018 329.445C339.38 325.707 338.651 322.061 337.739 318.506C337.466 318.232 337.283 317.959 337.01 317.685C336.828 317.503 337.101 317.23 337.283 317.412C337.375 317.503 337.466 317.594 337.466 317.685C336.19 312.763 334.731 307.932 332.908 303.191C330.72 300.548 328.168 298.269 326.618 295.078C326.618 294.987 326.709 294.896 326.709 294.987C327.985 296.81 329.262 298.633 330.72 300.365C331.267 301.004 331.996 301.642 332.543 302.371C330.538 297.266 328.168 292.344 325.433 287.421C325.342 287.148 325.706 286.965 325.798 287.148Z" fill="#A6A6A6"/>
<path d="M327.621 304.649C330.447 308.478 333.637 312.124 336.281 316.044C336.372 316.135 336.19 316.317 336.098 316.226C332.726 313.036 329.9 308.751 327.438 304.831C327.347 304.649 327.53 304.558 327.621 304.649Z" fill="#A6A6A6"/>
<path d="M336.646 316.956L336.737 317.047C336.828 317.138 336.646 317.229 336.646 317.138L336.554 317.047C336.463 316.956 336.554 316.865 336.646 316.956Z" fill="#A6A6A6"/>
<path d="M312.124 314.494C312.853 321.786 316.682 330.537 321.331 336.098C323.428 338.559 325.889 340.474 328.806 341.932C332.088 343.573 335.46 345.396 338.833 346.672C340.383 350.683 341.568 354.877 342.388 359.252C342.479 358.887 342.571 358.523 342.753 358.158C340.565 339.653 328.624 323.883 313.309 313.764C312.671 313.4 312.033 313.856 312.124 314.494Z" fill="#EBEBEB"/>
<path d="M317.411 319.963C317.32 319.872 317.411 319.69 317.594 319.781C325.707 325.797 332.999 334.548 337.101 343.755C337.192 344.029 336.828 344.211 336.737 343.937C336.007 342.661 335.278 341.476 334.549 340.291C331.085 339.653 327.712 337.192 325.16 334.822C325.068 334.731 325.16 334.639 325.251 334.731C326.618 335.916 328.077 337.01 329.626 337.83C331.085 338.559 332.543 339.015 334.093 339.562C332.817 337.465 331.45 335.551 330.082 333.637C326.345 332.36 322.79 330.082 319.599 327.711C319.508 327.62 319.599 327.438 319.69 327.529C322.881 329.443 326.071 331.175 329.444 332.725C327.347 329.899 325.068 327.256 322.516 324.703C321.331 324.065 320.146 323.427 318.961 322.789C318.87 322.698 318.961 322.607 319.052 322.607C319.964 322.88 320.875 323.427 321.787 323.974C320.328 322.607 318.961 321.239 317.411 319.963Z" fill="#A6A6A6"/>
<path d="M317.685 326.343C317.867 326.434 318.049 326.617 318.232 326.799C318.323 326.89 318.232 326.89 318.141 326.89C317.958 326.799 317.776 326.708 317.502 326.526C317.502 326.434 317.594 326.252 317.685 326.343Z" fill="#A6A6A6"/>
<path d="M366.545 399.271H324.613L327.986 361.076L328.715 352.689H362.443L363.173 361.076L366.545 399.271Z" fill="#C7C7C7"/>
<path d="M363.173 361.076H327.986L328.715 352.689H362.443L363.173 361.076Z" fill="#A6A6A6"/>
<path d="M364.358 346.764H326.709V355.059H364.358V346.764Z" fill="#C7C7C7"/>
<path d="M157.885 288.331H42.3882V209.389H157.794V288.331H157.885ZM43.2998 287.42H156.882V210.3H43.2998V287.42Z" fill="#EBEBEB"/>
<path d="M51.4129 214.494C51.4129 215.77 50.4101 216.773 49.1339 216.773C47.8577 216.773 46.855 215.77 46.855 214.494C46.855 213.218 47.8577 212.215 49.1339 212.215C50.4101 212.215 51.4129 213.218 51.4129 214.494Z" fill="#A6A6A6"/>
<path d="M60.802 214.494C60.802 215.77 59.7993 216.773 58.5231 216.773C57.2469 216.773 56.2441 215.77 56.2441 214.494C56.2441 213.218 57.2469 212.215 58.5231 212.215C59.7993 212.215 60.802 213.218 60.802 214.494Z" fill="#EBEBEB"/>
<path d="M70.1912 214.494C70.1912 215.77 69.1885 216.773 67.9122 216.773C66.636 216.773 65.6333 215.77 65.6333 214.494C65.6333 213.218 66.636 212.215 67.9122 212.215C69.1885 212.215 70.1912 213.218 70.1912 214.494Z" fill="#FFC328"/>
<path d="M157.338 218.504H42.8438V219.415H157.338V218.504Z" fill="#EBEBEB"/>
<path d="M330.993 249.317C329.261 250.41 327.256 251.231 325.159 251.778C319.69 253.145 314.129 252.051 309.663 249.317C305.287 246.582 301.914 242.297 300.638 236.919C297.994 226.071 304.649 215.041 315.497 212.398C326.344 209.754 337.374 216.409 340.018 227.256C342.206 236.008 338.286 244.759 330.993 249.317Z" fill="#EBEBEB"/>
<path d="M326.527 229.718C326.527 233.091 323.792 235.917 320.328 235.917C316.955 235.917 314.129 233.182 314.129 229.718C314.129 226.254 316.864 223.52 320.328 223.52C323.701 223.52 326.527 226.254 326.527 229.718Z" fill="white"/>
<path d="M330.993 246.765V249.317C329.262 250.411 327.256 251.232 325.159 251.779C319.69 253.146 314.129 252.052 309.663 249.317V246.765C309.663 240.931 314.403 236.1 320.328 236.1C326.253 236.1 330.993 240.84 330.993 246.765Z" fill="white"/>
<path d="M0 399.544L51.0483 399.361L102.005 399.27L204.011 399.088L306.016 399.27L357.065 399.361L408.022 399.544L357.065 399.726L306.016 399.817L204.011 399.999L102.005 399.817L51.0483 399.726L0 399.544Z" fill="#263238"/>
<path d="M160.255 389.881H44.1201V399.544H160.255V389.881Z" fill="#455A64"/>
<path d="M381.403 389.881H160.255V399.544H381.403V389.881Z" fill="#37474F"/>
<path d="M265.269 389.881H44.1201L14.0381 248.131H235.187L265.269 389.881Z" fill="#263238"/>
<path d="M114.038 380.948H51.2303L24.8857 257.064H87.6934L114.038 380.948Z" fill="white"/>
<path d="M49.8629 303.555C49.4071 303.828 48.9514 304.102 48.4044 304.193C46.9459 304.558 45.3962 304.284 44.0288 303.555C42.6615 302.826 41.4764 301.641 40.8383 300.182C39.471 297.174 40.656 294.257 43.4819 293.528C46.3078 292.798 49.6806 294.622 51.048 297.63C52.1419 300 51.5949 302.37 49.8629 303.555Z" fill="#C7C7C7"/>
<path d="M47.4925 298.268C47.6748 299.179 47.1279 299.909 46.1252 299.909C45.1224 299.909 44.302 299.179 44.1197 298.268C43.9374 297.356 44.4843 296.627 45.4871 296.627C46.4898 296.627 47.3102 297.356 47.4925 298.268Z" fill="white"/>
<path d="M49.7716 302.917L49.954 303.646C49.4982 303.92 49.0424 304.193 48.4954 304.284C47.0369 304.649 45.4872 304.376 44.1199 303.646L43.9375 302.917C43.5729 301.276 44.5757 300 46.2165 300C47.8573 300 49.407 301.276 49.7716 302.917Z" fill="white"/>
<path d="M79.9449 295.534H54.7854L54.3296 293.346H79.4891L79.9449 295.534Z" fill="#C7C7C7"/>
<path d="M89.9724 299.544H55.606L55.3325 298.268H89.699L89.9724 299.544Z" fill="#C7C7C7"/>
<path d="M90.6105 302.188H56.1529L55.8794 300.912H90.337L90.6105 302.188Z" fill="#C7C7C7"/>
<path d="M53.6002 320.875C53.1444 321.149 52.6887 321.422 52.1417 321.513C50.6832 321.878 49.1335 321.605 47.7661 320.875C46.3988 320.146 45.2137 318.961 44.5756 317.502C43.2083 314.494 44.3933 311.577 47.2192 310.848C50.0451 310.119 53.4179 311.942 54.7853 314.95C55.8792 317.229 55.3322 319.69 53.6002 320.875Z" fill="#FFC328"/>
<path d="M51.2303 315.588C51.4126 316.5 50.8657 317.229 49.863 317.229C48.8602 317.229 48.0398 316.5 47.8575 315.588C47.6752 314.676 48.2221 313.947 49.2249 313.947C50.1364 313.856 51.048 314.585 51.2303 315.588Z" fill="white"/>
<path d="M53.4181 320.237L53.6004 320.967C53.1446 321.24 52.6889 321.514 52.1419 321.605C50.6834 321.969 49.1337 321.696 47.7663 320.967L47.584 320.237C47.2194 318.597 48.2221 317.32 49.863 317.32C51.5038 317.32 53.0535 318.597 53.4181 320.237Z" fill="white"/>
<path d="M83.5909 312.854H58.4314L57.9756 310.666H83.1351L83.5909 312.854Z" fill="#C7C7C7"/>
<path d="M93.7096 316.773H59.252L58.9785 315.588H93.4361L93.7096 316.773Z" fill="#C7C7C7"/>
<path d="M94.2566 319.509H59.799L59.6167 318.232H93.9832L94.2566 319.509Z" fill="#C7C7C7"/>
<path d="M57.2467 338.194C56.7909 338.467 56.3351 338.741 55.7882 338.832C54.3297 339.196 52.78 338.923 51.4126 338.194C50.0453 337.464 48.8602 336.279 48.2221 334.821C46.8547 331.813 48.0398 328.896 50.8657 328.166C53.6916 327.437 57.0644 329.26 58.4318 332.268C59.5257 334.547 58.9787 336.917 57.2467 338.194Z" fill="#455A64"/>
<path d="M54.8768 332.815C55.0591 333.726 54.5122 334.455 53.5094 334.455C52.5979 334.455 51.6863 333.726 51.504 332.815C51.3217 331.903 51.8686 331.174 52.8713 331.174C53.7829 331.174 54.6945 331.903 54.8768 332.815Z" fill="white"/>
<path d="M57.0646 337.464L57.2469 338.193C56.7911 338.467 56.3353 338.74 55.7884 338.831C54.3299 339.196 52.7802 338.922 51.4128 338.193L51.2305 337.464C50.8659 335.823 51.8686 334.547 53.5095 334.547C55.1503 334.547 56.7911 335.914 57.0646 337.464Z" fill="white"/>
<path d="M87.3285 330.081H62.0779L61.6221 327.984H86.7816L87.3285 330.081Z" fill="#C7C7C7"/>
<path d="M97.3562 334.093H62.8986L62.7163 332.816H97.0828L97.3562 334.093Z" fill="#C7C7C7"/>
<path d="M97.9031 336.827H63.5367L63.2632 335.551H97.6296L97.9031 336.827Z" fill="#C7C7C7"/>
<path d="M60.8932 355.516C60.4374 355.789 59.9816 356.063 59.4347 356.154C57.9762 356.519 56.4265 356.245 55.0591 355.516C53.6917 354.787 52.5067 353.602 51.8686 352.143C50.5012 349.135 51.6863 346.218 54.5122 345.489C57.3381 344.759 60.7109 346.583 62.0783 349.591C63.1721 351.87 62.6252 354.24 60.8932 355.516Z" fill="#263238"/>
<path d="M58.5228 350.137C58.7051 351.049 58.1582 351.778 57.1554 351.778C56.2439 351.778 55.3323 351.049 55.15 350.137C54.9677 349.225 55.5146 348.496 56.5173 348.496C57.5201 348.496 58.3405 349.225 58.5228 350.137Z" fill="white"/>
<path d="M60.8019 354.786L60.9842 355.515C60.5284 355.789 60.0727 356.062 59.5257 356.154C58.0672 356.518 56.5175 356.245 55.1501 355.515L54.9678 354.786C54.6032 353.145 55.6059 351.869 57.2468 351.869C58.8876 351.869 60.4373 353.145 60.8019 354.786Z" fill="white"/>
<path d="M90.975 347.403H65.8155L65.2686 345.215H90.5192L90.975 347.403Z" fill="#C7C7C7"/>
<path d="M101.003 351.413H66.6363L66.3628 350.137H100.729L101.003 351.413Z" fill="#C7C7C7"/>
<path d="M101.641 354.056H67.1831L66.9097 352.871H101.367L101.641 354.056Z" fill="#C7C7C7"/>
<path d="M64.6305 372.743C64.1747 373.016 63.7189 373.29 63.172 373.381C61.7135 373.745 60.1638 373.472 58.7964 372.743C57.4291 372.013 56.244 370.828 55.6059 369.37C54.2385 366.362 55.4236 363.444 58.2495 362.715C61.0754 361.986 64.4482 363.809 65.8156 366.817C66.9094 369.096 66.3625 371.558 64.6305 372.743Z" fill="#C7C7C7"/>
<path d="M62.2606 367.455C62.4429 368.367 61.896 369.096 60.8932 369.096C59.9817 369.096 59.0701 368.367 58.8878 367.455C58.7054 366.544 59.2524 365.814 60.2551 365.814C61.2579 365.814 62.0783 366.544 62.2606 367.455Z" fill="white"/>
<path d="M64.4484 372.105L64.6307 372.834C64.1749 373.107 63.7191 373.381 63.1722 373.472C61.7137 373.837 60.164 373.563 58.7966 372.834L58.6143 372.105C58.2497 370.464 59.2524 369.188 60.8932 369.188C62.5341 369.188 64.0838 370.464 64.4484 372.105Z" fill="white"/>
<path d="M94.6212 364.721H69.4616L69.0059 362.533H94.1654L94.6212 364.721Z" fill="#C7C7C7"/>
<path d="M104.74 368.64H70.2823L70.0088 367.455H104.466L104.74 368.64Z" fill="#C7C7C7"/>
<path d="M105.287 371.376H70.8293L70.647 370.1H105.013L105.287 371.376Z" fill="#C7C7C7"/>
<path d="M40.4738 274.112C40.2003 274.294 39.9269 274.476 39.5622 274.567C38.6507 274.841 37.7391 274.659 36.8275 274.112C36.0071 273.656 35.2778 272.927 34.822 272.015C34.0016 270.192 34.7309 268.278 36.4629 267.822C38.1949 267.366 40.2915 268.46 41.2031 270.374C41.8412 271.833 41.4766 273.291 40.4738 274.112Z" fill="#C7C7C7"/>
<path d="M39.0149 270.739C39.106 271.286 38.7414 271.742 38.1945 271.742C37.6475 271.742 37.0094 271.286 36.9183 270.739C36.8271 270.192 37.1917 269.736 37.7387 269.736C38.2856 269.736 38.8326 270.192 39.0149 270.739Z" fill="white"/>
<path d="M40.3824 273.655L40.4736 274.111C40.2001 274.293 39.9266 274.476 39.562 274.567C38.6504 274.84 37.7389 274.658 36.8273 274.111L36.7361 273.655C36.5538 272.652 37.1919 271.832 38.1946 271.832C39.1974 271.832 40.109 272.652 40.3824 273.655Z" fill="white"/>
<path d="M83.5913 271.924C83.5913 271.742 83.6825 271.65 83.8648 271.65C84.0471 271.65 84.2294 271.742 84.2294 271.924C84.2294 272.106 84.1383 272.197 83.9559 272.197C83.7736 272.197 83.5913 272.106 83.5913 271.924Z" fill="#C7C7C7"/>
<path d="M83.3179 270.738C83.3179 270.556 83.409 270.465 83.5913 270.465C83.7737 270.465 83.956 270.556 83.956 270.738C83.956 270.921 83.8648 271.012 83.6825 271.012C83.5002 271.012 83.3179 270.921 83.3179 270.738Z" fill="#C7C7C7"/>
<path d="M83.0444 269.645C83.0444 269.462 83.1356 269.371 83.3179 269.371C83.5002 269.371 83.5914 269.462 83.6825 269.645C83.6825 269.827 83.5914 269.918 83.4091 269.918C83.2268 269.918 83.1356 269.827 83.0444 269.645Z" fill="#C7C7C7"/>
<path d="M79.3068 271.468H76.0251L75.5693 269.371H78.851L79.3068 271.468Z" fill="#C7C7C7"/>
<path d="M76.0249 271.467L76.1161 272.196L76.7542 271.467H76.0249Z" fill="#C7C7C7"/>
<path d="M78.3953 269.919H76.2987L76.2075 269.736H78.3041L78.3953 269.919Z" fill="white"/>
<path d="M78.4866 270.373H76.39L76.2988 270.1H78.3955L78.4866 270.373Z" fill="white"/>
<path d="M78.5774 270.739H76.4808L76.3896 270.557H78.4863L78.5774 270.739Z" fill="white"/>
<path d="M229.535 263.719H26.3443L24.8857 257.064H228.076L229.535 263.719Z" fill="#37474F"/>
<path d="M30.9021 260.437C31.0844 261.348 30.5374 262.078 29.6259 262.078C28.7143 262.078 27.8027 261.348 27.6204 260.437C27.4381 259.525 27.985 258.796 28.8966 258.796C29.8082 258.705 30.7197 259.525 30.9021 260.437Z" fill="#C7C7C7"/>
<path d="M37.739 260.438C37.9213 261.349 37.3743 262.079 36.4628 262.079C35.5512 262.079 34.6396 261.349 34.4573 260.438C34.275 259.526 34.8219 258.797 35.7335 258.797C36.6451 258.797 37.4655 259.526 37.739 260.438Z" fill="white"/>
<path d="M44.4846 260.437C44.6669 261.348 44.1199 262.078 43.2084 262.078C42.2968 262.078 41.3852 261.348 41.2029 260.437C41.0206 259.525 41.5675 258.796 42.4791 258.796C43.3907 258.705 44.3023 259.525 44.4846 260.437Z" fill="#FFC328"/>
<path d="M229.535 263.719H89.0605L114.038 380.948H254.421L229.535 263.719Z" fill="#EBEBEB"/>
<path d="M242.297 375.296H125.706L124.248 368.459H240.838L242.297 375.296Z" fill="white"/>
<path d="M240.018 372.014C240.2 372.925 239.653 373.655 238.741 373.655C237.83 373.655 236.918 372.925 236.736 372.014C236.554 371.102 237.101 370.373 238.103 370.373C238.924 370.282 239.835 371.011 240.018 372.014Z" fill="#FFC328"/>
<path d="M237.83 371.012L239.015 372.014L238.194 372.926L237.921 372.744L238.559 372.014L237.647 371.194L237.83 371.012Z" fill="white"/>
<path d="M127.347 373.928H126.891L125.979 369.826H126.435L127.347 373.928Z" fill="#263238"/>
<path d="M246.855 375.386C246.763 375.386 246.672 375.295 246.672 375.204L246.308 373.563C246.308 373.472 246.308 373.381 246.399 373.381C246.49 373.381 246.581 373.472 246.581 373.563L246.946 375.204C247.037 375.295 246.946 375.386 246.855 375.386Z" fill="#A6A6A6"/>
<path d="M247.766 375.386H245.943C245.852 375.386 245.761 375.295 245.761 375.204C245.761 375.113 245.761 375.021 245.852 375.021H247.675C247.766 375.021 247.857 375.113 247.857 375.204C247.949 375.295 247.857 375.386 247.766 375.386Z" fill="#A6A6A6"/>
<path d="M246.855 369.644L247.402 372.014C247.493 372.652 247.128 373.199 246.49 373.199C246.034 373.199 245.578 372.926 245.305 372.561C245.214 372.379 245.123 372.196 245.031 372.014L244.485 369.644C244.393 369.006 244.758 368.459 245.396 368.459C245.761 368.459 246.034 368.55 246.308 368.824C246.581 369.006 246.763 369.279 246.855 369.644C246.855 369.553 246.855 369.644 246.855 369.644Z" fill="#A6A6A6"/>
<path d="M246.581 373.745C246.125 373.745 245.67 373.563 245.305 373.289C244.94 372.925 244.667 372.56 244.485 372.104L244.302 371.01C244.302 370.919 244.302 370.828 244.393 370.828C244.485 370.828 244.576 370.919 244.576 371.01L244.758 372.013C244.849 372.378 245.032 372.742 245.396 373.016C245.761 373.289 246.125 373.381 246.49 373.381C247.219 373.381 247.675 372.742 247.493 371.922L247.31 371.01C247.31 370.919 247.31 370.828 247.402 370.828C247.493 370.828 247.584 370.919 247.584 371.01L247.766 371.922C248.04 372.925 247.493 373.654 246.581 373.745Z" fill="#A6A6A6"/>
<path d="M122.516 371.924C122.88 373.838 121.695 375.388 119.872 375.388C117.958 375.388 116.134 373.838 115.679 372.015C115.314 370.1 116.499 368.551 118.322 368.551C120.237 368.46 122.06 370.009 122.516 371.924Z" fill="white"/>
<path d="M117.775 371.194C117.866 371.468 117.684 371.65 117.411 371.65C117.137 371.65 116.864 371.468 116.864 371.194C116.772 370.921 116.955 370.738 117.228 370.738C117.502 370.738 117.684 370.921 117.775 371.194Z" fill="#A6A6A6"/>
<path d="M121.057 371.194C121.148 371.468 120.966 371.65 120.692 371.65C120.419 371.65 120.145 371.468 120.145 371.194C120.054 370.921 120.236 370.738 120.51 370.738C120.692 370.738 120.966 370.921 121.057 371.194Z" fill="#A6A6A6"/>
<path d="M119.598 371.104C119.598 371.286 119.599 371.468 119.507 371.559C119.416 371.742 119.234 371.833 118.96 371.833C118.778 371.833 118.505 371.742 118.322 371.559C118.231 371.468 118.14 371.286 118.049 371.104H119.598Z" fill="#A6A6A6"/>
<path d="M119.599 371.56C119.507 371.742 119.325 371.833 119.052 371.833C118.869 371.833 118.596 371.742 118.414 371.56C118.505 371.469 118.687 371.378 118.961 371.378C119.143 371.286 119.416 371.378 119.599 371.56Z" fill="#DBDBDB"/>
<path d="M41.1118 285.778L40.656 286.143L39.4709 284.867L39.0151 284.411C39.1063 284.411 39.1063 284.32 39.1975 284.32C39.2886 284.229 39.3798 284.137 39.3798 283.955L39.8356 284.411L41.1118 285.778Z" fill="#A6A6A6"/>
<path d="M39.5619 282.861C38.9238 282.223 38.1033 282.132 37.5564 282.588C37.0095 283.043 37.1006 283.955 37.7387 284.502C38.2857 285.049 39.0149 285.231 39.5619 284.867C39.653 284.867 39.653 284.775 39.7442 284.775C39.8353 284.684 39.9265 284.593 39.9265 284.502C40.2 284.046 40.0177 283.408 39.5619 282.861ZM39.2884 284.411C39.1972 284.502 39.1972 284.502 39.1061 284.502C38.8326 284.593 38.3768 284.502 38.1033 284.228C37.7387 283.864 37.7387 283.317 38.0122 283.043C38.2857 282.77 38.8326 282.861 39.1972 283.226C39.4707 283.499 39.5619 283.773 39.4707 284.046C39.3796 284.228 39.3796 284.32 39.2884 284.411Z" fill="#A6A6A6"/>
<path d="M46.5811 284.867H46.6722C46.8546 285.049 47.2192 285.231 47.5838 285.231C47.7661 285.231 47.9485 285.14 48.1308 285.049C48.2219 284.958 48.3131 284.776 48.2219 284.684C48.2219 284.502 48.1308 284.411 47.9485 284.32C47.7661 284.229 47.5838 284.138 47.3104 284.138C47.0369 284.138 46.8546 284.046 46.6722 283.955C46.4899 283.864 46.3988 283.682 46.3076 283.499C46.3076 283.317 46.3076 283.135 46.4899 283.044C46.5811 282.952 46.8546 282.861 47.0369 282.861C47.4015 282.861 47.675 283.044 47.8573 283.135C47.8573 283.135 47.9485 283.226 47.8573 283.226C47.8573 283.226 47.7661 283.317 47.7661 283.226C47.5838 283.135 47.3103 282.952 47.0369 282.952C46.8546 282.952 46.6722 283.044 46.5811 283.135C46.4899 283.226 46.3988 283.317 46.4899 283.499C46.4899 283.591 46.5811 283.682 46.7634 283.773C46.9457 283.864 47.128 283.955 47.3104 283.955C47.5838 284.046 47.7661 284.046 47.9485 284.138C48.1308 284.229 48.3131 284.411 48.3131 284.593C48.3131 284.776 48.3131 284.958 48.1308 285.049C47.9485 285.14 47.7661 285.231 47.4927 285.231C47.128 285.231 46.7634 285.049 46.4899 284.867C46.5811 284.958 46.5811 284.867 46.5811 284.867Z" fill="#A6A6A6"/>
<path d="M48.8602 284.501C48.7691 284.046 49.0426 283.59 49.4983 283.59C49.9541 283.59 50.4099 283.954 50.5011 284.41C50.5011 284.501 50.5011 284.501 50.4099 284.501H48.9514C49.0426 284.866 49.4072 285.139 49.7718 285.139C50.0453 285.139 50.2276 285.048 50.2276 284.866C50.2276 284.866 50.3188 284.775 50.3188 284.866L50.4099 284.957C50.3188 285.231 50.0453 285.322 49.7718 285.322C49.4072 285.322 48.9514 284.957 48.8602 284.501ZM49.0426 284.319H50.3188C50.2276 283.954 49.863 283.772 49.5895 283.772C49.2249 283.772 49.0426 284.046 49.0426 284.319Z" fill="#A6A6A6"/>
<path d="M52.415 283.682L52.7796 285.232C52.7796 285.232 52.7796 285.323 52.6884 285.323C52.5973 285.323 52.5973 285.323 52.5973 285.232L52.5061 284.959C52.415 285.141 52.2326 285.323 51.9592 285.323C51.5034 285.323 51.0476 284.959 50.9564 284.412C50.8653 283.956 51.1387 283.5 51.5945 283.5C51.868 283.5 52.1415 283.591 52.3238 283.865L52.2326 283.591C52.2326 283.5 52.2326 283.5 52.3238 283.5C52.415 283.5 52.415 283.682 52.415 283.682ZM52.415 284.503C52.3238 284.138 51.9592 283.773 51.5945 283.773C51.2299 283.773 51.0476 284.047 51.0476 284.503C51.1387 284.867 51.5034 285.232 51.868 285.232C52.3238 285.141 52.5061 284.867 52.415 284.503Z" fill="#A6A6A6"/>
<path d="M53.1445 283.681C53.1445 283.681 53.2357 283.59 53.1445 283.681C53.2357 283.59 53.3268 283.59 53.3268 283.681L53.418 284.046C53.5092 283.863 53.6915 283.59 54.0561 283.59C54.1473 283.59 54.1473 283.59 54.1473 283.681C54.1473 283.772 54.1473 283.772 54.0561 283.772C53.8738 283.772 53.6915 283.863 53.6003 284.046C53.5092 284.228 53.5092 284.41 53.5092 284.41L53.6915 285.14C53.6915 285.231 53.6915 285.231 53.6003 285.231C53.5092 285.231 53.5092 285.231 53.5092 285.14L53.1445 283.681Z" fill="#A6A6A6"/>
<path d="M54.694 284.501C54.6029 284.046 54.8763 283.59 55.4233 283.59C55.6056 283.59 55.8791 283.681 56.0614 283.772C56.0614 283.772 56.1526 283.863 56.0614 283.863H55.9702C55.7879 283.772 55.6968 283.681 55.5145 283.681C55.1498 283.681 54.8763 283.954 54.9675 284.41C55.0587 284.775 55.4233 285.139 55.8791 285.139C56.0614 285.139 56.1526 285.048 56.3349 284.957H56.426V285.048C56.3349 285.14 56.1526 285.231 55.8791 285.231C55.241 285.322 54.7852 284.957 54.694 284.501Z" fill="#A6A6A6"/>
<path d="M58.0669 284.32C57.9758 284.047 57.7023 283.774 57.4288 283.774C57.1553 283.774 56.8819 283.956 56.973 284.32L57.1553 285.323H57.0642L56.8819 284.32L56.6084 283.044C56.6084 282.953 56.6084 282.953 56.6996 282.953C56.7907 282.953 56.7907 282.953 56.7907 283.044L56.973 283.956C57.0642 283.774 57.2465 283.682 57.4288 283.682C57.7934 283.682 58.2492 283.956 58.3404 284.412L58.5227 285.414C58.5227 285.414 58.5227 285.506 58.4316 285.506C58.3404 285.506 58.3404 285.506 58.3404 285.414L58.0669 284.32Z" fill="#A6A6A6"/>
<path d="M59.9811 284.501C59.89 284.046 60.1635 283.59 60.7104 283.59C60.8927 283.59 61.1662 283.681 61.3485 283.772C61.3485 283.772 61.4397 283.863 61.3485 283.863H61.2573C61.075 283.772 60.9839 283.681 60.8016 283.681C60.4369 283.681 60.1635 283.954 60.2546 284.41C60.3458 284.775 60.7104 285.139 61.1662 285.139C61.3485 285.139 61.4397 285.048 61.622 284.957H61.7131V285.048C61.622 285.14 61.4397 285.231 61.1662 285.231C60.5281 285.322 60.0723 284.957 59.9811 284.501Z" fill="#A6A6A6"/>
<path d="M63.354 284.32C63.2629 284.047 62.9894 283.774 62.7159 283.774C62.4425 283.774 62.169 283.956 62.2601 284.32L62.4425 285.323H62.3513L62.169 284.32L61.8955 283.044C61.8955 282.953 61.8955 282.953 61.9867 282.953C62.0778 282.953 62.0778 282.953 62.0778 283.044L62.2601 283.956C62.3513 283.774 62.5336 283.682 62.7159 283.682C63.0806 283.682 63.5364 283.956 63.6275 284.412L63.8098 285.414C63.8098 285.414 63.8098 285.506 63.7187 285.506C63.6275 285.506 63.6275 285.506 63.6275 285.414L63.354 284.32Z" fill="#A6A6A6"/>
<path d="M65.724 283.682L66.0887 285.232C66.0887 285.232 66.0887 285.323 65.9975 285.323C65.9064 285.323 65.9064 285.323 65.9064 285.232L65.8152 284.959C65.724 285.141 65.5417 285.323 65.2682 285.323C64.8125 285.323 64.3567 284.959 64.2655 284.412C64.1744 283.956 64.4478 283.5 64.9036 283.5C65.1771 283.5 65.4506 283.591 65.6329 283.865L65.5417 283.591C65.5417 283.5 65.5417 283.5 65.6329 283.5C65.6329 283.591 65.724 283.682 65.724 283.682ZM65.724 284.503C65.6329 284.138 65.2682 283.773 64.9036 283.773C64.539 283.773 64.3567 284.047 64.3567 284.503C64.4478 284.867 64.8125 285.232 65.1771 285.232C65.5417 285.141 65.8152 284.867 65.724 284.503Z" fill="#A6A6A6"/>
<path d="M67.0916 283.682C67.0916 283.773 67.0004 283.773 67.0916 283.682L66.8181 283.773L67.0916 285.049C67.0916 285.14 67.1827 285.14 67.2739 285.14L67.365 285.231C67.365 285.231 67.365 285.323 67.2739 285.323C67.0916 285.323 66.9092 285.231 66.9092 285.049L66.6358 283.773H66.4535C66.3623 283.773 66.3623 283.773 66.3623 283.682C66.3623 283.682 66.3623 283.591 66.4535 283.591H66.5446L66.3623 282.952C66.3623 282.952 66.3623 282.861 66.4535 282.861C66.5446 282.861 66.5446 282.861 66.5446 282.952L66.7269 283.591H66.9092C67.0004 283.591 67.0916 283.682 67.0916 283.682Z" fill="#A6A6A6"/>
<path d="M94.6211 289.424H31.8135V289.697H94.6211V289.424Z" fill="#A6A6A6"/>
<path d="M92.3423 278.668H29.5347V278.941H92.3423V278.668Z" fill="#A6A6A6"/>
<path d="M57.338 396.17H35.5513V399.543H57.338V396.17Z" fill="#FFC328"/>
<path opacity="0.1" d="M57.338 396.17H35.5513V398.449H57.338V396.17Z" fill="black"/>
<path d="M9.75378 386.964C12.3062 390.61 16.8641 393.163 22.0601 392.251C22.7893 392.069 23.5186 391.886 24.2479 391.613C25.2506 391.248 26.2533 390.701 27.3472 389.972L24.6125 385.87C24.0655 386.235 23.5186 386.599 22.9716 386.782C17.7757 389.152 14.494 385.05 13.8559 384.138C10.8477 379.945 9.84494 370.373 12.8531 366.636C13.0355 366.362 13.947 365.907 17.411 366.636C18.0491 366.818 18.7784 366.909 19.5988 367.183C20.5104 367.456 21.0573 367.639 21.6043 367.639L21.6954 365.177L21.9689 362.716C21.7866 362.716 21.422 362.534 20.9662 362.443C19.5988 362.078 17.8668 361.622 16.0437 361.44C13.4912 361.166 10.7565 361.44 9.11567 363.536C4.01084 369.553 6.01631 381.768 9.75378 386.964Z" fill="#FFC328"/>
<path opacity="0.1" d="M24.5212 385.869C23.9743 386.234 23.4273 386.598 22.8804 386.781L24.2477 391.612C25.2505 391.247 26.2532 390.7 27.3471 389.971L24.5212 385.869Z" fill="black"/>
<path opacity="0.1" d="M15.8613 361.439L17.3199 366.727C17.958 366.909 18.6872 367 19.5076 367.274C20.4192 367.547 20.9662 367.729 21.5131 367.729L21.6043 365.268L21.8777 362.807C21.6954 362.807 21.3308 362.625 20.875 362.533C19.5076 362.169 17.6845 361.622 15.8613 361.439Z" fill="black"/>
<path d="M75.3874 355.059C75.3874 355.059 72.7439 377.21 68.2771 386.599C63.7192 395.897 57.4294 396.991 53.5096 396.991C49.5898 396.991 49.9544 396.991 46.3993 396.991C42.8441 396.991 43.2088 396.991 39.289 396.991C35.3692 396.991 29.0793 395.988 24.5214 386.599C19.9635 377.21 17.4111 355.059 17.4111 355.059H75.3874Z" fill="#FFC328"/>
<path d="M193.71 300.911H320.055V248.039H193.71V300.911Z" fill="#455A64"/>
<path d="M320.055 263.627V248.039H336.281L320.055 263.627Z" fill="#455A64"/>
<path d="M310.483 257.246H203.373V258.249H310.483V257.246Z" fill="white"/>
<path d="M279.58 262.625H203.373V263.628H279.58V262.625Z" fill="white"/>
<path d="M298.268 273.473H203.373V274.475H298.268V273.473Z" fill="white"/>
<path d="M310.483 278.941H203.373V279.944H310.483V278.941Z" fill="white"/>
<path d="M310.483 284.32H203.373V285.323H310.483V284.32Z" fill="white"/>
<path d="M269.188 289.699H203.373V290.702H269.188V289.699Z" fill="white"/>
<path d="M302.735 150.684H176.39V195.26H302.735V150.684Z" fill="#FFC328"/>
<path d="M176.39 166.272V150.684H160.255L176.39 166.272Z" fill="#FFC328"/>
<path d="M268.46 158.979H186.235V159.981H268.46V158.979Z" fill="white"/>
<path d="M293.346 164.357H186.235V165.36H293.346V164.357Z" fill="white"/>
<path d="M293.346 169.826H186.235V170.829H293.346V169.826Z" fill="white"/>
<path d="M281.586 175.205H186.235V176.208H281.586V175.205Z" fill="white"/>
<path d="M293.346 180.582H186.235V181.585H293.346V180.582Z" fill="white"/>
<path d="M254.421 186.053H186.235V187.055H254.421V186.053Z" fill="white"/>
<path d="M302.735 202.461H176.39V235.551H302.735V202.461Z" fill="#FFC328"/>
<path d="M176.39 218.049V202.461H160.255L176.39 218.049Z" fill="#FFC328"/>
<path d="M293.072 210.756H186.235V211.759H293.072V210.756Z" fill="white"/>
<path d="M266.728 216.135H186.235V217.137H266.728V216.135Z" fill="white"/>
<path d="M279.034 221.604H186.235V222.606H279.034V221.604Z" fill="white"/>
<path d="M248.314 226.982H186.235V227.985H248.314V226.982Z" fill="white"/>
<path d="M302.735 311.213H176.39V341.751H302.735V311.213Z" fill="#FFC328"/>
<path d="M176.39 326.801V311.213H160.164L176.39 326.801Z" fill="#FFC328"/>
<path d="M285.05 319.418H186.235V320.421H285.05V319.418Z" fill="white"/>
<path d="M259.435 324.797H186.235V325.8H259.435V324.797Z" fill="white"/>
<path d="M278.213 330.266H186.235V331.268H278.213V330.266Z" fill="white"/>
<path d="M370.556 278.487C386.667 278.487 399.727 265.427 399.727 249.317C399.727 233.207 386.667 220.146 370.556 220.146C354.446 220.146 341.386 233.207 341.386 249.317C341.386 265.427 354.446 278.487 370.556 278.487Z" fill="#A6A6A6"/>
<path d="M362.17 268.734L364.722 280.402L383.592 266.455L390.338 272.654C390.338 272.654 375.206 290.338 362.899 290.338C356.427 290.338 355.151 275.48 355.151 275.48L362.17 268.734Z" fill="#FFC328"/>
<path d="M365.178 282.042C369.918 283.501 378.76 276.755 382.407 271.012C382.68 270.647 382.316 266.272 382.224 260.894C382.133 257.703 382.133 254.057 382.407 250.775C382.498 250.137 361.44 254.33 361.44 254.33C361.44 254.33 362.99 261.349 362.534 267.092C362.534 267.548 362.443 268.004 362.261 268.46C362.261 268.551 362.261 268.551 362.261 268.642C361.623 271.194 360.529 280.584 365.178 282.042Z" fill="#FFBE9D"/>
<path d="M381.04 250.775C379.581 256.518 375.114 269.554 364.267 269.007C363.537 269.007 362.808 268.916 362.17 268.733C362.17 268.642 362.17 268.551 362.17 268.551C362.261 268.095 362.352 267.731 362.443 267.184V267.093C362.626 264.996 362.535 262.717 362.261 260.712C361.896 257.248 361.258 254.422 361.258 254.422L361.441 254.331C363.081 253.966 376.846 251.231 381.04 250.775Z" fill="#263238"/>
<path d="M384.048 224.613C386.6 231.814 383.592 253.145 378.669 258.068C371.377 265.178 359.07 266.363 352.963 257.612C346.946 249.043 351.322 221.422 356.974 216.864C365.178 210.119 380.31 213.947 384.048 224.613Z" fill="#FFBE9D"/>
<path d="M382.225 242.48C377.211 241.751 377.576 232.544 377.576 232.544C377.576 232.544 369.189 229.901 368.916 223.246C368.916 223.246 359.982 227.257 353.966 223.975C347.949 220.694 350.319 213.675 351.231 212.216C352.143 210.758 355.242 214.13 355.242 214.13C355.242 214.13 356.245 210.119 357.43 209.846C358.615 209.573 359.435 212.216 359.435 212.216C359.435 212.216 368.095 210.666 375.479 212.034C382.954 213.31 385.506 221.423 385.506 221.423C385.506 221.423 389.335 222.882 390.247 225.89C391.249 228.807 385.415 242.936 382.225 242.48Z" fill="#263238"/>
<path d="M363.629 239.38C363.629 239.289 363.72 239.471 363.72 239.563C363.446 241.021 363.446 242.662 364.723 243.3V243.391C363.082 242.935 363.173 240.657 363.629 239.38Z" fill="#263238"/>
<path d="M365.087 238.013C367.457 238.104 367.001 242.844 364.814 242.662C362.717 242.571 363.082 237.922 365.087 238.013Z" fill="#263238"/>
<path d="M355.242 238.834C355.242 238.743 355.151 238.925 355.151 238.925C355.06 240.384 354.695 242.025 353.328 242.389V242.48C354.968 242.389 355.333 240.201 355.242 238.834Z" fill="#263238"/>
<path d="M354.057 237.193C351.778 236.828 351.14 241.386 353.237 241.75C355.424 242.115 355.971 237.557 354.057 237.193Z" fill="#263238"/>
<path d="M367.093 236.098C366.455 235.916 365.908 235.551 365.361 235.278C364.723 235.004 364.176 234.822 363.72 234.093C363.538 233.728 363.629 233.181 363.994 232.908C364.723 232.361 365.634 232.543 366.455 232.908C367.366 233.272 367.913 233.819 368.369 234.64C368.825 235.46 367.913 236.372 367.093 236.098Z" fill="#263238"/>
<path d="M352.507 234.64C353.146 234.64 353.784 234.458 354.422 234.367C355.151 234.276 355.698 234.184 356.336 233.729C356.609 233.455 356.609 232.817 356.427 232.544C355.88 231.814 354.877 231.723 354.057 231.814C353.145 231.905 352.416 232.27 351.778 232.999C350.958 233.637 351.687 234.731 352.507 234.64Z" fill="#263238"/>
<path d="M363.628 252.873C363.264 253.146 362.899 253.602 362.352 253.602C361.805 253.602 361.258 253.328 360.803 253.055C360.803 253.055 360.711 253.055 360.711 253.146C361.076 253.693 361.805 254.149 362.443 254.058C363.082 253.966 363.446 253.511 363.72 252.873C363.811 252.873 363.72 252.781 363.628 252.873Z" fill="#263238"/>
<path d="M362.535 248.497C361.623 249.682 360.347 250.229 359.071 250.32C358.524 250.411 357.886 250.32 357.339 250.229C357.248 250.229 357.065 250.229 356.974 250.138C356.883 250.138 356.792 250.046 356.701 250.046C356.518 250.046 356.427 249.864 356.427 249.682C356.427 249.591 356.427 249.591 356.427 249.499V249.408C356.518 248.314 356.792 246.582 356.792 246.582C356.336 246.765 354.239 247.494 354.331 246.856C355.151 242.116 355.971 236.737 357.794 232.179C357.886 231.997 358.068 232.088 358.068 232.271C357.521 236.92 356.062 241.386 355.424 246.035C356.154 245.853 357.248 245.488 357.794 245.58C357.977 245.671 357.156 248.77 357.156 249.317C357.156 249.317 357.156 249.317 357.156 249.408C358.98 249.864 360.438 249.408 362.444 248.406C362.535 248.314 362.626 248.406 362.535 248.497Z" fill="#263238"/>
<path d="M357.977 249.954C357.977 249.954 358.889 251.321 360.165 251.868C360.621 252.051 361.168 252.142 361.714 252.051C362.9 251.777 362.991 250.774 362.808 249.863C362.717 249.134 362.353 248.404 362.353 248.404C362.353 248.404 360.712 249.954 357.977 249.954Z" fill="#263238"/>
<path d="M360.256 251.869C360.712 252.051 361.259 252.142 361.806 252.051C362.991 251.778 363.082 250.775 362.899 249.863C361.714 249.863 360.438 250.684 360.256 251.869Z" fill="#FF99BA"/>
<path d="M380.31 242.025C380.31 242.025 384.959 235.097 388.059 236.738C391.158 238.379 387.785 248.315 384.23 249.773C380.584 251.232 379.216 247.859 379.216 247.859L380.31 242.025Z" fill="#FFBE9D"/>
<path d="M387.056 239.654C387.147 239.654 387.147 239.745 387.056 239.745C384.503 240.839 383.227 243.209 382.316 245.671C383.045 244.668 384.048 244.212 385.324 245.033C385.415 245.124 385.324 245.215 385.233 245.215C384.139 245.033 383.41 245.215 382.771 246.035C382.316 246.673 381.951 247.403 381.586 248.132C381.495 248.405 381.039 248.223 381.131 247.95C381.131 247.95 381.131 247.95 381.131 247.858C381.131 244.668 383.501 240.019 387.056 239.654Z" fill="#263238"/>
<path d="M362.443 267.275L364.996 279.399L382.407 263.811L386.782 268.733C386.782 268.733 369.827 293.346 369.645 292.252L364.54 281.86L357.43 289.244L360.256 270.921L362.443 267.275Z" fill="white"/>
<path d="M360.073 271.011C360.073 270.92 360.255 270.829 360.255 271.011C360.073 274.749 357.703 285.505 357.794 288.24C358.068 287.967 364.449 281.768 364.449 281.859C365.543 283.5 369.28 291.066 369.553 291.795C371.924 288.24 383.136 273.655 385.871 270.008C385.962 269.917 386.144 270.008 386.053 270.1C384.048 274.202 369.918 293.345 369.736 293.345C369.645 293.436 364.904 284.138 364.357 282.315C363.264 283.682 356.883 290.61 356.883 290.154C356.791 286.964 359.07 274.749 360.073 271.011Z" fill="#263238"/>
<path d="M147.341 328.335C158.947 316.73 158.947 297.914 147.341 286.309C135.736 274.704 116.92 274.704 105.315 286.309C93.7097 297.914 93.7097 316.73 105.315 328.335C116.92 339.941 135.736 339.941 147.341 328.335Z" fill="#A6A6A6"/>
<path d="M134.913 326.984L132.27 338.925L114.311 326.619L109.845 333.183C109.845 333.183 121.604 349.044 134.093 349.044C140.656 349.044 141.932 334.003 141.932 334.003L134.913 326.984Z" fill="#FFC328"/>
<path d="M131.905 340.567C127.073 342.025 118.14 335.189 114.403 329.263C114.129 328.899 114.494 324.432 114.676 319.054C114.767 315.772 114.767 312.126 114.494 308.753C114.403 308.024 116.864 309.209 116.864 309.209L121.239 309.938L135.733 312.399C135.733 312.399 134.184 319.509 134.64 325.344C134.64 325.799 134.731 326.255 134.913 326.711C134.913 326.802 134.913 326.893 135.004 326.893C135.46 329.537 136.554 339.108 131.905 340.567Z" fill="#FFBE9D"/>
<path d="M134.822 326.802C134.822 326.893 134.822 326.984 134.913 326.984C134.275 327.166 133.545 327.166 132.725 327.257C118.596 327.896 115.587 310.12 115.587 310.12L121.148 309.938L135.642 312.399C135.642 312.399 134.092 319.509 134.548 325.343C134.639 325.89 134.731 326.346 134.822 326.802Z" fill="#263238"/>
<path d="M112.58 282.136C110.027 289.519 113.035 311.124 118.049 316.137C125.433 323.43 137.921 324.615 144.211 315.682C150.319 307.022 145.852 278.854 140.2 274.205C131.814 267.459 116.408 271.288 112.58 282.136Z" fill="#FFBE9D"/>
<path d="M133.455 297.175C133.455 297.084 133.364 297.266 133.364 297.358C133.637 298.816 133.637 300.548 132.361 301.186V301.277C134.002 300.73 133.911 298.543 133.455 297.175Z" fill="#263238"/>
<path d="M131.905 295.808C129.535 295.899 129.991 300.639 132.179 300.548C134.366 300.457 133.911 295.717 131.905 295.808Z" fill="#263238"/>
<path d="M141.932 296.629C141.932 296.538 142.023 296.72 142.023 296.72C142.114 298.179 142.479 299.82 143.846 300.184V300.275C142.297 300.184 141.841 297.996 141.932 296.629Z" fill="#263238"/>
<path d="M143.117 294.989C145.487 294.624 146.125 299.274 143.937 299.638C141.841 300.003 141.203 295.263 143.117 294.989Z" fill="#263238"/>
<path d="M129.899 293.803C130.538 293.621 131.084 293.256 131.631 292.983C132.27 292.618 132.908 292.436 133.272 291.798C133.455 291.433 133.363 290.886 132.999 290.613C132.27 290.066 131.267 290.248 130.446 290.613C129.535 290.977 128.988 291.524 128.532 292.345C128.076 293.256 129.079 294.077 129.899 293.803Z" fill="#263238"/>
<path d="M144.758 292.345C144.12 292.345 143.482 292.162 142.844 292.071C142.115 291.98 141.477 291.889 140.93 291.342C140.656 291.068 140.656 290.43 140.838 290.157C141.385 289.428 142.388 289.336 143.3 289.428C144.302 289.519 145.032 289.883 145.67 290.613C146.308 291.342 145.579 292.436 144.758 292.345Z" fill="#263238"/>
<path d="M133.363 310.941C133.728 311.214 134.184 311.67 134.64 311.67C135.187 311.67 135.734 311.397 136.189 311.123C136.189 311.123 136.281 311.123 136.281 311.214C135.916 311.852 135.187 312.217 134.457 312.217C133.819 312.126 133.363 311.579 133.181 311.032C133.181 310.85 133.363 310.85 133.363 310.941Z" fill="#263238"/>
<path d="M134.275 307.021C135.733 308.206 140.747 308.206 140.747 308.024L140.382 304.56C140.838 304.742 143.026 305.471 142.935 304.924C142.206 300.093 141.385 294.715 139.562 289.974C139.471 289.792 139.289 289.883 139.289 290.066C139.836 294.715 141.203 299.364 141.841 304.013C141.112 303.83 140.018 303.466 139.38 303.557C139.197 303.648 139.927 306.839 139.927 307.386C139.927 307.386 137.465 307.568 134.548 306.656C134.001 306.383 133.91 306.656 134.275 307.021Z" fill="#263238"/>
<path d="M115.223 299.637C117.046 299.181 118.778 293.074 118.869 287.239C118.869 283.411 120.419 278.671 124.612 277.212C127.438 276.301 132.269 278.579 135.095 277.85C137.921 277.212 138.377 275.571 140.018 275.662C141.568 275.662 143.482 279.765 143.482 279.765C143.482 279.765 140.565 266.911 124.065 271.105C106.654 275.48 110.209 290.339 111.85 295.079C113.309 298.817 115.223 299.637 115.223 299.637Z" fill="#263238"/>
<path d="M116.499 299.91C116.499 299.91 111.759 292.891 108.569 294.532C105.378 296.173 108.842 306.382 112.488 307.841C116.135 309.299 117.593 305.927 117.593 305.927L116.499 299.91Z" fill="#FFBE9D"/>
<path d="M109.663 297.449C109.571 297.449 109.571 297.54 109.663 297.54C112.215 298.634 113.582 301.096 114.494 303.648C113.765 302.645 112.671 302.098 111.395 303.01C111.303 303.101 111.395 303.192 111.486 303.192C112.58 303.01 113.309 303.192 114.038 304.013C114.494 304.651 114.859 305.38 115.223 306.109C115.314 306.383 115.77 306.2 115.679 305.927C115.679 305.927 115.679 305.927 115.679 305.836C115.679 302.554 113.127 297.814 109.663 297.449Z" fill="#263238"/>
<path d="M121.787 187.785C138.854 187.785 152.689 173.95 152.689 156.883C152.689 139.816 138.854 125.98 121.787 125.98C104.72 125.98 90.8843 139.816 90.8843 156.883C90.8843 173.95 104.72 187.785 121.787 187.785Z" fill="#A6A6A6"/>
<path d="M154.148 180.492H151.504C151.231 177.119 149.134 172.014 149.681 174.566C150.137 176.481 150.046 179.033 150.046 180.492H105.469C104.922 175.387 107.201 167.091 107.201 167.091C104.649 171.285 103.646 177.21 103.282 180.492H99.0884C98.6326 177.483 99.7265 172.287 99.7265 172.287C98.5414 174.293 97.9033 178.121 97.5387 180.492H92.7073C92.525 175.387 94.257 168.732 98.2679 162.716C101.55 157.884 97.5387 155.059 97.5387 145.669C97.6298 133.09 106.199 128.349 107.657 126.982C127.165 108.933 144.758 125.706 146.673 137.556C148.496 149.224 145.123 150.774 150.592 161.348C154.603 169.279 154.148 180.492 154.148 180.492Z" fill="#263238"/>
<path d="M101.641 186.964L101.732 187.055C108.204 191.431 120.966 199.179 127.803 196.718C133.09 194.803 136.098 189.425 136.463 187.693C133.728 185.232 129.808 182.953 127.985 181.859C118.049 175.204 108.933 179.215 101.641 186.964Z" fill="#455A64"/>
<path d="M111.395 183.137C111.85 184.595 119.781 193.985 126.709 193.164C128.988 192.891 128.076 180.584 128.076 180.584L128.259 179.673L130.264 166.728L114.585 158.068L112.306 156.975C112.306 156.975 112.033 160.53 111.668 164.996C111.668 165.179 111.668 165.452 111.577 165.635C111.577 165.908 111.486 166.09 111.486 166.364C111.395 167.002 111.395 167.731 111.303 168.369C111.303 168.916 111.212 169.372 111.212 169.919C111.212 170.466 111.121 171.013 111.121 171.56C110.939 177.029 111.212 182.499 111.395 183.137Z" fill="#FFBE9D"/>
<path d="M111.668 164.996C116.044 174.933 124.43 178.488 128.259 179.673L130.264 166.728L114.585 158.068L112.306 156.975C112.306 156.975 111.941 160.53 111.668 164.996Z" fill="#263238"/>
<path d="M146.217 145.123C149.863 167.912 136.645 172.652 131.723 173.382C127.256 174.111 112.033 175.934 106.108 153.692C100.182 131.449 109.572 122.607 119.69 120.419C129.809 118.231 142.662 122.425 146.217 145.123Z" fill="#FFBE9D"/>
<path d="M107.93 155.242C113.673 154.604 113.856 136.828 113.856 134.64C113.947 136.007 114.311 143.3 114.858 143.482C115.041 143.573 115.588 143.391 116.59 143.026C116.499 142.206 116.499 141.295 116.59 140.383C116.59 140.018 116.773 141.203 117.137 142.753C117.411 142.662 117.775 142.48 118.14 142.388C117.958 140.839 117.867 138.924 118.231 136.828C118.322 136.099 118.778 139.198 119.69 141.841C123.518 140.474 129.079 138.56 134.457 137.922C135.916 137.739 137.101 137.648 138.195 137.648C138.012 135.552 137.557 133.273 137.83 133.728C138.377 135.096 138.833 136.463 139.015 137.648C139.562 137.648 140.2 137.648 140.656 137.648C140.565 134.64 138.742 129.9 139.289 130.629C141.385 133.364 142.388 136.281 142.844 137.831C144.94 138.013 145.578 138.377 145.578 137.831C145.578 136.828 143.755 128.532 136.645 122.881C128.988 116.773 114.585 116.226 107.383 127.256C107.383 127.256 101.094 132.088 100.638 139.198C100.182 146.308 104.649 155.697 107.93 155.242Z" fill="#263238"/>
<path d="M136.736 158.432C136.736 158.432 135.916 160.073 134.64 160.894C134.184 161.167 133.546 161.349 132.908 161.349C131.631 161.258 131.358 160.164 131.358 159.071C131.358 158.25 131.631 157.43 131.631 157.43C131.631 157.43 133.819 158.797 136.736 158.432Z" fill="white"/>
<path d="M141.477 142.388C140.93 142.388 140.474 142.297 139.927 142.206C139.289 142.115 138.833 142.115 138.377 141.659C138.104 141.477 138.104 140.93 138.286 140.656C138.742 140.018 139.471 139.927 140.201 140.018C141.021 140.109 141.568 140.383 142.115 140.93C142.753 141.477 142.206 142.388 141.477 142.388Z" fill="#263238"/>
<path d="M126.709 144.212C127.256 144.121 127.712 143.938 128.259 143.756C128.806 143.574 129.353 143.483 129.717 143.027C129.9 142.753 129.9 142.297 129.626 142.024C129.079 141.477 128.259 141.568 127.621 141.751C126.891 141.933 126.344 142.297 125.889 142.936C125.342 143.574 125.98 144.394 126.709 144.212Z" fill="#263238"/>
<path d="M130.264 149.773C130.264 149.682 130.173 149.864 130.173 149.955C130.355 151.505 130.355 153.328 129.079 153.966V154.057C130.72 153.602 130.72 151.231 130.264 149.773Z" fill="#263238"/>
<path d="M128.715 148.314C126.162 148.405 126.527 153.419 128.897 153.327C131.176 153.236 130.811 148.223 128.715 148.314Z" fill="#263238"/>
<path d="M127.712 148.587C127.256 148.86 126.891 149.407 126.344 149.498C125.706 149.589 125.251 149.134 124.795 148.587C124.795 148.495 124.704 148.587 124.704 148.678C124.795 149.68 125.159 150.592 126.253 150.683C127.165 150.774 127.803 149.863 127.985 148.86C128.076 148.769 127.894 148.495 127.712 148.587Z" fill="#263238"/>
<path d="M138.924 148.313C138.924 148.221 139.015 148.404 139.015 148.404C139.107 149.953 139.38 151.777 140.839 152.232C140.839 152.232 140.93 152.324 140.839 152.324C139.198 152.232 138.742 149.862 138.924 148.313Z" fill="#263238"/>
<path d="M140.292 146.581C142.753 146.217 143.3 151.23 141.021 151.595C138.651 151.96 138.195 146.946 140.292 146.581Z" fill="#263238"/>
<path d="M141.386 146.854C141.842 147.037 142.297 147.492 142.753 147.492C143.3 147.492 143.665 146.854 143.938 146.307C143.938 146.216 144.029 146.307 144.029 146.398C144.121 147.401 143.938 148.404 143.027 148.677C142.206 148.951 141.477 148.13 141.203 147.219C141.021 147.037 141.203 146.763 141.386 146.854Z" fill="#263238"/>
<path d="M130.811 161.714C131.176 162.078 131.54 162.534 132.179 162.625C132.726 162.625 133.364 162.352 133.819 162.169C133.911 162.169 133.911 162.169 133.911 162.26C133.546 162.899 132.634 163.263 131.905 163.172C131.176 163.081 130.811 162.443 130.629 161.805C130.72 161.714 130.811 161.622 130.811 161.714Z" fill="#263238"/>
<path d="M136.919 155.515C136.919 155.515 137.466 157.794 137.557 158.888C137.557 158.979 137.283 159.07 136.919 159.07C135.004 159.526 132.999 159.07 131.631 157.52C131.54 157.429 131.631 157.338 131.814 157.338C133.363 158.249 135.004 158.432 136.736 158.341C136.827 158.067 135.734 154.421 135.916 154.421C136.554 154.33 137.739 154.603 138.468 154.785C137.557 149.954 135.825 145.305 134.913 140.474C134.913 140.291 135.095 140.2 135.187 140.383C137.283 145.123 138.559 150.683 139.653 155.606C139.744 156.244 137.374 155.697 136.919 155.515Z" fill="#263238"/>
<path d="M127.621 157.612C124.521 157.612 121.787 155.516 120.966 152.416C120.055 148.77 122.334 145.033 125.98 144.121C129.626 143.209 133.364 145.488 134.275 149.135C135.187 152.781 132.908 156.518 129.262 157.43C128.806 157.521 128.259 157.612 127.621 157.612ZM127.712 144.759C127.256 144.759 126.709 144.85 126.253 144.941C123.063 145.762 121.148 148.952 121.878 152.143C122.698 155.333 125.889 157.248 129.079 156.518C132.27 155.698 134.184 152.507 133.455 149.317C132.817 146.582 130.355 144.759 127.712 144.759Z" fill="#FFC328"/>
<path d="M143.3 155.788C140.656 155.788 138.286 153.054 137.922 149.499C137.739 147.675 138.013 145.943 138.833 144.576C139.654 143.118 140.839 142.297 142.206 142.115C143.573 141.932 144.941 142.571 146.035 143.756C147.129 144.941 147.767 146.581 148.04 148.405C148.496 152.142 146.49 155.515 143.756 155.788C143.573 155.788 143.482 155.788 143.3 155.788ZM142.662 143.026C142.571 143.026 142.388 143.026 142.297 143.026C141.203 143.117 140.292 143.847 139.563 145.032C138.833 146.217 138.56 147.767 138.742 149.407C139.107 152.689 141.294 155.15 143.573 154.877C145.852 154.603 147.402 151.777 147.129 148.496C146.946 146.855 146.308 145.396 145.397 144.394C144.576 143.482 143.665 143.026 142.662 143.026Z" fill="#FFC328"/>
<path d="M134.184 149.862L133.546 149.224C134.457 148.221 136.736 146.763 138.651 148.404L138.013 149.133C136.372 147.675 134.275 149.771 134.184 149.862Z" fill="#FFC328"/>
<path d="M104.011 154.969L103.19 154.604C103.373 154.24 104.74 150.684 106.746 150.137C108.66 149.591 120.966 149.408 121.513 149.408V150.32C117.958 150.411 108.478 150.593 107.019 151.049C105.652 151.414 104.375 154.057 104.011 154.969Z" fill="#FFC328"/>
<path d="M109.936 154.877C109.936 154.877 104.375 148.041 101.276 150.046C98.1767 152.052 102.643 162.17 106.563 163.355C110.483 164.54 111.577 160.894 111.577 160.894L109.936 154.877Z" fill="#FFBE9D"/>
<path d="M102.644 152.963C102.552 152.963 102.552 153.054 102.644 153.054C105.378 153.966 107.019 156.336 108.113 158.797C107.201 157.885 106.108 157.43 104.831 158.432C104.74 158.524 104.831 158.615 104.923 158.615C106.016 158.341 106.837 158.432 107.657 159.253C108.204 159.8 108.66 160.62 109.025 161.258C109.207 161.532 109.572 161.349 109.48 161.076C109.48 161.076 109.48 161.076 109.48 160.985C109.389 157.612 106.381 153.054 102.644 152.963Z" fill="#263238"/>
<path d="M136.554 187.785C136.19 189.517 133.09 194.895 127.894 196.81C121.057 199.271 108.295 191.523 101.823 187.147L101.732 187.056C103.008 185.688 104.376 184.412 105.743 183.318C108.386 184.959 111.303 186.144 114.403 186.965C116.773 187.603 119.325 187.876 121.878 187.876C124.066 187.876 126.253 187.603 128.35 187.147C130.264 186.782 131.996 186.235 133.728 185.506C134.64 186.144 135.643 186.965 136.554 187.785Z" fill="#455A64"/>
<path d="M128.168 187.147C128.077 190.155 127.712 193.164 126.618 193.255C122.151 193.802 117.229 190.064 114.221 186.965C116.591 187.603 119.143 187.876 121.696 187.876C123.975 187.785 126.162 187.603 128.168 187.147Z" fill="#F1986B"/>
</g>
<defs>
<clipPath id="clip0">
<rect width="408.022" height="400" fill="white"/>
</clipPath>
</defs>
</svg>
