<svg width="82" height="40" viewBox="0 0 82 40" fill="none" xmlns="http://www.w3.org/2000/svg">
<g clip-path="url(#clip0)">
<path d="M50.5496 0.03125C49.5511 0.03125 48.724 0.364079 48.0584 1.03982C47.3927 1.70548 47.0498 2.5426 47.0498 3.531V36.5012C47.0498 37.4997 47.3725 38.3268 48.0281 38.9924C48.6736 39.6581 49.4805 40.001 50.4386 40.001C51.4371 40.001 52.2641 39.6682 52.9298 38.9924C53.5954 38.3268 53.9384 37.4896 53.9384 36.5012V3.54108C53.9384 2.5426 53.6257 1.71557 52.9903 1.04991C52.3549 0.38425 51.548 0.03125 50.5496 0.03125Z" fill="white"/>
<path d="M32.1837 26.6875C32.2039 26.8388 32.2241 27.0002 32.2241 27.1716C32.2241 27.4641 32.1837 27.7465 32.103 28.0087C32.1938 27.7566 32.2442 27.4944 32.2442 27.222C32.2543 27.0405 32.2241 26.859 32.1837 26.6875Z" fill="white"/>
<path d="M14.11 0C13.999 0 13.9083 0 13.8377 0C9.56131 0 8.0888 1.4826 6.54568 2.73323C5.32531 3.73172 2.82405 6.79778 1.29102 8.72416H23.2678H25.0933C25.5068 8.72416 25.9002 8.80484 26.2532 8.94604C24.7908 3.61069 20.5548 0 14.11 0Z" fill="white"/>
<path d="M14.11 0C13.999 0 13.9083 0 13.8377 0C9.56131 0 8.0888 1.4826 6.54568 2.73323C5.32531 3.73172 2.82405 6.79778 1.29102 8.72416H23.2678H25.0933C25.5068 8.72416 25.9002 8.80484 26.2532 8.94604C24.7908 3.61069 20.5548 0 14.11 0Z" fill="white"/>
<path d="M36.9844 16.1876C36.9541 16.1876 40.474 14.9471 40.474 8.96621C40.474 5.10338 36.8633 0 29.4907 0H19.526C19.526 0 26.586 1.9062 28.2199 9.52093C28.2905 9.86384 28.704 11.8608 27.887 13.3232C27.6147 13.8175 27.2012 14.2411 26.586 14.5335C26.1422 14.7857 25.6278 14.9269 25.0832 14.9269H2.57186C1.13969 15.0479 0 16.3389 0 17.9324V36.6515C0 38.3157 1.24054 39.6672 2.77358 39.6672H34.1503C39.7176 39.6672 44.4377 34.231 44.4377 27.9072C44.4478 18.2653 37.8316 16.349 36.9844 16.1876ZM32.1029 27.998C31.7398 29.299 30.5396 30.2572 29.1276 30.2572H12.8795C11.1649 30.2572 9.78316 28.8654 9.78316 27.1609C9.78316 25.4564 11.175 24.0646 12.8795 24.0646H29.1276C30.6808 24.0646 31.9516 25.2042 32.1836 26.6868C32.2239 26.8583 32.2441 27.0398 32.2441 27.2214C32.2542 27.4937 32.2037 27.7458 32.1029 27.998Z" fill="white"/>
<path d="M81.5433 26.6874C81.5433 29.2189 80.9785 31.4479 79.859 33.3743C78.7294 35.3006 77.2266 36.8034 75.3305 37.8826C73.4344 38.9618 71.3164 39.4963 68.9765 39.4963C66.6366 39.4963 64.5186 38.9618 62.6225 37.8826C60.7264 36.8034 59.2135 35.3006 58.094 33.3743C56.9644 31.4479 56.4097 29.2189 56.4097 26.6874C56.4097 24.1559 56.9745 21.937 58.094 20.0006C59.2034 18.0843 60.7163 16.5714 62.6124 15.4721C64.5085 14.3828 66.6265 13.8281 68.9664 13.8281C71.3063 13.8281 73.4243 14.3728 75.3204 15.4721C77.2165 16.5714 78.7294 18.0742 79.8489 20.0006C80.9785 21.9471 81.5433 24.166 81.5433 26.6874ZM75.9962 26.6874C75.9962 25.1141 75.6835 23.7525 75.0481 22.5926C74.4127 21.4328 73.5655 20.5351 72.5065 19.8896C71.4475 19.2442 70.2675 18.9214 68.9664 18.9214C67.6653 18.9214 66.4954 19.2442 65.4263 19.8896C64.3572 20.5351 63.51 21.4428 62.8847 22.5926C62.2493 23.7525 61.9366 25.1141 61.9366 26.6874C61.9366 28.2305 62.2493 29.582 62.8847 30.7318C63.5201 31.8917 64.3673 32.7893 65.4263 33.4348C66.4853 34.0803 67.6653 34.403 68.9664 34.403C70.2675 34.403 71.4374 34.0803 72.5065 33.4348C73.5756 32.7893 74.4228 31.8816 75.0481 30.7318C75.6835 29.582 75.9962 28.2305 75.9962 26.6874Z" fill="white"/>
</g>
<defs>
<clipPath id="clip0">
<rect width="81.5431" height="40" fill="white"/>
</clipPath>
</defs>
</svg>
