<svg width="30" height="30" viewBox="0 0 30 30" fill="none" xmlns="http://www.w3.org/2000/svg">
<g clip-path="url(#clip0)">
<path d="M6.54799 0.479782C5.37431 -0.168932 3.99626 -0.153933 2.83008 0.489156L16.4981 13.0978L21.0897 8.5062L6.54799 0.479782Z" fill="white"/>
<path d="M1.46345 1.7793C1.12972 2.32489 0.938477 2.94923 0.938477 3.61107V26.3835C0.938477 27.0247 1.11284 27.636 1.42782 28.1703L15.1727 14.4255L1.46345 1.7793Z" fill="white"/>
<path d="M27.1773 11.866L22.7976 9.44922L17.876 14.3689L23.9075 19.9318L27.1792 18.1262C28.3566 17.4738 29.0616 16.3038 29.0616 14.9952C29.0597 13.6865 28.3566 12.5165 27.1773 11.866Z" fill="white"/>
<path d="M16.5504 15.6973L2.76807 29.4796C3.36616 29.8208 4.02237 30.0008 4.68233 30.0008C5.3198 30.0008 5.96101 29.8396 6.54785 29.5152L22.1788 20.8888L16.5504 15.6973Z" fill="white"/>
</g>
<defs>
<clipPath id="clip0">
<rect width="30" height="30" fill="white"/>
</clipPath>
</defs>
</svg>
