<svg width="34" height="31" viewBox="0 0 34 31" fill="none" xmlns="http://www.w3.org/2000/svg">
<path d="M7.16662 28.7588C6.70721 29.5545 5.87074 29.9998 5.01183 29.9999C4.59076 29.9999 4.16443 29.8929 3.77436 29.6678C2.58854 28.9832 2.18079 27.4614 2.86538 26.2756L3.35379 25.4297H9.08868L7.16662 28.7588Z" fill="white"/>
<path d="M2.48328 23.4415C1.114 23.4415 0 22.3275 0 20.9582C0 19.5889 1.114 18.4749 2.48328 18.4749H7.3682L14.0685 6.86964L12.2526 3.72442C11.568 2.5386 11.9757 1.01684 13.1615 0.332152H13.1616C14.3474 -0.352439 15.8692 0.0554152 16.5538 1.24113L16.936 1.90318L17.3182 1.24123C18.0031 0.0553158 19.5249 -0.35234 20.7104 0.332251C21.2848 0.663919 21.6957 1.19941 21.8674 1.8401C22.0391 2.48079 21.9509 3.15008 21.6193 3.72452L13.1031 18.4749H18.4748L21.3423 23.4415H2.48328Z" fill="white"/>
<path d="M31.3888 23.4427H29.3713L31.0066 26.2752C31.6913 27.4609 31.2836 28.9826 30.0978 29.6673C29.7151 29.8882 29.2904 30.0012 28.8601 30.0012C28.6443 30.0012 28.4274 29.9729 28.2133 29.9154C27.5725 29.7437 27.037 29.3328 26.7054 28.7582L18.083 13.824L20.9504 8.85742L26.5039 18.4762H31.3888C32.7581 18.4762 33.8721 19.5902 33.8721 20.9594C33.8721 22.3287 32.7581 23.4427 31.3888 23.4427Z" fill="white"/>
<path d="M16.936 18.4766V23.4431H21.3424L18.475 18.4766H16.936Z" fill="white"/>
<path d="M21.8674 1.84007C21.6957 1.19938 21.2849 0.663785 20.7104 0.332217C19.5248 -0.352374 18.0031 0.0551821 17.3183 1.2412L16.936 1.90314V11.8363L21.6193 3.72448C21.951 3.15005 22.0392 2.48085 21.8674 1.84007Z" fill="white"/>
</svg>
