<svg width="155" height="48" viewBox="0 0 155 48" fill="none" xmlns="http://www.w3.org/2000/svg">
<rect width="155" height="48" rx="10" fill="#002A58"/>
<path d="M57.5 20H58.24V13.64H60.7V13H55.04V13.64H57.5V20ZM63.2192 12.49C63.5392 12.49 63.7692 12.7 63.7692 12.98C63.7692 13.28 63.5792 13.51 63.1792 13.69L63.4292 14C63.9692 13.75 64.2292 13.4 64.2292 12.93C64.2292 12.4 63.8392 12.07 63.2792 12.07C62.9892 12.07 62.6692 12.16 62.4492 12.33L62.6192 12.68C62.8192 12.55 63.0092 12.49 63.2192 12.49ZM63.2792 14.7C62.4492 14.7 61.6692 14.96 61.1392 15.41L61.4592 15.94C61.8892 15.56 62.5292 15.32 63.2092 15.32C64.1892 15.32 64.6992 15.81 64.6992 16.71V17.03H63.0292C61.5192 17.03 60.9992 17.71 60.9992 18.52C60.9992 19.43 61.7292 20.05 62.9192 20.05C63.7892 20.05 64.4092 19.72 64.7292 19.18V20H65.4092V16.74C65.4092 15.38 64.6392 14.7 63.2792 14.7ZM63.0292 19.49C62.1892 19.49 61.6992 19.11 61.6992 18.5C61.6992 17.96 62.0292 17.56 63.0492 17.56H64.6992V18.42C64.4192 19.11 63.8292 19.49 63.0292 19.49ZM67.6977 13.59C67.9977 13.59 68.2177 13.36 68.2177 13.07C68.2177 12.8 67.9877 12.58 67.6977 12.58C67.4077 12.58 67.1777 12.81 67.1777 13.08C67.1777 13.36 67.4077 13.59 67.6977 13.59ZM67.3377 20H68.0477V14.74H67.3377V20ZM76.3604 14.74L74.3704 19.22L72.4004 14.74H71.6604L73.9904 20H74.7204L77.0604 14.74H76.3604ZM82.0838 13.09L80.8838 12H80.0138L81.4638 13.09H82.0838ZM79.9538 13.34L80.9238 13.93H81.6038L80.3038 12.99H79.6038L78.3038 13.93H78.9838L79.9538 13.34ZM82.5038 17.37C82.5038 15.79 81.4338 14.7 79.9538 14.7C78.4738 14.7 77.3838 15.81 77.3838 17.37C77.3838 18.93 78.5038 20.05 80.1438 20.05C80.9738 20.05 81.7038 19.75 82.1738 19.19L81.7738 18.73C81.3738 19.19 80.8038 19.42 80.1638 19.42C79.0138 19.42 78.1738 18.69 78.0938 17.59H82.4938C82.4938 17.51 82.5038 17.43 82.5038 17.37ZM79.9538 15.31C80.9838 15.31 81.7338 16.03 81.8238 17.06H78.0938C78.1838 16.03 78.9338 15.31 79.9538 15.31ZM88.7462 20.05C89.6362 20.05 90.3862 19.69 90.8062 19.01L90.2762 18.65C89.9162 19.18 89.3562 19.42 88.7462 19.42C87.5962 19.42 86.7562 18.61 86.7562 17.37C86.7562 16.14 87.5962 15.32 88.7462 15.32C89.3562 15.32 89.9162 15.57 90.2762 16.1L90.8062 15.74C90.3862 15.05 89.6362 14.7 88.7462 14.7C87.1762 14.7 86.0362 15.8 86.0362 17.37C86.0362 18.94 87.1762 20.05 88.7462 20.05ZM94.8028 14.7C93.9128 14.7 93.2228 15.05 92.8328 15.66V12.58H92.1228V20H92.8328V17.24C92.8328 16.04 93.5428 15.34 94.6728 15.34C95.6728 15.34 96.2528 15.91 96.2528 17.02V20H96.9628V16.95C96.9628 15.44 96.0828 14.7 94.8028 14.7ZM101.06 20.05C102.6 20.05 103.73 18.93 103.73 17.37C103.73 15.81 102.6 14.7 101.06 14.7C99.5199 14.7 98.3799 15.81 98.3799 17.37C98.3799 18.93 99.5199 20.05 101.06 20.05ZM101.06 19.42C99.9399 19.42 99.0999 18.6 99.0999 17.37C99.0999 16.14 99.9399 15.32 101.06 15.32C102.18 15.32 103.01 16.14 103.01 17.37C103.01 18.6 102.18 19.42 101.06 19.42Z" fill="white"/>
<path d="M65.32 37.3105L65.308 28.9105H64.024L60.748 34.4785L57.412 28.9105H56.128V37.3105H57.616V31.8145L60.376 36.3505H61.072L63.832 31.7425L63.844 37.3105H65.32ZM73.8769 37.3105H75.5089L71.7169 28.9105H70.1809L66.4009 37.3105H68.0089L68.8369 35.3665H73.0369L73.8769 37.3105ZM69.3649 34.1425L70.9369 30.4705L72.5209 34.1425H69.3649ZM80.348 37.4305C81.728 37.4305 82.904 36.9385 83.684 36.0265L82.676 35.0665C82.064 35.7385 81.308 36.0625 80.432 36.0625C78.692 36.0625 77.432 34.8385 77.432 33.1105C77.432 31.3825 78.692 30.1585 80.432 30.1585C81.308 30.1585 82.064 30.4825 82.676 31.1425L83.684 30.1945C82.904 29.2825 81.728 28.7905 80.36 28.7905C77.78 28.7905 75.86 30.6025 75.86 33.1105C75.86 35.6185 77.78 37.4305 80.348 37.4305ZM92.4192 37.4305C95.0232 37.4305 96.9432 35.6065 96.9432 33.1105C96.9432 30.6145 95.0232 28.7905 92.4192 28.7905C89.8152 28.7905 87.8952 30.6265 87.8952 33.1105C87.8952 35.5945 89.8152 37.4305 92.4192 37.4305ZM92.4192 36.0625C90.7272 36.0625 89.4672 34.8265 89.4672 33.1105C89.4672 31.3945 90.7272 30.1585 92.4192 30.1585C94.1112 30.1585 95.3712 31.3945 95.3712 33.1105C95.3712 34.8265 94.1112 36.0625 92.4192 36.0625ZM101.201 37.4305C103.505 37.4305 104.597 36.2785 104.597 34.9345C104.597 31.8505 99.6168 33.0145 99.6168 31.2265C99.6168 30.5905 100.145 30.0865 101.441 30.0865C102.173 30.0865 103.001 30.3025 103.757 30.7465L104.249 29.5345C103.517 29.0545 102.461 28.7905 101.453 28.7905C99.1488 28.7905 98.0688 29.9425 98.0688 31.2985C98.0688 34.4185 103.061 33.2305 103.061 35.0425C103.061 35.6665 102.509 36.1345 101.201 36.1345C100.169 36.1345 99.1008 35.7505 98.4288 35.2105L97.8888 36.4225C98.5848 37.0225 99.8928 37.4305 101.201 37.4305Z" fill="white"/>
<path d="M39.515 22.8903C39.4823 19.353 42.4856 17.632 42.623 17.5519C40.9221 15.134 38.2857 14.8037 37.3593 14.7773C35.1451 14.5501 32.9973 16.0691 31.8693 16.0691C30.7189 16.0691 28.9819 14.7993 27.1099 14.8366C24.701 14.8728 22.4473 16.2327 21.2113 18.3443C18.6605 22.65 20.5629 28.9773 23.0068 32.4576C24.2293 34.1621 25.6578 36.0652 27.5276 35.9983C29.3568 35.9247 30.0401 34.8612 32.2475 34.8612C34.4348 34.8612 35.0764 35.9983 36.9833 35.9555C38.9465 35.9247 40.1825 34.2433 41.3622 32.5235C42.7749 30.5698 43.3423 28.6459 43.3648 28.5471C43.3186 28.5317 39.5521 27.1301 39.515 22.8903Z" fill="white"/>
<path d="M35.9128 12.4878C36.8966 11.2882 37.5698 9.65619 37.3829 8C35.9589 8.06146 34.1781 8.96035 33.1526 10.1336C32.2453 11.1675 31.4348 12.8621 31.6442 14.4557C33.2438 14.5721 34.8861 13.6688 35.9128 12.4878Z" fill="white"/>
</svg>
