<svg width="50" height="50" viewBox="0 0 50 50" fill="none" xmlns="http://www.w3.org/2000/svg">
<path d="M21.4362 32.0002L24.2826 35.0678C24.4674 35.2669 24.7268 35.3801 24.9984 35.3801C25.2701 35.3801 25.5295 35.2669 25.7143 35.0678L28.5607 32.0002H33.5739C34.929 32.0002 36.0314 30.899 36.0314 29.5454V20.8423C36.0314 19.4872 34.929 18.3848 33.5739 18.3848H16.423C15.0695 18.3848 13.9683 19.4872 13.9683 20.8423V29.5454C13.9683 30.8989 15.0694 32.0002 16.423 32.0002H21.4362ZM15.9214 29.5454V20.8423C15.9214 20.5688 16.1512 20.3379 16.423 20.3379H33.574C33.8475 20.3379 34.0784 20.5688 34.0784 20.8423V29.5454C34.0784 29.8173 33.8475 30.0471 33.574 30.0471H28.1348C27.8631 30.0471 27.6037 30.1603 27.4189 30.3594L24.9985 32.9678L22.5782 30.3594C22.3935 30.1603 22.1341 30.0471 21.8624 30.0471H16.4231C16.1512 30.0471 15.9214 29.8173 15.9214 29.5454Z" fill="#0069DB"/>
<path d="M30.252 26.1689C30.7912 26.1689 31.2285 25.7316 31.2285 25.1923V25.1867C31.2285 24.6475 30.7912 24.2129 30.252 24.2129C29.7127 24.2129 29.2754 24.6529 29.2754 25.1922C29.2754 25.7315 29.7127 26.1689 30.252 26.1689Z" fill="#0069DB"/>
<path d="M24.998 26.1689C25.5373 26.1689 25.9746 25.7316 25.9746 25.1923V25.1867C25.9746 24.6475 25.5373 24.2129 24.998 24.2129C24.4588 24.2129 24.0215 24.6529 24.0215 25.1922C24.0215 25.7315 24.4588 26.1689 24.998 26.1689Z" fill="#0069DB"/>
<path d="M19.7471 26.1689C20.2863 26.1689 20.7236 25.7316 20.7236 25.1923V25.1867C20.7236 24.6475 20.2863 24.2129 19.7471 24.2129C19.2078 24.2129 18.7705 24.6529 18.7705 25.1922C18.7705 25.7315 19.2077 26.1689 19.7471 26.1689Z" fill="#0069DB"/>
<path d="M44.053 32.643C45.029 30.217 45.5233 27.651 45.5233 24.9985C45.5233 22.3476 45.0289 19.7822 44.0527 17.3563C45.2899 16.9181 46.4251 16.2061 47.3829 15.2501C50.8641 11.7655 50.864 6.09834 47.3826 2.6168C45.6951 0.929395 43.4513 0 41.0646 0C38.6766 0 36.4335 0.92959 34.7495 2.6165C33.7927 3.57256 33.0802 4.70762 32.6419 5.946C30.2132 4.96846 27.6475 4.47334 24.9985 4.47334C22.3449 4.47334 19.7775 4.96816 17.3505 5.94522C16.9211 4.729 16.2216 3.58779 15.2507 2.6168C13.5633 0.929395 11.3195 0 8.93272 0C6.54463 0 4.30156 0.92959 2.61768 2.6165C0.929688 4.30303 0 6.54619 0 8.93262C0 11.3188 0.92959 13.5625 2.61738 15.2505C3.57344 16.2064 4.70791 16.9186 5.94531 17.3567C5.54971 18.3444 5.22959 19.364 4.99141 20.4008C4.8707 20.9265 5.19893 21.4504 5.72461 21.5711C5.79814 21.588 5.87168 21.5961 5.94404 21.5961C6.38906 21.5961 6.79111 21.29 6.89492 20.8379C7.13311 19.801 7.4626 18.7836 7.87402 17.8028C8.22295 17.8438 8.57598 17.8672 8.93272 17.8672C11.3164 17.8672 13.56 16.938 15.251 15.25C17.2604 13.2388 18.1074 10.5006 17.7972 7.8751C20.0751 6.91445 22.4938 6.42637 24.9986 6.42637C27.4987 6.42637 29.9159 6.91475 32.1959 7.87598C32.1551 8.22422 32.1318 8.57646 32.1318 8.93252C32.1318 11.3188 33.0614 13.5624 34.7492 15.2504C36.4368 16.9378 38.6796 17.8672 41.0646 17.8672C41.4212 17.8672 41.774 17.8438 42.123 17.8028C43.0825 20.0797 43.5702 22.4963 43.5702 24.9984C43.5702 27.5022 43.0826 29.9198 42.123 32.1968C41.774 32.1559 41.4212 32.1326 41.0645 32.1326C38.6766 32.1326 36.4335 33.0622 34.7494 34.7491C33.0614 36.4357 32.1317 38.6789 32.1317 41.0652C32.1317 41.4219 32.1551 41.7748 32.196 42.1237C29.919 43.0832 27.5018 43.5708 24.9984 43.5708C22.4937 43.5708 20.075 43.0827 17.797 42.1221C18.107 39.4963 17.26 36.759 15.2505 34.7495C13.563 33.0621 11.3192 32.1327 8.93252 32.1327C8.57676 32.1327 8.22481 32.1559 7.87676 32.1966C7.46475 31.2177 7.13516 30.2038 6.89727 29.1723C6.77608 28.6467 6.25166 28.3183 5.72627 28.4401C5.20068 28.5613 4.87295 29.0855 4.99414 29.6111C5.23184 30.6421 5.55186 31.6571 5.94727 32.6418C4.70791 33.0799 3.57266 33.7924 2.61748 34.7492C0.929687 36.4359 0 38.679 0 41.0653C0 43.4516 0.92959 45.6952 2.61738 47.3832C4.30479 49.0706 6.54756 50 8.93272 50C11.3165 50 13.5602 49.0708 15.251 47.3828C16.2221 46.4108 16.9215 45.2689 17.3509 44.0521C19.7778 45.0292 22.3451 45.5239 24.9986 45.5239C27.6506 45.5239 30.2165 45.0297 32.6424 44.0537C33.0807 45.2918 33.793 46.4269 34.7492 47.3832C36.4367 49.0706 38.6795 50 41.0646 50C43.4483 50 45.692 49.0708 47.3829 47.3828C50.8641 43.8983 50.864 38.2311 47.3826 34.7495C46.4264 33.7934 45.2912 33.0812 44.053 32.643ZM8.93272 15.9142C8.48369 15.9142 8.04141 15.871 7.60986 15.7886C7.53389 15.762 7.45645 15.7466 7.379 15.7394C6.57969 15.5583 5.82168 15.2382 5.13418 14.7899C5.28047 13.6568 5.93242 12.6402 6.90498 12.0276C7.5041 12.3681 8.1959 12.5635 8.93272 12.5635C9.67031 12.5635 10.3627 12.3679 10.9624 12.0272C11.9341 12.6396 12.5854 13.6565 12.7313 14.7904C11.6091 15.521 10.3007 15.9142 8.93272 15.9142ZM6.76465 8.43955C6.76465 7.24248 7.73721 6.26875 8.93262 6.26875C10.1296 6.26875 11.1034 7.24258 11.1034 8.43955C11.1034 9.63652 10.1296 10.6104 8.93262 10.6104C7.73721 10.6103 6.76465 9.63652 6.76465 8.43955ZM14.3703 13.3107C13.9889 12.2613 13.3076 11.3358 12.4079 10.6555C12.8178 10.0149 13.0565 9.25478 13.0565 8.43955C13.0565 6.16562 11.2066 4.31563 8.93262 4.31563C6.66016 4.31563 4.81152 6.16562 4.81152 8.43955C4.81152 9.25488 5.0501 10.0149 5.45977 10.6555C4.55957 11.3356 3.87793 12.2605 3.496 13.3091C2.49688 12.0723 1.95303 10.5442 1.95303 8.93252C1.95303 7.06816 2.6793 5.31572 3.99893 3.99717C5.31484 2.6791 7.0669 1.95312 8.93272 1.95312C10.7979 1.95312 12.5512 2.6793 13.8696 3.99785C16.4112 6.53955 16.5773 10.5718 14.3703 13.3107ZM8.93272 48.0469C7.56299 48.0469 6.2541 47.6532 5.13262 46.9216C5.2793 45.7876 5.9333 44.7719 6.90703 44.1614C7.50576 44.5012 8.19678 44.6962 8.93281 44.6962C9.66963 44.6962 10.3613 44.501 10.9606 44.161C11.9334 44.7712 12.5867 45.7873 12.7331 46.9221C11.6104 47.6533 10.3015 48.0469 8.93272 48.0469ZM6.76465 40.5723C6.76465 39.3752 7.73721 38.4015 8.93262 38.4015C10.1296 38.4015 11.1034 39.3753 11.1034 40.5723C11.1034 41.7692 10.1296 42.7431 8.93262 42.7431C7.73721 42.7431 6.76465 41.7693 6.76465 40.5723ZM14.3706 45.443C13.9891 44.3933 13.3086 43.4671 12.4081 42.7879C12.8179 42.1474 13.0565 41.3874 13.0565 40.5723C13.0565 38.2983 11.2066 36.4483 8.93262 36.4483C6.66016 36.4483 4.81152 38.2983 4.81152 40.5723C4.81152 41.3874 5.0501 42.1474 5.45947 42.7879C4.55869 43.4669 3.87773 44.3926 3.4957 45.4415C2.49678 44.2047 1.95313 42.677 1.95313 41.0653C1.95313 39.201 2.67939 37.4486 3.99902 36.13C5.31494 34.8118 7.06699 34.0858 8.93272 34.0858C10.7978 34.0858 12.5511 34.812 13.8696 36.1306C16.411 38.6721 16.5772 42.7041 14.3706 45.443ZM35.6279 13.3092C34.6288 12.0724 34.085 10.5443 34.085 8.93262C34.085 7.06826 34.8112 5.31582 36.1309 3.99727C37.4468 2.6791 39.1988 1.95312 41.0646 1.95312C42.9297 1.95312 44.683 2.6793 46.0016 3.99785C48.5432 6.53955 48.7093 10.5721 46.5021 13.311C46.1205 12.2619 45.4404 11.3352 44.5403 10.6546C44.9499 10.0143 45.1885 9.25439 45.1885 8.43945C45.1885 6.16553 43.3386 4.31553 41.0646 4.31553C38.7921 4.31553 36.9435 6.16553 36.9435 8.43945C36.9435 9.2542 37.1817 10.0139 37.5909 10.6541C36.6903 11.3344 36.0099 12.2604 35.6279 13.3092ZM43.2353 8.43955C43.2353 9.63652 42.2614 10.6104 41.0645 10.6104C39.869 10.6104 38.8965 9.63652 38.8965 8.43955C38.8965 7.24248 39.869 6.26875 41.0645 6.26875C42.2615 6.26865 43.2353 7.24248 43.2353 8.43955ZM41.0646 15.9142C39.6956 15.9142 38.3872 15.5208 37.266 14.7898C37.4124 13.6567 38.0642 12.6403 39.0372 12.0278C39.6363 12.3681 40.3278 12.5635 41.0646 12.5635C41.8019 12.5635 42.4939 12.3681 43.0936 12.0276C44.0658 12.6405 44.7171 13.6572 44.8632 14.7904C43.7408 15.521 42.4325 15.9142 41.0646 15.9142ZM41.0646 48.0469C39.6955 48.0469 38.3872 47.6535 37.266 46.9226C37.4124 45.7883 38.0648 44.772 39.0388 44.1614C39.6375 44.5012 40.3285 44.6963 41.0646 44.6963C41.8012 44.6963 42.4928 44.5012 43.092 44.1613C44.0651 44.7723 44.7171 45.7888 44.8632 46.9232C43.7409 47.6537 42.4325 48.0469 41.0646 48.0469ZM38.8966 40.5723C38.8966 39.3752 39.8691 38.4015 41.0646 38.4015C42.2615 38.4015 43.2354 39.3753 43.2354 40.5723C43.2354 41.7692 42.2615 42.7431 41.0646 42.7431C39.8691 42.7431 38.8966 41.7693 38.8966 40.5723ZM46.5022 45.4436C46.1206 44.3941 45.4402 43.4679 44.5397 42.7883C44.9496 42.1477 45.1885 41.3876 45.1885 40.5723C45.1885 38.2983 43.3386 36.4483 41.0646 36.4483C38.7921 36.4483 36.9435 38.2983 36.9435 40.5723C36.9435 41.3874 37.182 42.1474 37.5915 42.7879C36.6906 43.467 36.0099 44.3928 35.6278 45.4418C34.6288 44.205 34.085 42.6771 34.085 41.0653C34.085 39.201 34.8112 37.4486 36.1309 36.1301C37.4469 34.8118 39.1989 34.0858 41.0646 34.0858C42.9296 34.0858 44.6829 34.8121 46.0016 36.1306C48.5432 38.6723 48.7092 42.7047 46.5022 45.4436Z" fill="#0069DB"/>
<path d="M6.42676 25.0048V24.9991C6.42676 24.4599 5.98945 24.0254 5.4502 24.0254C4.91094 24.0254 4.47363 24.4654 4.47363 25.0047C4.47363 25.5439 4.91094 25.9812 5.4502 25.9812C5.98945 25.9812 6.42676 25.544 6.42676 25.0048Z" fill="#0069DB"/>
</svg>
