<svg width="50" height="50" viewBox="0 0 50 50" fill="none" xmlns="http://www.w3.org/2000/svg">
<path fill-rule="evenodd" clip-rule="evenodd" d="M50 25C50 38.8 38.775 50 25 50L24.3006 49.9904C10.8236 49.6196 0 38.5661 0 25C0 11.225 11.2 0 25 0C38.775 0 50 11.225 50 25ZM20.0497 15.0012C19.3247 15.7512 19.3247 16.9262 20.0747 17.6512L27.4497 25.0012L20.0747 32.3512C19.3247 33.0762 19.3247 34.2762 20.0497 35.0012C20.7997 35.7512 21.9747 35.7512 22.6997 35.0012L31.4247 26.3262C31.7747 25.9762 31.9747 25.5012 31.9747 25.0012C31.9747 24.5012 31.7747 24.0262 31.4247 23.6762L22.6997 15.0012C22.3497 14.6262 21.8747 14.4512 21.3997 14.4512C20.8997 14.4512 20.4247 14.6262 20.0497 15.0012Z" fill="#0079FF"/>
</svg>
