<svg width="18" height="18" viewBox="0 0 18 18" fill="none" xmlns="http://www.w3.org/2000/svg">
<path opacity="0.4" d="M11.1761 3.14059C10.7477 3.06144 10.3542 3.33485 10.2727 3.75307C10.1911 4.17128 10.4654 4.5796 10.8822 4.66144C12.137 4.90608 13.1059 5.87741 13.3515 7.13654V7.13744C13.4214 7.49989 13.7405 7.76341 14.108 7.76341C14.1573 7.76341 14.2066 7.75892 14.2568 7.74992C14.6736 7.66628 14.9478 7.25886 14.8663 6.83975C14.4997 4.95914 13.0521 3.50664 11.1761 3.14059Z" fill="white"/>
<path opacity="0.4" d="M11.1204 0.00713679C10.9196 -0.0216434 10.7179 0.0377158 10.5575 0.165428C10.3926 0.294939 10.2895 0.482011 10.2671 0.691567C10.2196 1.11518 10.5252 1.49831 10.9483 1.54598C13.8658 1.87156 16.1334 4.1443 16.4615 7.07089C16.5054 7.46302 16.8343 7.75891 17.2269 7.75891C17.2565 7.75891 17.2852 7.75711 17.3148 7.75352C17.52 7.73103 17.7029 7.6294 17.8319 7.46751C17.9601 7.30562 18.0184 7.10416 17.9951 6.8982C17.5864 3.24671 14.7603 0.412758 11.1204 0.00713679Z" fill="white"/>
<path d="M14.0442 11.4055C13.4607 11.2814 12.9991 11.5512 12.5904 11.7869C12.1718 12.0297 11.375 12.6728 10.9197 12.5073C8.58388 11.5503 6.38702 9.51323 5.43603 7.17843C5.26842 6.71345 5.91108 5.9157 6.15219 5.49479C6.38792 5.08647 6.65323 4.62149 6.53222 4.03689C6.42287 3.51075 5.00849 1.71828 4.50835 1.22812C4.17761 0.904344 3.8406 0.726266 3.49373 0.696586C2.18959 0.641724 0.733088 2.37483 0.477639 2.78945C-0.163224 3.67354 -0.158742 4.84993 0.488395 6.27635C2.04798 10.1077 7.9466 15.8899 11.8079 17.5015C12.5196 17.8334 13.1721 17.9998 13.7574 17.9998C14.3301 17.9998 14.8401 17.8406 15.2784 17.5249C15.6083 17.3352 17.4206 15.8125 17.3722 14.4787C17.3444 14.1388 17.1661 13.7988 16.8452 13.4696C16.3558 12.9669 14.5686 11.5162 14.0442 11.4055Z" fill="white"/>
</svg>
