<svg width="50" height="50" viewBox="0 0 50 50" fill="none" xmlns="http://www.w3.org/2000/svg">
<path fill-rule="evenodd" clip-rule="evenodd" d="M0 25C0 38.8 11.225 50 25 50L25.6994 49.9904C39.1764 49.6196 50 38.5661 50 25C50 11.225 38.8 0 25 0C11.225 0 0 11.225 0 25ZM29.9505 15.0012C30.6755 15.7512 30.6755 16.9262 29.9255 17.6512L22.5505 25.0012L29.9255 32.3512C30.6755 33.0762 30.6755 34.2762 29.9505 35.0012C29.2005 35.7512 28.0255 35.7512 27.3005 35.0012L18.5755 26.3262C18.2255 25.9762 18.0255 25.5012 18.0255 25.0012C18.0255 24.5012 18.2255 24.0262 18.5755 23.6762L27.3005 15.0012C27.6505 14.6262 28.1255 14.4512 28.6005 14.4512C29.1005 14.4512 29.5755 14.6262 29.9505 15.0012Z" fill="#999999"/>
</svg>
