<svg width="42" height="50" viewBox="0 0 42 50" fill="none" xmlns="http://www.w3.org/2000/svg">
<path d="M41.0157 8.78917C41.0157 8.31157 40.6704 7.90416 40.1997 7.82595L38.1138 7.47805C31.9657 6.45342 26.0803 3.93534 21.0938 0.195408C20.7466 -0.065136 20.269 -0.065136 19.9219 0.195408C14.9353 3.93534 9.05 6.45342 2.90184 7.47805L0.815965 7.82595C0.34523 7.90416 0 8.31157 0 8.78917V16.211C0 26.325 2.89917 35.9376 10.0487 43.1459C15.0372 48.1748 19.9883 49.8792 20.1966 49.949C20.2973 49.9834 20.4025 50.0001 20.5078 50.0001C20.6127 50.0001 20.718 49.983 20.8191 49.949C21.0274 49.8792 25.9785 48.1748 30.9666 43.1459C38.1176 35.9365 41.0157 26.3231 41.0157 16.211V8.78917ZM39.0625 16.211C39.0625 26.7865 35.8952 35.3628 29.6486 41.7013C25.671 45.7376 21.6393 47.5294 20.5078 47.9799C19.3749 47.5286 15.3439 45.7365 11.367 41.7013C5.12047 35.3628 1.95313 26.7865 1.95313 16.211V9.61619L3.22304 9.40486C9.4391 8.36879 15.3996 5.87855 20.5078 2.18897C25.6161 5.87855 31.5762 8.36879 37.7926 9.40486L39.0625 9.61619V16.211Z" fill="#0069DB"/>
<path d="M5.25399 21.999C5.60952 21.8525 5.85938 21.5027 5.85938 21.0957C5.85938 20.6131 5.50881 20.2118 5.04875 20.1336C4.99497 20.1241 4.93927 20.1191 4.88281 20.1191C4.3438 20.1191 3.90625 20.5567 3.90625 21.0957C3.90625 21.6347 4.3438 22.0723 4.88281 22.0723C5.0148 22.0723 5.13954 22.0456 5.25399 21.999Z" fill="#0069DB"/>
<path d="M36.3198 11.1246C30.9349 10.074 25.6516 7.93092 21.0411 4.92608C20.7169 4.71474 20.2984 4.71474 19.9745 4.92608C15.3156 7.96411 10.1749 10.0496 4.69475 11.125C4.2366 11.2146 3.90625 11.6163 3.90625 12.0832C3.90625 12.0832 3.9093 16.8917 3.91617 17.2102C3.92723 17.7423 4.36211 18.1661 4.89235 18.1661C4.89922 18.1661 4.90608 18.1661 4.91295 18.1658C5.45235 18.1547 5.88036 17.708 5.86891 17.169C5.86243 16.8646 5.85938 12.8793 5.85938 12.8793C11.0848 11.7594 16.0061 9.75206 20.5082 6.90438C24.9714 9.7223 30.0072 11.7761 35.1563 12.8801V16.213C35.1563 30.85 27.9515 40.2063 20.5033 43.7628C14.3917 40.8365 8.71468 33.9479 6.7154 24.6961C6.60134 24.169 6.08216 23.8344 5.5542 23.9481C5.02739 24.0618 4.69208 24.5817 4.80614 25.1089C7.01409 35.3254 13.4785 42.8038 20.1092 45.7316C20.2351 45.7869 20.3694 45.8147 20.5036 45.8147C20.6394 45.8147 20.7752 45.7865 20.9019 45.73C29.3484 41.9603 37.1094 31.6774 37.1094 16.213V12.0832C37.1094 11.6155 36.7783 11.2139 36.3198 11.1246Z" fill="#0069DB"/>
<path d="M20.5078 24.0254C18.8923 24.0254 17.5781 25.3396 17.5781 26.9551C17.5781 28.5706 18.8923 29.8848 20.5078 29.8848C22.1233 29.8848 23.4375 28.5706 23.4375 26.9551C23.4375 25.3396 22.1233 24.0254 20.5078 24.0254ZM20.5078 27.9316C19.9692 27.9316 19.5313 27.4933 19.5313 26.9551C19.5313 26.4164 19.9692 25.9785 20.5078 25.9785C21.0464 25.9785 21.4844 26.4164 21.4844 26.9551C21.4844 27.4933 21.0461 27.9316 20.5078 27.9316Z" fill="#0069DB"/>
<path d="M20.5078 14.2598C17.8154 14.2598 15.625 16.4502 15.625 19.1426V20.1191H14.6484C14.109 20.1191 13.6719 20.5563 13.6719 21.0957V32.8145C13.6719 33.3539 14.109 33.791 14.6484 33.791H26.3672C26.9066 33.791 27.3438 33.3539 27.3438 32.8145V21.0957C27.3438 20.5563 26.9066 20.1191 26.3672 20.1191H25.3906V19.1426C25.3906 16.4502 23.2002 14.2598 20.5078 14.2598ZM17.5781 19.1426C17.5781 17.5271 18.8923 16.2129 20.5078 16.2129C22.1233 16.2129 23.4375 17.5271 23.4375 19.1426V20.1191H17.5781V19.1426ZM25.3906 31.8379H15.625V22.0723H25.3906V31.8379Z" fill="#0069DB"/>
</svg>
