<svg width="50" height="50" viewBox="0 0 50 50" fill="none" xmlns="http://www.w3.org/2000/svg">
<path d="M16.5157 20.9334C16.5157 21.5727 16.6235 22.187 16.8193 22.7608C15.2446 24.242 14.3545 26.2768 14.3545 28.4511V31.111C14.3545 32.8392 15.7603 34.2453 17.4882 34.2453H29.0308H32.8082C34.3714 34.2453 35.6432 32.9733 35.6432 31.4099V29.1182C35.6432 27.2343 34.8852 25.4703 33.5416 24.1746C33.6979 23.6905 33.7835 23.1754 33.7835 22.6411C33.7835 19.8721 31.531 17.6192 28.7624 17.6192C28.1534 17.6192 27.5565 17.7278 26.9963 17.9375C25.9935 16.3335 24.212 15.2637 22.1844 15.2637C19.0587 15.2639 16.5157 17.8072 16.5157 20.9334ZM32.5266 25.9652C33.266 26.8432 33.6761 27.9488 33.6761 29.1182V31.41C33.6761 31.8889 33.2868 32.2784 32.8082 32.2784H30.0143V28.4512C30.0143 28.1362 29.9952 27.8244 29.9586 27.5166C30.9546 27.2743 31.8497 26.7342 32.5266 25.9652ZM27.7338 19.764C28.0609 19.6477 28.4079 19.5863 28.7624 19.5863C30.4464 19.5863 31.8164 20.9568 31.8164 22.6412C31.8164 23.1605 31.685 23.6507 31.4538 24.0801C31.4507 24.0859 31.4474 24.0917 31.4442 24.0976C31.0483 24.8218 30.3675 25.3702 29.5543 25.5892C29.5424 25.5924 29.5304 25.5953 29.5185 25.5983C29.5061 25.6015 29.4936 25.6042 29.4812 25.6072C29.0636 24.5383 28.4092 23.5674 27.552 22.7609C27.7479 22.1871 27.8558 21.5728 27.8558 20.9335C27.8559 20.5325 27.8134 20.1415 27.7338 19.764ZM22.1845 17.2308C23.759 17.2308 25.1062 18.2182 25.6415 19.6056C25.6434 19.6104 25.6453 19.6152 25.6473 19.62C25.8028 20.0285 25.8889 20.471 25.8889 20.9333C25.8889 22.9765 24.227 24.6387 22.1846 24.6387C20.1435 24.6387 18.4829 22.9765 18.4829 20.9333C18.4828 18.8918 20.1433 17.2308 22.1845 17.2308ZM22.1845 26.6058C23.939 26.6058 25.5097 25.8047 26.5508 24.5492C27.511 25.6178 28.0474 26.9926 28.0474 28.4511V32.2783H17.4882C16.8448 32.2783 16.3215 31.7547 16.3215 31.111V28.4511C16.3215 26.9933 16.8585 25.6186 17.8203 24.5493C18.8609 25.8047 20.4309 26.6058 22.1845 26.6058Z" fill="#0069DB"/>
<path d="M47.4679 32.5521V24.7546V16.9599C48.9291 16.5379 50 15.2018 50 13.622C50 11.7046 48.4229 10.1446 46.4844 10.1446C44.5474 10.1446 42.9715 11.7046 42.9715 13.622C42.9715 15.2015 44.0412 16.5374 45.5009 16.9597V23.7711H43.2583C43.0375 19.5824 41.4106 15.6563 38.605 12.5393L40.837 10.3066C40.8372 10.3064 40.8374 10.3062 40.8376 10.3061C41.0152 10.1281 41.1251 9.88252 41.1251 9.61133V6.81514C42.5847 6.39287 43.6544 5.05693 43.6544 3.47744C43.6544 1.55996 42.0785 0 40.1416 0C38.203 0 36.626 1.55996 36.626 3.47744C36.626 5.05723 37.6969 6.39336 39.1581 6.81533V9.20391L37.2129 11.1496C35.0451 9.20215 32.4455 7.79541 29.6359 7.0624C29.1101 6.9249 28.5731 7.24014 28.436 7.76572C28.2989 8.29131 28.6139 8.82852 29.1395 8.96562C31.9267 9.69277 34.485 11.1624 36.5378 13.2157C39.6147 16.292 41.3115 20.3811 41.3178 24.7318C41.3176 24.7395 41.3166 24.7468 41.3166 24.7544C41.3166 24.7622 41.3176 24.7697 41.3178 24.7775C41.3121 29.1292 39.6153 33.2191 36.5375 36.2963C33.4563 39.3795 29.3587 41.0774 24.9997 41.0774C20.6407 41.0774 16.5424 39.3794 13.4597 36.2961C7.09775 29.9328 7.09775 19.5789 13.4597 13.2156C15.5134 11.1616 18.0755 9.69102 20.8688 8.96299C21.3944 8.82607 21.7095 8.28887 21.5725 7.76328C21.4355 7.2376 20.8983 6.92266 20.3727 7.05967C17.5575 7.79336 14.9541 9.20098 12.7849 11.1493L10.842 9.2042V6.81514C12.3017 6.39297 13.3715 5.05693 13.3715 3.47744C13.3715 1.55996 11.7955 0 9.8585 0C7.91992 0 6.34287 1.55996 6.34287 3.47744C6.34287 5.05723 7.41377 6.39336 8.875 6.81533V9.61113C8.875 9.61279 8.8752 9.61396 8.87529 9.61562C8.87646 9.86562 8.97207 10.1153 9.16269 10.3062L11.393 12.5391C8.51348 15.7432 6.96562 19.7275 6.74951 23.7709H4.49658V16.9597C5.95781 16.5377 7.02881 15.2016 7.02881 13.6218C7.02881 11.7044 5.45156 10.1444 3.51309 10.1444C1.57588 10.1445 0 11.7045 0 13.622C0 15.2015 1.06973 16.5374 2.52939 16.9597V24.7546V32.5522C1.06973 32.9744 0 34.3104 0 35.8899C0 37.8073 1.57588 39.3673 3.51289 39.3673C5.45146 39.3673 7.02861 37.8073 7.02861 35.8899C7.02861 34.3102 5.95762 32.9739 4.49639 32.552V25.738H6.74922C6.96475 29.7824 8.51221 33.7682 11.3925 36.973L9.1625 39.2057C8.9709 39.3975 8.8751 39.6487 8.8749 39.9C8.8749 39.9003 8.8748 39.9005 8.8748 39.9008V42.6966C7.41357 43.1186 6.34268 44.4547 6.34268 46.0345C6.34268 47.952 7.91982 49.512 9.8583 49.512C11.7953 49.512 13.3713 47.9521 13.3713 46.0345C13.3713 44.455 12.3015 43.119 10.8418 42.6969V40.3077L12.7831 38.3642C16.1439 41.3893 20.4444 43.0445 24.9995 43.0445C29.5548 43.0445 33.8549 41.3891 37.2144 38.364L39.1579 40.308V42.6965C37.6967 43.1185 36.6258 44.4546 36.6258 46.0344C36.6258 47.9519 38.2029 49.5119 40.1414 49.5119C42.0783 49.5119 43.6542 47.952 43.6542 46.0344C43.6542 44.4549 42.5845 43.1189 41.1249 42.6968V39.9008C41.1249 39.6295 41.015 39.384 40.8374 39.2061C40.8372 39.2059 40.8371 39.2057 40.8368 39.2055L38.605 36.9731C41.4113 33.8554 43.0376 29.9278 43.2579 25.7382H45.5006V32.5524C44.0409 32.9746 42.9712 34.3106 42.9712 35.8902C42.9712 37.8076 44.5471 39.3676 46.4841 39.3676C48.4227 39.3676 49.9997 37.8076 49.9997 35.8902C50 34.3102 48.9291 32.9739 47.4679 32.5521ZM38.593 3.47754C38.593 2.64473 39.2876 1.96709 40.1416 1.96709C40.9939 1.96709 41.6873 2.64473 41.6873 3.47754C41.6873 4.31035 40.9939 4.98799 40.1416 4.98799C39.2876 4.98789 38.593 4.31035 38.593 3.47754ZM8.30986 3.47754C8.30986 2.64473 9.00449 1.96709 9.8585 1.96709C10.7109 1.96709 11.4044 2.64473 11.4044 3.47754C11.4044 4.31035 10.7109 4.98799 9.8585 4.98799C9.00449 4.98789 8.30986 4.31035 8.30986 3.47754ZM5.06162 35.8899C5.06162 36.7228 4.36689 37.4004 3.51289 37.4004C2.66045 37.4004 1.96709 36.7229 1.96709 35.8899C1.96709 35.057 2.66045 34.3794 3.51289 34.3794C4.36689 34.3795 5.06162 35.0571 5.06162 35.8899ZM3.51289 15.1323C2.66045 15.1323 1.96709 14.4548 1.96709 13.6219C1.96709 12.789 2.66045 12.1114 3.51289 12.1114C4.36689 12.1114 5.06162 12.789 5.06162 13.6219C5.06162 14.4548 4.36689 15.1323 3.51289 15.1323ZM11.4044 46.0343C11.4044 46.8672 10.7109 47.5448 9.8585 47.5448C9.00449 47.5448 8.30986 46.8672 8.30986 46.0343C8.30986 45.2015 9.00449 44.5239 9.8585 44.5239C10.7108 44.5239 11.4044 45.2016 11.4044 46.0343ZM41.6873 46.0343C41.6873 46.8672 40.9939 47.5448 40.1416 47.5448C39.2876 47.5448 38.593 46.8672 38.593 46.0343C38.593 45.2015 39.2876 44.5239 40.1416 44.5239C40.9939 44.5239 41.6873 45.2016 41.6873 46.0343ZM44.9385 13.622C44.9385 12.7892 45.6318 12.1115 46.4843 12.1115C47.3383 12.1115 48.0329 12.7891 48.0329 13.622C48.0329 14.4549 47.3383 15.1324 46.4843 15.1324C45.6319 15.1323 44.9385 14.4548 44.9385 13.622ZM46.4844 37.4004C45.6319 37.4004 44.9386 36.7229 44.9386 35.8899C44.9386 35.057 45.6319 34.3794 46.4844 34.3794C47.3384 34.3794 48.033 35.057 48.033 35.8899C48.0329 36.7229 47.3383 37.4004 46.4844 37.4004Z" fill="#0069DB"/>
<path d="M25.0044 8.43184C25.5476 8.43184 25.9879 7.9915 25.9879 7.44834C25.9879 6.90518 25.5476 6.46484 25.0044 6.46484H24.9987C24.4556 6.46484 24.0181 6.90518 24.0181 7.44834C24.0181 7.9915 24.4612 8.43184 25.0044 8.43184Z" fill="#0069DB"/>
</svg>
