<svg width="50" height="51" viewBox="0 0 50 51" fill="none" xmlns="http://www.w3.org/2000/svg">
<path d="M21.4362 32.5002L24.2826 35.5678C24.4674 35.7669 24.7268 35.8801 24.9984 35.8801C25.2701 35.8801 25.5295 35.7669 25.7143 35.5678L28.5607 32.5002H33.5739C34.929 32.5002 36.0314 31.399 36.0314 30.0454V21.3423C36.0314 19.9872 34.929 18.8848 33.5739 18.8848H16.423C15.0695 18.8848 13.9683 19.9872 13.9683 21.3423V30.0454C13.9683 31.3989 15.0694 32.5002 16.423 32.5002H21.4362ZM15.9214 30.0454V21.3423C15.9214 21.0688 16.1512 20.8379 16.423 20.8379H33.574C33.8475 20.8379 34.0784 21.0688 34.0784 21.3423V30.0454C34.0784 30.3173 33.8475 30.5471 33.574 30.5471H28.1348C27.8631 30.5471 27.6037 30.6603 27.4189 30.8594L24.9985 33.4678L22.5782 30.8594C22.3935 30.6603 22.1341 30.5471 21.8624 30.5471H16.4231C16.1512 30.5471 15.9214 30.3173 15.9214 30.0454Z" fill="#0069DB"/>
<path d="M30.252 26.6689C30.7912 26.6689 31.2285 26.2316 31.2285 25.6923V25.6867C31.2285 25.1475 30.7912 24.7129 30.252 24.7129C29.7127 24.7129 29.2754 25.1529 29.2754 25.6922C29.2754 26.2315 29.7127 26.6689 30.252 26.6689Z" fill="#0069DB"/>
<path d="M24.998 26.6689C25.5373 26.6689 25.9746 26.2316 25.9746 25.6923V25.6867C25.9746 25.1475 25.5373 24.7129 24.998 24.7129C24.4588 24.7129 24.0215 25.1529 24.0215 25.6922C24.0215 26.2315 24.4588 26.6689 24.998 26.6689Z" fill="#0069DB"/>
<path d="M19.7471 26.6689C20.2863 26.6689 20.7236 26.2316 20.7236 25.6923V25.6867C20.7236 25.1475 20.2863 24.7129 19.7471 24.7129C19.2078 24.7129 18.7705 25.1529 18.7705 25.6922C18.7705 26.2315 19.2077 26.6689 19.7471 26.6689Z" fill="#0069DB"/>
<path d="M44.053 33.143C45.029 30.717 45.5233 28.151 45.5233 25.4985C45.5233 22.8476 45.0289 20.2822 44.0527 17.8563C45.2899 17.4181 46.4251 16.7061 47.3829 15.7501C50.8641 12.2655 50.864 6.59834 47.3826 3.1168C45.6951 1.42939 43.4513 0.5 41.0646 0.5C38.6766 0.5 36.4335 1.42959 34.7495 3.1165C33.7927 4.07256 33.0802 5.20762 32.6419 6.446C30.2132 5.46846 27.6475 4.97334 24.9985 4.97334C22.3449 4.97334 19.7775 5.46816 17.3505 6.44522C16.9211 5.229 16.2216 4.08779 15.2507 3.1168C13.5633 1.42939 11.3195 0.5 8.93272 0.5C6.54463 0.5 4.30156 1.42959 2.61768 3.1165C0.929688 4.80303 0 7.04619 0 9.43262C0 11.8188 0.92959 14.0625 2.61738 15.7505C3.57344 16.7064 4.70791 17.4186 5.94531 17.8567C5.54971 18.8444 5.22959 19.864 4.99141 20.9008C4.8707 21.4265 5.19893 21.9504 5.72461 22.0711C5.79814 22.088 5.87168 22.0961 5.94404 22.0961C6.38906 22.0961 6.79111 21.79 6.89492 21.3379C7.13311 20.301 7.4626 19.2836 7.87402 18.3028C8.22295 18.3438 8.57598 18.3672 8.93272 18.3672C11.3164 18.3672 13.56 17.438 15.251 15.75C17.2604 13.7388 18.1074 11.0006 17.7972 8.3751C20.0751 7.41445 22.4938 6.92637 24.9986 6.92637C27.4987 6.92637 29.9159 7.41475 32.1959 8.37598C32.1551 8.72422 32.1318 9.07646 32.1318 9.43252C32.1318 11.8188 33.0614 14.0624 34.7492 15.7504C36.4368 17.4378 38.6796 18.3672 41.0646 18.3672C41.4212 18.3672 41.774 18.3438 42.123 18.3028C43.0825 20.5797 43.5702 22.9963 43.5702 25.4984C43.5702 28.0022 43.0826 30.4198 42.123 32.6968C41.774 32.6559 41.4212 32.6326 41.0645 32.6326C38.6766 32.6326 36.4335 33.5622 34.7494 35.2491C33.0614 36.9357 32.1317 39.1789 32.1317 41.5652C32.1317 41.9219 32.1551 42.2748 32.196 42.6237C29.919 43.5832 27.5018 44.0708 24.9984 44.0708C22.4937 44.0708 20.075 43.5827 17.797 42.6221C18.107 39.9963 17.26 37.259 15.2505 35.2495C13.563 33.5621 11.3192 32.6327 8.93252 32.6327C8.57676 32.6327 8.22481 32.6559 7.87676 32.6966C7.46475 31.7177 7.13516 30.7038 6.89727 29.6723C6.77608 29.1467 6.25166 28.8183 5.72627 28.9401C5.20068 29.0613 4.87295 29.5855 4.99414 30.1111C5.23184 31.1421 5.55186 32.1571 5.94727 33.1418C4.70791 33.5799 3.57266 34.2924 2.61748 35.2492C0.929687 36.9359 0 39.179 0 41.5653C0 43.9516 0.92959 46.1952 2.61738 47.8832C4.30479 49.5706 6.54756 50.5 8.93272 50.5C11.3165 50.5 13.5602 49.5708 15.251 47.8828C16.2221 46.9108 16.9215 45.7689 17.3509 44.5521C19.7778 45.5292 22.3451 46.0239 24.9986 46.0239C27.6506 46.0239 30.2165 45.5297 32.6424 44.5537C33.0807 45.7918 33.793 46.9269 34.7492 47.8832C36.4367 49.5706 38.6795 50.5 41.0646 50.5C43.4483 50.5 45.692 49.5708 47.3829 47.8828C50.8641 44.3983 50.864 38.7311 47.3826 35.2495C46.4264 34.2934 45.2912 33.5812 44.053 33.143ZM8.93272 16.4142C8.48369 16.4142 8.04141 16.371 7.60986 16.2886C7.53389 16.262 7.45645 16.2466 7.379 16.2394C6.57969 16.0583 5.82168 15.7382 5.13418 15.2899C5.28047 14.1568 5.93242 13.1402 6.90498 12.5276C7.5041 12.8681 8.1959 13.0635 8.93272 13.0635C9.67031 13.0635 10.3627 12.8679 10.9624 12.5272C11.9341 13.1396 12.5854 14.1565 12.7313 15.2904C11.6091 16.021 10.3007 16.4142 8.93272 16.4142ZM6.76465 8.93955C6.76465 7.74248 7.73721 6.76875 8.93262 6.76875C10.1296 6.76875 11.1034 7.74258 11.1034 8.93955C11.1034 10.1365 10.1296 11.1104 8.93262 11.1104C7.73721 11.1103 6.76465 10.1365 6.76465 8.93955ZM14.3703 13.8107C13.9889 12.7613 13.3076 11.8358 12.4079 11.1555C12.8178 10.5149 13.0565 9.75478 13.0565 8.93955C13.0565 6.66562 11.2066 4.81563 8.93262 4.81563C6.66016 4.81563 4.81152 6.66562 4.81152 8.93955C4.81152 9.75488 5.0501 10.5149 5.45977 11.1555C4.55957 11.8356 3.87793 12.7605 3.496 13.8091C2.49688 12.5723 1.95303 11.0442 1.95303 9.43252C1.95303 7.56816 2.6793 5.81572 3.99893 4.49717C5.31484 3.1791 7.0669 2.45312 8.93272 2.45312C10.7979 2.45312 12.5512 3.1793 13.8696 4.49785C16.4112 7.03955 16.5773 11.0718 14.3703 13.8107ZM8.93272 48.5469C7.56299 48.5469 6.2541 48.1532 5.13262 47.4216C5.2793 46.2876 5.9333 45.2719 6.90703 44.6614C7.50576 45.0012 8.19678 45.1962 8.93281 45.1962C9.66963 45.1962 10.3613 45.001 10.9606 44.661C11.9334 45.2712 12.5867 46.2873 12.7331 47.4221C11.6104 48.1533 10.3015 48.5469 8.93272 48.5469ZM6.76465 41.0723C6.76465 39.8752 7.73721 38.9015 8.93262 38.9015C10.1296 38.9015 11.1034 39.8753 11.1034 41.0723C11.1034 42.2692 10.1296 43.2431 8.93262 43.2431C7.73721 43.2431 6.76465 42.2693 6.76465 41.0723ZM14.3706 45.943C13.9891 44.8933 13.3086 43.9671 12.4081 43.2879C12.8179 42.6474 13.0565 41.8874 13.0565 41.0723C13.0565 38.7983 11.2066 36.9483 8.93262 36.9483C6.66016 36.9483 4.81152 38.7983 4.81152 41.0723C4.81152 41.8874 5.0501 42.6474 5.45947 43.2879C4.55869 43.9669 3.87773 44.8926 3.4957 45.9415C2.49678 44.7047 1.95313 43.177 1.95313 41.5653C1.95313 39.701 2.67939 37.9486 3.99902 36.63C5.31494 35.3118 7.06699 34.5858 8.93272 34.5858C10.7978 34.5858 12.5511 35.312 13.8696 36.6306C16.411 39.1721 16.5772 43.2041 14.3706 45.943ZM35.6279 13.8092C34.6288 12.5724 34.085 11.0443 34.085 9.43262C34.085 7.56826 34.8112 5.81582 36.1309 4.49727C37.4468 3.1791 39.1988 2.45312 41.0646 2.45312C42.9297 2.45312 44.683 3.1793 46.0016 4.49785C48.5432 7.03955 48.7093 11.0721 46.5021 13.811C46.1205 12.7619 45.4404 11.8352 44.5403 11.1546C44.9499 10.5143 45.1885 9.75439 45.1885 8.93945C45.1885 6.66553 43.3386 4.81553 41.0646 4.81553C38.7921 4.81553 36.9435 6.66553 36.9435 8.93945C36.9435 9.7542 37.1817 10.5139 37.5909 11.1541C36.6903 11.8344 36.0099 12.7604 35.6279 13.8092ZM43.2353 8.93955C43.2353 10.1365 42.2614 11.1104 41.0645 11.1104C39.869 11.1104 38.8965 10.1365 38.8965 8.93955C38.8965 7.74248 39.869 6.76875 41.0645 6.76875C42.2615 6.76865 43.2353 7.74248 43.2353 8.93955ZM41.0646 16.4142C39.6956 16.4142 38.3872 16.0208 37.266 15.2898C37.4124 14.1567 38.0642 13.1403 39.0372 12.5278C39.6363 12.8681 40.3278 13.0635 41.0646 13.0635C41.8019 13.0635 42.4939 12.8681 43.0936 12.5276C44.0658 13.1405 44.7171 14.1572 44.8632 15.2904C43.7408 16.021 42.4325 16.4142 41.0646 16.4142ZM41.0646 48.5469C39.6955 48.5469 38.3872 48.1535 37.266 47.4226C37.4124 46.2883 38.0648 45.272 39.0388 44.6614C39.6375 45.0012 40.3285 45.1963 41.0646 45.1963C41.8012 45.1963 42.4928 45.0012 43.092 44.6613C44.0651 45.2723 44.7171 46.2888 44.8632 47.4232C43.7409 48.1537 42.4325 48.5469 41.0646 48.5469ZM38.8966 41.0723C38.8966 39.8752 39.8691 38.9015 41.0646 38.9015C42.2615 38.9015 43.2354 39.8753 43.2354 41.0723C43.2354 42.2692 42.2615 43.2431 41.0646 43.2431C39.8691 43.2431 38.8966 42.2693 38.8966 41.0723ZM46.5022 45.9436C46.1206 44.8941 45.4402 43.9679 44.5397 43.2883C44.9496 42.6477 45.1885 41.8876 45.1885 41.0723C45.1885 38.7983 43.3386 36.9483 41.0646 36.9483C38.7921 36.9483 36.9435 38.7983 36.9435 41.0723C36.9435 41.8874 37.182 42.6474 37.5915 43.2879C36.6906 43.967 36.0099 44.8928 35.6278 45.9418C34.6288 44.705 34.085 43.1771 34.085 41.5653C34.085 39.701 34.8112 37.9486 36.1309 36.6301C37.4469 35.3118 39.1989 34.5858 41.0646 34.5858C42.9296 34.5858 44.6829 35.3121 46.0016 36.6306C48.5432 39.1723 48.7092 43.2047 46.5022 45.9436Z" fill="#0069DB"/>
<path d="M6.42676 25.5048V25.4991C6.42676 24.9599 5.98945 24.5254 5.4502 24.5254C4.91094 24.5254 4.47363 24.9654 4.47363 25.5047C4.47363 26.0439 4.91094 26.4812 5.4502 26.4812C5.98945 26.4812 6.42676 26.044 6.42676 25.5048Z" fill="#0069DB"/>
</svg>
