<svg width="155" height="48" viewBox="0 0 155 48" fill="none" xmlns="http://www.w3.org/2000/svg">
<rect width="155" height="48" rx="10" fill="#002A58"/>
<path d="M54.5 19H55.24V12.64H57.7V12H52.04V12.64H54.5V19ZM60.2192 11.49C60.5392 11.49 60.7692 11.7 60.7692 11.98C60.7692 12.28 60.5792 12.51 60.1792 12.69L60.4292 13C60.9692 12.75 61.2292 12.4 61.2292 11.93C61.2292 11.4 60.8392 11.07 60.2792 11.07C59.9892 11.07 59.6692 11.16 59.4492 11.33L59.6192 11.68C59.8192 11.55 60.0092 11.49 60.2192 11.49ZM60.2792 13.7C59.4492 13.7 58.6692 13.96 58.1392 14.41L58.4592 14.94C58.8892 14.56 59.5292 14.32 60.2092 14.32C61.1892 14.32 61.6992 14.81 61.6992 15.71V16.03H60.0292C58.5192 16.03 57.9992 16.71 57.9992 17.52C57.9992 18.43 58.7292 19.05 59.9192 19.05C60.7892 19.05 61.4092 18.72 61.7292 18.18V19H62.4092V15.74C62.4092 14.38 61.6392 13.7 60.2792 13.7ZM60.0292 18.49C59.1892 18.49 58.6992 18.11 58.6992 17.5C58.6992 16.96 59.0292 16.56 60.0492 16.56H61.6992V17.42C61.4192 18.11 60.8292 18.49 60.0292 18.49ZM64.6977 12.59C64.9977 12.59 65.2177 12.36 65.2177 12.07C65.2177 11.8 64.9877 11.58 64.6977 11.58C64.4077 11.58 64.1777 11.81 64.1777 12.08C64.1777 12.36 64.4077 12.59 64.6977 12.59ZM64.3377 19H65.0477V13.74H64.3377V19ZM73.3604 13.74L71.3704 18.22L69.4004 13.74H68.6604L70.9904 19H71.7204L74.0604 13.74H73.3604ZM79.0838 12.09L77.8838 11H77.0138L78.4638 12.09H79.0838ZM76.9538 12.34L77.9238 12.93H78.6038L77.3038 11.99H76.6038L75.3038 12.93H75.9838L76.9538 12.34ZM79.5038 16.37C79.5038 14.79 78.4338 13.7 76.9538 13.7C75.4738 13.7 74.3838 14.81 74.3838 16.37C74.3838 17.93 75.5038 19.05 77.1438 19.05C77.9738 19.05 78.7038 18.75 79.1738 18.19L78.7738 17.73C78.3738 18.19 77.8038 18.42 77.1638 18.42C76.0138 18.42 75.1738 17.69 75.0938 16.59H79.4938C79.4938 16.51 79.5038 16.43 79.5038 16.37ZM76.9538 14.31C77.9838 14.31 78.7338 15.03 78.8238 16.06H75.0938C75.1838 15.03 75.9338 14.31 76.9538 14.31ZM85.7462 19.05C86.6362 19.05 87.3862 18.69 87.8062 18.01L87.2762 17.65C86.9162 18.18 86.3562 18.42 85.7462 18.42C84.5962 18.42 83.7562 17.61 83.7562 16.37C83.7562 15.14 84.5962 14.32 85.7462 14.32C86.3562 14.32 86.9162 14.57 87.2762 15.1L87.8062 14.74C87.3862 14.05 86.6362 13.7 85.7462 13.7C84.1762 13.7 83.0362 14.8 83.0362 16.37C83.0362 17.94 84.1762 19.05 85.7462 19.05ZM91.8028 13.7C90.9128 13.7 90.2228 14.05 89.8328 14.66V11.58H89.1228V19H89.8328V16.24C89.8328 15.04 90.5428 14.34 91.6728 14.34C92.6728 14.34 93.2528 14.91 93.2528 16.02V19H93.9628V15.95C93.9628 14.44 93.0828 13.7 91.8028 13.7ZM98.0599 19.05C99.5999 19.05 100.73 17.93 100.73 16.37C100.73 14.81 99.5999 13.7 98.0599 13.7C96.5199 13.7 95.3799 14.81 95.3799 16.37C95.3799 17.93 96.5199 19.05 98.0599 19.05ZM98.0599 18.42C96.9399 18.42 96.0999 17.6 96.0999 16.37C96.0999 15.14 96.9399 14.32 98.0599 14.32C99.1799 14.32 100.01 15.14 100.01 16.37C100.01 17.6 99.1799 18.42 98.0599 18.42Z" fill="white"/>
<path d="M63.916 28.0316L61.768 34.4516L59.644 28.0316H58.204L56.032 34.4156L53.944 28.0316H52.324L55.108 36.4316H56.776L58.888 30.2156L60.964 36.4316H62.62L65.404 28.0316H63.916ZM66.6749 36.4316H68.2349V28.0316H66.6749V36.4316ZM76.4229 28.0316V33.7196L71.7909 28.0316H70.5069V36.4316H72.0549V30.7436L76.6869 36.4316H77.9709V28.0316H76.4229ZM80.2218 36.4316H83.8938C86.6178 36.4316 88.4778 34.7516 88.4778 32.2316C88.4778 29.7116 86.6178 28.0316 83.8938 28.0316H80.2218V36.4316ZM81.7818 35.1116V29.3516H83.8218C85.6938 29.3516 86.9058 30.4916 86.9058 32.2316C86.9058 33.9716 85.6938 35.1116 83.8218 35.1116H81.7818ZM94.0598 36.5516C96.6638 36.5516 98.5838 34.7276 98.5838 32.2316C98.5838 29.7356 96.6638 27.9116 94.0598 27.9116C91.4558 27.9116 89.5358 29.7476 89.5358 32.2316C89.5358 34.7156 91.4558 36.5516 94.0598 36.5516ZM94.0598 35.1836C92.3678 35.1836 91.1078 33.9476 91.1078 32.2316C91.1078 30.5156 92.3678 29.2796 94.0598 29.2796C95.7518 29.2796 97.0118 30.5156 97.0118 32.2316C97.0118 33.9476 95.7518 35.1836 94.0598 35.1836ZM110.756 28.0316L108.608 34.4516L106.484 28.0316H105.044L102.872 34.4156L100.784 28.0316H99.1638L101.948 36.4316H103.616L105.728 30.2156L107.804 36.4316H109.46L112.244 28.0316H110.756ZM116.119 36.5516C118.423 36.5516 119.515 35.3996 119.515 34.0556C119.515 30.9716 114.535 32.1356 114.535 30.3476C114.535 29.7116 115.063 29.2076 116.359 29.2076C117.091 29.2076 117.919 29.4236 118.675 29.8676L119.167 28.6556C118.435 28.1756 117.379 27.9116 116.371 27.9116C114.067 27.9116 112.987 29.0636 112.987 30.4196C112.987 33.5396 117.979 32.3516 117.979 34.1636C117.979 34.7876 117.427 35.2556 116.119 35.2556C115.087 35.2556 114.019 34.8716 113.347 34.3316L112.807 35.5436C113.503 36.1436 114.811 36.5516 116.119 36.5516Z" fill="white"/>
<path d="M30.0809 33.7815L20 32.3254V23.8126H30.0809V33.7815ZM30.0809 23.0285H20V14.9638L30.0809 13.5077V23.0285ZM43.8581 35.6857L30.865 33.7815V23.8126H43.8581V35.6857ZM43.8581 23.0285H30.865V13.5077L43.8581 11.6035V23.0285Z" fill="white"/>
</svg>
